<?xml version="1.0" encoding="UTF-8" standalone="no"?>
<svg width="170px" height="40px" viewBox="0 0 170 40" version="1.1" xmlns="http://www.w3.org/2000/svg" xmlns:xlink="http://www.w3.org/1999/xlink" style="background: #FFFFFF;">
    <!-- Generator: Sketch 47.1 (45422) - http://www.bohemiancoding.com/sketch -->
    <title>G&amp;A_SUGARPLUM_logo</title>
    <desc>Created with Sketch.</desc>
    <defs></defs>
    <g id="Page-1" stroke="none" stroke-width="1" fill="none" fill-rule="evenodd">
        <g id="G&amp;A_SUGARPLUM_logo">
            <g id="SUGARPLUM" transform="translate(29.000000, 4.000000)">
                <g id="Group-10" transform="translate(39.000000, 6.000000)">
                    <g id="Group">
                        <path d="M5.15754123,2.51961824 C4.63206108,2.34146252 4.19140914,2.252386 3.83557218,2.252386 C3.55421273,2.252386 3.33285236,2.30540774 3.17148444,2.41145281 C3.01011652,2.51749788 2.92943377,2.67232136 2.92943377,2.87592789 C2.92943377,3.07105082 2.99977258,3.23435777 3.1404523,3.36585366 C3.28113203,3.49734954 3.45491026,3.60339302 3.66179221,3.68398727 C3.86867416,3.76458153 4.17485486,3.86850414 4.58034348,3.99575822 C5.18443877,4.17391393 5.6830168,4.35206698 6.0760925,4.53022269 C6.46916821,4.70837841 6.80638073,4.98197058 7.08774018,5.35100742 C7.36909963,5.72004426 7.50977725,6.20148165 7.50977725,6.79533404 C7.50977725,7.38918643 7.3566869,7.89607425 7.05050162,8.31601273 C6.74431633,8.7359512 6.32435227,9.05196076 5.79059684,9.2640509 C5.25684141,9.47614104 4.66309911,9.58218452 4.00935215,9.58218452 C3.28940296,9.58218452 2.57153336,9.45281147 1.85572182,9.19406151 C1.13991027,8.93531154 0.521342515,8.58112632 0,8.13149523 L0.881312702,6.31177094 C1.31990244,6.7105004 1.83916834,7.03711432 2.439126,7.29162248 C3.03908365,7.54613065 3.57076229,7.67338282 4.03417786,7.67338282 C4.37346426,7.67338282 4.64033797,7.60975673 4.83480701,7.48250265 C5.02927604,7.35524857 5.1265091,7.16861205 5.1265091,6.92258749 C5.1265091,6.71898095 5.0541015,6.54931139 4.90928414,6.4135737 C4.76446677,6.27783601 4.58241338,6.16967166 4.36311852,6.08907741 C4.14382365,6.00848316 3.83557417,5.91304403 3.43836082,5.80275716 C2.84254081,5.63308505 2.35016915,5.46129461 1.96123108,5.2873807 C1.57229302,5.11346679 1.23921807,4.85047896 0.961996259,4.49840933 C0.684774446,4.1463397 0.546165618,3.67762753 0.546165618,3.09225875 C0.546165618,2.54082439 0.688912023,2.05726613 0.974409114,1.64156946 C1.25990621,1.22587279 1.66538875,0.905621485 2.1908689,0.680805938 C2.71634905,0.455990392 3.32664165,0.343584305 4.02176501,0.343584305 C4.65068614,0.343584305 5.27132268,0.434781697 5.88369325,0.617179215 C6.49606382,0.799576734 7.03394883,1.04347673 7.49736439,1.34888653 L6.6408774,3.20678685 C6.17746183,2.92682787 5.68302139,2.69777396 5.15754123,2.51961824 Z M15.6060619,2.55779427 L15.6060619,9.44220573 L13.3965737,9.44220573 L13.3965737,8.3223754 C12.9414334,9.11983432 12.2256326,9.52704127 11.2491498,9.54400848 C10.5209253,9.54400848 9.93959578,9.30435022 9.50514368,8.82502651 C9.07069159,8.3457028 8.8534688,7.70732106 8.8534688,6.90986214 L8.8534688,2.55779427 L11.062957,2.55779427 L11.062957,6.26086957 C11.062957,6.65111542 11.16019,6.95652064 11.3546591,7.17709438 C11.5491281,7.39766812 11.8118642,7.50795334 12.1428754,7.50795334 C12.5318134,7.49946973 12.8379941,7.35312973 13.0614266,7.06892895 C13.2848591,6.78472817 13.3965737,6.41357599 13.3965737,5.95546129 L13.3965737,2.55779427 L15.6060619,2.55779427 Z M24.1119708,2.55779427 L24.1119708,8.83138918 C24.1119708,9.4676596 23.9588804,10.0254483 23.6526951,10.504772 C23.3465098,10.9840957 22.9182706,11.353127 22.3679646,11.611877 C21.8176586,11.870627 21.1825406,12 20.4625914,12 C19.8998725,12 19.3578499,11.919407 18.8365074,11.7582185 C18.3151649,11.5970299 17.8558938,11.3807013 17.4586805,11.1092259 L18.2282775,9.54400848 C18.5344628,9.75609862 18.8654689,9.92152645 19.2213059,10.0402969 C19.5771429,10.1590674 19.937112,10.2184517 20.3012243,10.2184517 C20.797741,10.2184517 21.1908108,10.0996831 21.4804455,9.8621421 C21.7700802,9.62460115 21.9148954,9.30222897 21.9148954,8.89501591 L21.9148954,8.15694592 C21.4680304,8.75928191 20.8308436,9.06044539 20.0033158,9.06044539 C19.4488721,9.06044539 18.9544317,8.92258887 18.5199796,8.64687169 C18.0855275,8.37115451 17.7462462,7.98091451 17.5021255,7.47613998 C17.2580048,6.97136545 17.1359463,6.39236806 17.1359463,5.73913043 C17.1359463,5.09437642 17.2538672,4.52598337 17.4897126,4.03393425 C17.7255581,3.54188513 18.058633,3.16012861 18.4889475,2.88865323 C18.9192619,2.61717786 19.407496,2.48144221 19.9536643,2.48144221 C20.3674282,2.48144221 20.741879,2.55991438 21.0770277,2.71686108 C21.4121765,2.87380778 21.6914629,3.10074083 21.9148954,3.39766702 L21.9148954,2.55779427 L24.1119708,2.55779427 Z M21.5425098,6.96076352 C21.7907681,6.66383733 21.9148954,6.27783907 21.9148954,5.80275716 C21.9148954,5.31919164 21.7907681,4.92895164 21.5425098,4.63202545 C21.2942514,4.33509926 20.9673829,4.18663839 20.5618942,4.18663839 C20.1564056,4.18663839 19.8274682,4.33722013 19.5750723,4.63838812 C19.3226763,4.93955612 19.1964802,5.32767525 19.1964802,5.80275716 C19.1964802,6.27783907 19.3226763,6.66383733 19.5750723,6.96076352 C19.8274682,7.25768971 20.1564056,7.40615058 20.5618942,7.40615058 C20.9673829,7.40615058 21.2942514,7.25768971 21.5425098,6.96076352 Z M31.302117,3.12407211 C31.8151842,3.56097779 32.0758516,4.1739091 32.0841268,4.96288441 L32.0841268,9.44220573 L29.9118772,9.44220573 L29.9118772,8.6659597 C29.4650122,9.25132848 28.7905872,9.54400848 27.8885819,9.54400848 C27.176908,9.54400848 26.6162663,9.34676761 26.20664,8.95227996 C25.7970138,8.5577923 25.5922037,8.03817926 25.5922037,7.39342524 C25.5922037,6.74018761 25.8135641,6.23117892 26.2562914,5.86638388 C26.6990188,5.50158884 27.3341369,5.31495232 28.1616647,5.30646872 L29.9118772,5.30646872 L29.9118772,5.23011665 C29.9118772,4.89925603 29.8022314,4.64475169 29.5829366,4.46659597 C29.3636417,4.28844025 29.0471171,4.19936373 28.6333532,4.19936373 C28.3519937,4.19936373 28.0354691,4.24602286 27.6837698,4.33934252 C27.3320705,4.43266218 26.9783076,4.56839784 26.6224707,4.74655355 L26.0142408,3.2195122 C26.5604091,2.96500403 27.0838126,2.77624664 27.5844669,2.65323436 C28.0851212,2.53022208 28.6043872,2.46871686 29.1422802,2.46871686 C30.0691114,2.46871686 30.7890498,2.68716643 31.302117,3.12407211 Z M29.4401887,7.75609756 C29.6884471,7.59066725 29.845675,7.37645943 29.9118772,7.11346766 L29.9118772,6.51537646 L28.5961146,6.51537646 C27.9754688,6.51537646 27.6651505,6.75291385 27.6651505,7.22799576 C27.6651505,7.46553671 27.7458332,7.6542941 27.9072012,7.79427359 C28.0685691,7.93425309 28.2899294,8.00424178 28.5712889,8.00424178 C28.9023,8.00424178 29.1919304,7.92152787 29.4401887,7.75609756 Z M37.0709913,2.78685048 C37.4392412,2.57476034 37.8592053,2.46871686 38.3308961,2.46871686 L38.3308961,4.54294804 C38.2564186,4.53446443 38.144704,4.53022269 37.995749,4.53022269 C37.4744065,4.53022269 37.0523737,4.655354 36.7296378,4.90562036 C36.406902,5.15588672 36.220711,5.49734672 36.1710593,5.9300106 L36.1710593,9.44220573 L33.9615712,9.44220573 L33.9615712,2.55779427 L36.1710593,2.55779427 L36.1710593,3.70307529 C36.4027671,3.30434583 36.7027415,2.99894062 37.0709913,2.78685048 Z M45.5706938,2.9204666 C46.0423846,3.21315099 46.4085602,3.62884142 46.6692314,4.16755037 C46.9299027,4.70625932 47.0602364,5.3276741 47.0602364,6.03181336 C47.0602364,6.72746901 46.9340403,7.33827945 46.6816443,7.86426299 C46.4292483,8.39024653 46.0692791,8.79745349 45.6017259,9.08589608 C45.1341727,9.37433866 44.5942189,9.51855779 43.9818483,9.51855779 C43.5598091,9.51855779 43.1770833,9.43584388 42.8336592,9.27041357 C42.4902352,9.10498327 42.198536,8.86532501 41.958553,8.5514316 L41.958553,11.9109226 L39.7490648,11.9109226 L39.7490648,2.55779427 L41.958553,2.55779427 L41.958553,3.4485684 C42.4467944,2.80381438 43.1046691,2.48144221 43.9321969,2.48144221 C44.5528428,2.48144221 45.0990029,2.62778221 45.5706938,2.9204666 Z M44.4349175,7.21527041 C44.7038641,6.90137701 44.8383353,6.48992831 44.8383353,5.98091198 C44.8383353,5.47189565 44.7038641,5.05832609 44.4349175,4.74019088 C44.165971,4.42205567 43.8163457,4.26299046 43.3860313,4.26299046 C42.9639921,4.26299046 42.6205732,4.42205567 42.3557643,4.74019088 C42.0909554,5.05832609 41.958553,5.47189565 41.958553,5.98091198 C41.958553,6.48992831 42.0909554,6.90137701 42.3557643,7.21527041 C42.6205732,7.52916382 42.9639921,7.68610817 43.3860313,7.68610817 C43.8163457,7.68610817 44.165971,7.52916382 44.4349175,7.21527041 Z M48.652185,0 L50.8616732,0 L50.8616732,9.44220573 L48.652185,9.44220573 L48.652185,0 Z M59.5537749,2.55779427 L59.5537749,9.44220573 L57.3442867,9.44220573 L57.3442867,8.3223754 C56.8891464,9.11983432 56.1733456,9.52704127 55.1968628,9.54400848 C54.4686383,9.54400848 53.8873088,9.30435022 53.4528567,8.82502651 C53.0184046,8.3457028 52.8011818,7.70732106 52.8011818,6.90986214 L52.8011818,2.55779427 L55.01067,2.55779427 L55.01067,6.26086957 C55.01067,6.65111542 55.107903,6.95652064 55.302372,7.17709438 C55.4968411,7.39766812 55.7595772,7.50795334 56.0905883,7.50795334 C56.4795264,7.49946973 56.7857071,7.35312973 57.0091396,7.06892895 C57.2325721,6.78472817 57.3442867,6.41357599 57.3442867,5.95546129 L57.3442867,2.55779427 L59.5537749,2.55779427 Z M72.3421187,3.18133616 C72.7807084,3.65641807 73,4.29692068 73,5.1028632 L73,9.44220573 L70.7905118,9.44220573 L70.7905118,5.75185578 C70.7905118,5.36160993 70.69121,5.05408384 70.4926033,4.82926829 C70.2939966,4.60445275 70.0250541,4.49204666 69.6857677,4.49204666 C69.2968297,4.50053027 68.9885802,4.64687027 68.76101,4.93107105 C68.5334399,5.21527183 68.4196565,5.58642401 68.4196565,6.04453871 L68.4196565,9.44220573 L66.2101683,9.44220573 L66.2101683,5.75185578 C66.2101683,5.36160993 66.1108665,5.05408384 65.9122598,4.82926829 C65.7136531,4.60445275 65.4447106,4.49204666 65.1054242,4.49204666 C64.7164862,4.50053027 64.4061679,4.64687027 64.1744601,4.93107105 C63.9427523,5.21527183 63.8269002,5.58642401 63.8269002,6.04453871 L63.8269002,9.44220573 L61.6298249,9.44220573 L61.6298249,2.55779427 L63.8269002,2.55779427 L63.8269002,3.69034995 C64.058608,3.29162049 64.3585823,2.98833614 64.7268322,2.7804878 C65.095082,2.57263947 65.5233213,2.46871686 66.0115627,2.46871686 C66.557731,2.46871686 67.0252772,2.60445251 67.4142153,2.87592789 C67.8031533,3.14740327 68.080371,3.52491805 68.2458766,4.00848356 C68.4610338,3.49946723 68.7692833,3.11558984 69.1706342,2.85683987 C69.5719852,2.5980899 70.0457378,2.46871686 70.5919061,2.46871686 C71.3201306,2.46871686 71.903529,2.70625425 72.3421187,3.18133616 Z" id="Sugarplum-Copy-8" fill="#892264"></path>
                        <path d="M2.55331245,14.4654255 C2.85242403,14.6267739 3.08717778,14.8492894 3.25758074,15.1329787 C3.4279837,15.4166681 3.51318391,15.7340408 3.51318391,16.0851064 C3.51318391,16.436172 3.42707732,16.7535447 3.25486156,17.037234 C3.0826458,17.3209234 2.84607928,17.5434389 2.5451549,17.7047872 C2.24423053,17.8661356 1.90705526,17.9468085 1.53361898,17.9468085 L0,17.9468085 L0,14.2234043 L1.54993408,14.2234043 C1.91974476,14.2234043 2.25420087,14.3040772 2.55331245,14.4654255 Z M2.28139419,17.3031915 C2.49711709,17.1826235 2.6675175,17.0159585 2.79260052,16.8031915 C2.91768354,16.5904245 2.98022412,16.3528382 2.98022412,16.0904255 C2.98022412,15.8244668 2.91677716,15.5851074 2.78988134,15.3723404 C2.66298552,15.1595734 2.48986595,14.9920219 2.27051746,14.8696809 C2.05116897,14.7473398 1.80735137,14.6861702 1.53905735,14.6861702 L0.522083057,14.6861702 L0.522083057,17.4840426 L1.56081081,17.4840426 C1.82547924,17.4840426 2.0656713,17.4237595 2.28139419,17.3031915 Z M6.59129861,15.5026596 C6.81971109,15.7597531 6.93391561,16.117019 6.93391561,16.5744681 C6.93391561,16.6453904 6.93210284,16.6985814 6.92847725,16.7340426 L4.6552406,16.7340426 C4.69512215,16.9858169 4.80298198,17.1861695 4.97882333,17.3351064 C5.15466468,17.4840433 5.37129073,17.5585106 5.62870797,17.5585106 C5.79911093,17.5585106 5.95772833,17.5283691 6.10456492,17.4680851 C6.25140152,17.4078011 6.37920182,17.3226956 6.48796967,17.212766 L6.76532629,17.4946809 C6.62392809,17.6436178 6.45352769,17.7588648 6.25411997,17.8404255 C6.05471224,17.9219862 5.83355427,17.962766 5.59063941,17.962766 C5.30784301,17.962766 5.05677433,17.9033694 4.83742584,17.7845745 C4.61807734,17.6657795 4.44767694,17.498228 4.32621951,17.2819149 C4.20476208,17.0656018 4.14403428,16.8191503 4.14403428,16.5425532 C4.14403428,16.2659561 4.20476208,16.0203911 4.32621951,15.8058511 C4.44767694,15.591311 4.61717096,15.422873 4.83470665,15.3005319 C5.05224235,15.1781909 5.30059187,15.1170213 5.57976268,15.1170213 C6.02571086,15.1170213 6.36288613,15.2455661 6.59129861,15.5026596 Z M6.47709294,16.3510638 C6.46259056,16.0957434 6.37557759,15.8945043 6.21605141,15.7473404 C6.05652523,15.6001766 5.84624388,15.5265957 5.58520105,15.5265957 C5.3314094,15.5265957 5.12022167,15.6010631 4.9516315,15.75 C4.78304134,15.8989369 4.68243259,16.0992895 4.64980224,16.3510638 L6.47709294,16.3510638 Z M7.2656559,15.1329787 L7.80405405,15.1329787 L8.66875411,17.4574468 L9.52801581,15.1329787 L10.0392221,15.1329787 L8.91891891,17.9468085 L8.39139749,17.9468085 L7.2656559,15.1329787 Z M12.8019117,15.5026596 C13.0303241,15.7597531 13.1445287,16.117019 13.1445287,16.5744681 C13.1445287,16.6453904 13.1427159,16.6985814 13.1390903,16.7340426 L10.8658537,16.7340426 C10.9057352,16.9858169 11.013595,17.1861695 11.1894364,17.3351064 C11.3652777,17.4840433 11.5819038,17.5585106 11.839321,17.5585106 C12.009724,17.5585106 12.1683414,17.5283691 12.315178,17.4680851 C12.4620146,17.4078011 12.5898149,17.3226956 12.6985827,17.212766 L12.9759393,17.4946809 C12.8345411,17.6436178 12.6641407,17.7588648 12.464733,17.8404255 C12.2653253,17.9219862 12.0441673,17.962766 11.8012525,17.962766 C11.5184561,17.962766 11.2673874,17.9033694 11.0480389,17.7845745 C10.8286904,17.6657795 10.65829,17.498228 10.5368326,17.2819149 C10.4153751,17.0656018 10.3546473,16.8191503 10.3546473,16.5425532 C10.3546473,16.2659561 10.4153751,16.0203911 10.5368326,15.8058511 C10.65829,15.591311 10.827784,15.422873 11.0453197,15.3005319 C11.2628554,15.1781909 11.5112049,15.1170213 11.7903757,15.1170213 C12.2363239,15.1170213 12.5734992,15.2455661 12.8019117,15.5026596 Z M12.687706,16.3510638 C12.6732036,16.0957434 12.5861906,15.8945043 12.4266645,15.7473404 C12.2671383,15.6001766 12.0568569,15.5265957 11.7958141,15.5265957 C11.5420225,15.5265957 11.3308347,15.6010631 11.1622446,15.75 C10.9936544,15.8989369 10.8930456,16.0992895 10.8604153,16.3510638 L12.687706,16.3510638 Z M14.0799275,14 L14.5856954,14 L14.5856954,17.9468085 L14.0799275,17.9468085 L14.0799275,14 Z M17.780735,15.2978723 C18.0037091,15.4184403 18.177735,15.5859918 18.3028181,15.8005319 C18.4279011,16.015072 18.4904417,16.2606369 18.4904417,16.537234 C18.4904417,16.8138312 18.4279011,17.0602826 18.3028181,17.2765957 C18.177735,17.4929089 18.0037091,17.6613469 17.780735,17.7819149 C17.5577609,17.9024829 17.3030667,17.962766 17.0166447,17.962766 C16.7265971,17.962766 16.4700901,17.9024829 16.247116,17.7819149 C16.0241419,17.6613469 15.850116,17.4937954 15.725033,17.2792553 C15.5999499,17.0647152 15.5374094,16.8173773 15.5374094,16.537234 C15.5374094,16.2606369 15.5999499,16.015072 15.725033,15.8005319 C15.850116,15.5859918 16.0241419,15.4184403 16.247116,15.2978723 C16.4700901,15.1773044 16.7265971,15.1170213 17.0166447,15.1170213 C17.3030667,15.1170213 17.5577609,15.1773044 17.780735,15.2978723 Z M16.5135959,15.6755319 C16.3667593,15.7606387 16.2525548,15.8785453 16.1709789,16.0292553 C16.089403,16.1799653 16.0486157,16.3510629 16.0486157,16.5425532 C16.0486157,16.7375896 16.089403,16.9113468 16.1709789,17.0638298 C16.2525548,17.2163128 16.3667593,17.3342194 16.5135959,17.4175532 C16.6604325,17.5008869 16.8281138,17.5425532 17.0166447,17.5425532 C17.20155,17.5425532 17.3674185,17.5008869 17.5142551,17.4175532 C17.6610917,17.3342194 17.7752962,17.2163128 17.8568721,17.0638298 C17.938448,16.9113468 17.9792353,16.7375896 17.9792353,16.5425532 C17.9792353,16.3510629 17.938448,16.1799653 17.8568721,16.0292553 C17.7752962,15.8785453 17.6610917,15.7606387 17.5142551,15.6755319 C17.3674185,15.5904251 17.20155,15.5478723 17.0166447,15.5478723 C16.8281138,15.5478723 16.6604325,15.5904251 16.5135959,15.6755319 Z M21.7317073,15.2978723 C21.9419918,15.4184403 22.1051411,15.5868784 22.2211602,15.8031915 C22.3371792,16.0195046 22.3951879,16.2677291 22.3951879,16.5478723 C22.3951879,16.8244695 22.3380856,17.0700344 22.2238794,17.2845745 C22.1096731,17.4991145 21.9483366,17.6657795 21.7398649,17.7845745 C21.5313931,17.9033694 21.2930139,17.962766 21.0247198,17.962766 C20.781805,17.962766 20.5678981,17.9131211 20.3829927,17.8138298 C20.1980874,17.7145385 20.0530658,17.572696 19.9479235,17.3882979 L19.9479235,18.9787234 L19.4421556,18.9787234 L19.4421556,15.1329787 L19.9479235,15.1329787 L19.9479235,15.6914894 C20.0530658,15.5070913 20.197181,15.3652487 20.3802736,15.2659574 C20.5633661,15.1666662 20.7745538,15.1170213 21.0138431,15.1170213 C21.2821371,15.1170213 21.5214228,15.1773044 21.7317073,15.2978723 Z M21.4135629,17.4042553 C21.5603995,17.3191485 21.6746041,17.2003554 21.75618,17.0478723 C21.8377558,16.8953893 21.8785432,16.7234052 21.8785432,16.5319149 C21.8785432,16.3439707 21.8368495,16.1737596 21.7534608,16.0212766 C21.6700721,15.8687936 21.5558676,15.7500004 21.4108438,15.6648936 C21.26582,15.5797868 21.1008579,15.537234 20.9159525,15.537234 C20.7310472,15.537234 20.5651787,15.5797868 20.4183421,15.6648936 C20.2715055,15.7500004 20.1563946,15.8687936 20.0730059,16.0212766 C19.9896172,16.1737596 19.9479235,16.3439707 19.9479235,16.5319149 C19.9479235,16.7269513 19.9896172,16.8998219 20.0730059,17.0505319 C20.1563946,17.2012419 20.2715055,17.3191485 20.4183421,17.4042553 C20.5651787,17.4893621 20.7310472,17.5319149 20.9159525,17.5319149 C21.1008579,17.5319149 21.2667264,17.4893621 21.4135629,17.4042553 Z M27.8117996,15.4095745 C28.0003305,15.6046109 28.0945946,15.8705657 28.0945946,16.2074468 L28.0945946,17.9468085 L27.5833883,17.9468085 L27.5833883,16.3404255 C27.5833883,16.1028357 27.5172221,15.9166673 27.3848879,15.7819149 C27.2525537,15.6471624 27.0703703,15.5797872 26.8383322,15.5797872 C26.5664126,15.5868795 26.3525057,15.6808502 26.1966051,15.8617021 C26.0407045,16.0425541 25.9627554,16.2748213 25.9627554,16.5585106 L25.9627554,17.9468085 L25.4515491,17.9468085 L25.4515491,16.3404255 C25.4515491,16.1028357 25.3862894,15.9166673 25.255768,15.7819149 C25.1252465,15.6471624 24.9421567,15.5797872 24.7064931,15.5797872 C24.4345735,15.5868795 24.2197602,15.6808502 24.0620468,15.8617021 C23.9043334,16.0425541 23.8254779,16.2748213 23.8254779,16.5585106 L23.8254779,17.9468085 L23.31971,17.9468085 L23.31971,15.1329787 L23.8254779,15.1329787 L23.8254779,15.7234043 C24.0140088,15.3262391 24.3711246,15.1241135 24.8968359,15.1170213 C25.1615043,15.1170213 25.3817559,15.1790774 25.5575972,15.3031915 C25.7334386,15.4273056 25.852175,15.6010627 25.9138101,15.8244681 C26.0914643,15.3599268 26.464895,15.1241135 27.0341134,15.1170213 C27.3640425,15.1170213 27.6232687,15.214538 27.8117996,15.4095745 Z M31.3793672,15.5026596 C31.6077796,15.7597531 31.7219842,16.117019 31.7219842,16.5744681 C31.7219842,16.6453904 31.7201714,16.6985814 31.7165458,16.7340426 L29.4433092,16.7340426 C29.4831907,16.9858169 29.5910505,17.1861695 29.7668919,17.3351064 C29.9427332,17.4840433 30.1593593,17.5585106 30.4167765,17.5585106 C30.5871795,17.5585106 30.7457969,17.5283691 30.8926335,17.4680851 C31.0394701,17.4078011 31.1672704,17.3226956 31.2760382,17.212766 L31.5533948,17.4946809 C31.4119966,17.6436178 31.2415962,17.7588648 31.0421885,17.8404255 C30.8427808,17.9219862 30.6216228,17.962766 30.378708,17.962766 C30.0959116,17.962766 29.8448429,17.9033694 29.6254944,17.7845745 C29.4061459,17.6657795 29.2357455,17.498228 29.1142881,17.2819149 C28.9928306,17.0656018 28.9321028,16.8191503 28.9321028,16.5425532 C28.9321028,16.2659561 28.9928306,16.0203911 29.1142881,15.8058511 C29.2357455,15.591311 29.4052395,15.422873 29.6227752,15.3005319 C29.8403109,15.1781909 30.0886604,15.1170213 30.3678312,15.1170213 C30.8137794,15.1170213 31.1509547,15.2455661 31.3793672,15.5026596 Z M31.2651615,16.3510638 C31.2506591,16.0957434 31.1636461,15.8945043 31.00412,15.7473404 C30.8445938,15.6001766 30.6343124,15.5265957 30.3732696,15.5265957 C30.119478,15.5265957 29.9082902,15.6010631 29.7397001,15.75 C29.5711099,15.8989369 29.4705011,16.0992895 29.4378708,16.3510638 L31.2651615,16.3510638 Z M35.0230718,15.4069149 C35.2152284,15.6001783 35.3113052,15.8670196 35.3113052,16.2074468 L35.3113052,17.9468085 L34.8055372,17.9468085 L34.8055372,16.3404255 C34.8055372,16.1028357 34.7375583,15.9175539 34.6015985,15.7845745 C34.4656387,15.6515951 34.278017,15.5851064 34.0387277,15.5851064 C33.7813105,15.5886525 33.5719355,15.6693255 33.4105966,15.8271277 C33.2492576,15.9849299 33.1577127,16.1897151 33.1359591,16.4414894 L33.1359591,17.9468085 L32.6301912,17.9468085 L32.6301912,15.1329787 L33.1359591,15.1329787 L33.1359591,15.7287234 C33.3281156,15.3280122 33.6924825,15.1241135 34.2290705,15.1170213 C34.5662508,15.1170213 34.8309153,15.2136515 35.0230718,15.4069149 Z M37.9761041,17.7606383 C37.7549428,17.8989369 37.5301593,17.9680851 37.3017469,17.9680851 C37.0733344,17.9680851 36.8884318,17.9015964 36.7470336,17.768617 C36.6056354,17.6356376 36.5349374,17.4343985 36.5349374,17.1648936 L36.5349374,15.606383 L36.12706,15.606383 L36.12706,15.2287234 L36.5349374,15.2287234 L36.5349374,14.4734043 L37.0461437,14.4734043 L37.0461437,15.2287234 L37.9271588,15.2287234 L37.9271588,15.606383 L37.0461437,15.606383 L37.0461437,17.0744681 C37.0461437,17.2304972 37.075148,17.3421982 37.1331575,17.4095745 C37.1911671,17.4769507 37.27818,17.5106383 37.3941991,17.5106383 C37.5319717,17.5106383 37.6806188,17.4663125 37.840145,17.3776596 L37.9761041,17.7606383 Z M39.9855801,15.5851064 C39.8423691,15.542553 39.7055049,15.5212766 39.5749835,15.5212766 C39.4227085,15.5212766 39.3003465,15.5487586 39.2078939,15.6037234 C39.1154412,15.6586882 39.0692155,15.7429072 39.0692155,15.856383 C39.0692155,15.9698587 39.1208795,16.0558508 39.224209,16.1143617 C39.3275384,16.1728726 39.484343,16.2322692 39.6946275,16.2925532 C39.8940353,16.3492911 40.0571846,16.4060281 40.1840804,16.462766 C40.3109762,16.5195038 40.4188361,16.6028363 40.5076631,16.712766 C40.5964902,16.8226956 40.6409031,16.9680842 40.6409031,17.1489362 C40.6409031,17.4148949 40.5384816,17.6170206 40.3336354,17.7553191 C40.1287893,17.8936177 39.8740951,17.962766 39.5695451,17.962766 C39.355635,17.962766 39.1480728,17.9290784 38.9468523,17.8617021 C38.7456318,17.7943259 38.5761378,17.6985822 38.4383652,17.5744681 L38.628708,17.212766 C38.7483526,17.3191495 38.8960934,17.404255 39.0719347,17.4680851 C39.2477761,17.5319152 39.4190829,17.5638298 39.5858602,17.5638298 C39.7526376,17.5638298 39.8867826,17.5336882 39.9882993,17.4734043 C40.0898159,17.4131203 40.1405735,17.3209226 40.1405735,17.1968085 C40.1405735,17.0691483 40.0870968,16.9734046 39.9801417,16.9095745 C39.8731867,16.8457444 39.7109437,16.7819152 39.493408,16.7180851 C39.3012515,16.6648934 39.1444469,16.6108159 39.0229894,16.5558511 C38.901532,16.5008863 38.7982041,16.4202133 38.7130026,16.3138298 C38.6278011,16.2074463 38.585201,16.0691498 38.585201,15.8989362 C38.585201,15.6365235 38.6830906,15.439717 38.8788728,15.3085106 C39.0746549,15.1773043 39.3193789,15.1117021 39.6130521,15.1117021 C39.7870806,15.1117021 39.9583874,15.1356381 40.1269776,15.1835106 C40.2955677,15.2313832 40.4414957,15.2960989 40.564766,15.3776596 L40.3798616,15.7553191 C40.2602169,15.6843968 40.1287911,15.6276598 39.9855801,15.5851064 Z M45.7883157,14.5531915 C46.0475458,14.7730507 46.1771589,15.0815583 46.1771589,15.4787234 C46.1771589,15.8936191 46.0466394,16.2154244 45.7855966,16.4441489 C45.5245537,16.6728735 45.1583741,16.787234 44.6870468,16.787234 L43.7407713,16.787234 L43.7407713,17.9468085 L43.2186882,17.9468085 L43.2186882,14.2234043 L44.6870468,14.2234043 C45.1619997,14.2234043 45.5290857,14.3333322 45.7883157,14.5531915 Z M45.4157877,16.1143617 C45.5898163,15.9742901 45.6768293,15.7677319 45.6768293,15.4946809 C45.6768293,15.2287221 45.5898163,15.027483 45.4157877,14.8909574 C45.2417592,14.7544319 44.9915969,14.6861702 44.6652933,14.6861702 L43.7407713,14.6914894 L43.7407713,16.3244681 L44.6652933,16.3244681 C44.9915969,16.3244681 45.2417592,16.2544333 45.4157877,16.1143617 Z M48.5809163,17.7606383 C48.359755,17.8989369 48.1349715,17.9680851 47.906559,17.9680851 C47.6781465,17.9680851 47.4932439,17.9015964 47.3518457,17.768617 C47.2104475,17.6356376 47.1397495,17.4343985 47.1397495,17.1648936 L47.1397495,15.606383 L46.7318721,15.606383 L46.7318721,15.2287234 L47.1397495,15.2287234 L47.1397495,14.4734043 L47.6509558,14.4734043 L47.6509558,15.2287234 L48.531971,15.2287234 L48.531971,15.606383 L47.6509558,15.606383 L47.6509558,17.0744681 C47.6509558,17.2304972 47.6799601,17.3421982 47.7379697,17.4095745 C47.7959792,17.4769507 47.8829922,17.5106383 47.9990112,17.5106383 C48.1367838,17.5106383 48.285431,17.4663125 48.4449571,17.3776596 L48.5809163,17.7606383 Z M50.0574324,18.8351064 C49.9069702,18.945036 49.7302251,19 49.5271918,19 C49.4039216,19 49.2915298,18.9822697 49.1900132,18.9468085 C49.0884965,18.9113473 48.9906069,18.8563834 48.8963415,18.7819149 L49.1138761,18.393617 C49.2407719,18.4822699 49.3694786,18.5265957 49.5,18.5265957 C49.7175357,18.5265957 49.880685,18.4060296 49.9894529,18.1648936 L50.0982202,17.9148936 L48.9072182,15.1329787 L49.440178,15.1329787 L50.3538233,17.3882979 L51.2185234,15.1329787 L51.7351681,15.1329787 L50.4190837,18.3457447 C50.3284438,18.5620578 50.2078946,18.7251768 50.0574324,18.8351064 Z M54.6419743,15.0531915 C54.5313936,15.4503566 54.4761042,15.8670191 54.4761042,16.3031915 C54.4761042,16.7393639 54.5313936,17.1560264 54.6419743,17.5531915 C54.7525549,17.9503566 54.9093596,18.3014169 55.1123929,18.606383 L54.6446935,18.606383 C54.434409,18.304963 54.2730724,17.9565623 54.160679,17.5611702 C54.0482855,17.1657782 53.9920896,16.7464561 53.9920896,16.3031915 C53.9920896,15.8599269 54.0482855,15.4406048 54.160679,15.0452128 C54.2730724,14.6498207 54.434409,14.3014199 54.6446935,14 L55.1123929,14 C54.9093596,14.3049661 54.7525549,14.6560264 54.6419743,15.0531915 Z M55.9879697,14.2234043 L56.5100527,14.2234043 L56.5100527,17.4840426 L58.1741925,17.4840426 L58.1741925,17.9468085 L55.9879697,17.9468085 L55.9879697,14.2234043 Z M60.5507581,17.7606383 C60.3295968,17.8989369 60.1048133,17.9680851 59.8764008,17.9680851 C59.6479883,17.9680851 59.4630857,17.9015964 59.3216875,17.768617 C59.1802893,17.6356376 59.1095913,17.4343985 59.1095913,17.1648936 L59.1095913,15.606383 L58.7017139,15.606383 L58.7017139,15.2287234 L59.1095913,15.2287234 L59.1095913,14.4734043 L59.6207976,14.4734043 L59.6207976,15.2287234 L60.5018128,15.2287234 L60.5018128,15.606383 L59.6207976,15.606383 L59.6207976,17.0744681 C59.6207976,17.2304972 59.649802,17.3421982 59.7078115,17.4095745 C59.765821,17.4769507 59.852834,17.5106383 59.968853,17.5106383 C60.1066256,17.5106383 60.2552728,17.4663125 60.4147989,17.3776596 L60.5507581,17.7606383 Z M64.0258734,14 L64.0258734,17.9468085 L63.5201055,17.9468085 L63.5201055,17.3882979 C63.4113376,17.5762421 63.2654096,17.7207442 63.0823171,17.8218085 C62.8992245,17.9228728 62.686224,17.9734043 62.4433092,17.9734043 C62.1713895,17.9734043 61.9311975,17.9122347 61.7227258,17.7898936 C61.5142541,17.6675526 61.3520111,17.4973415 61.2359921,17.2792553 C61.1199731,17.0611691 61.0619644,16.8120581 61.0619644,16.5319149 C61.0619644,16.2553178 61.1199731,16.0097528 61.2359921,15.7952128 C61.3520111,15.5806727 61.5142541,15.4131212 61.7227258,15.2925532 C61.9311975,15.1719852 62.1695768,15.1117021 62.4378708,15.1117021 C62.6844113,15.1117021 62.9001309,15.161347 63.0850363,15.2606383 C63.2699416,15.3599296 63.4149632,15.5035452 63.5201055,15.6914894 L63.5201055,14 L64.0258734,14 Z M63.0496869,17.4202128 C63.1965235,17.335106 63.3116344,17.2163128 63.3950231,17.0638298 C63.4784118,16.9113468 63.5201055,16.7393627 63.5201055,16.5478723 C63.5201055,16.3528359 63.4784118,16.1790788 63.3950231,16.0265957 C63.3116344,15.8741127 63.1965235,15.7553196 63.0496869,15.6702128 C62.9028503,15.585106 62.735169,15.5425532 62.5466381,15.5425532 C62.3581072,15.5425532 62.1904259,15.5859925 62.0435893,15.6728723 C61.8967527,15.7597522 61.7816418,15.8794319 61.6982531,16.0319149 C61.6148645,16.1843979 61.5731707,16.356382 61.5731707,16.5478723 C61.5731707,16.7393627 61.6148645,16.9113468 61.6982531,17.0638298 C61.7816418,17.2163128 61.8967527,17.335106 62.0435893,17.4202128 C62.1904259,17.5053196 62.3581072,17.5478723 62.5466381,17.5478723 C62.735169,17.5478723 62.9028503,17.5053196 63.0496869,17.4202128 Z M65.3473962,14 C65.5576807,14.3014199 65.7190172,14.6498207 65.8314107,15.0452128 C65.9438041,15.4406048 66,15.8599269 66,16.3031915 C66,16.7464561 65.9438041,17.1657782 65.8314107,17.5611702 C65.7190172,17.9565623 65.5576807,18.304963 65.3473962,18.606383 L64.8796968,18.606383 C65.0827301,18.3014169 65.2395347,17.9503566 65.3501154,17.5531915 C65.460696,17.1560264 65.5159855,16.7393639 65.5159855,16.3031915 C65.5159855,15.8670191 65.460696,15.4503566 65.3501154,15.0531915 C65.2395347,14.6560264 65.0827301,14.3049661 64.8796968,14 L65.3473962,14 Z" id="Developments-Pty-(Lt-Copy-8" fill="#000000"></path>
                    </g>
                </g>
                <g id="Page-1-Copy-28">
                    <path d="M15.9998697,29 C8.26787891,29 2,22.7318605 2,15.0001303 C2,7.26787891 8.26787891,1 15.9998697,1 C23.7318605,1 30,7.26787891 30,15.0001303 C30,22.7318605 23.7318605,29 15.9998697,29 M15.9997373,0 C7.16317552,0 0,7.16343818 0,16.0002627 C0,24.8365618 7.16317552,32.0002627 15.9997373,32 C24.8362992,31.9997373 32,24.8365618 32,16.0002627 C32,7.16343818 24.8362992,0 15.9997373,0" id="Fill-1" fill="#000000"></path>
                    <path d="M24.130481,14.3936007 C24.130481,14.3936007 17.7563808,15.7484008 16.8563807,18.8234009 C16.8563807,18.8234009 15.7304807,23.1686011 18.6554808,29.4686013 C18.6554808,29.4686013 15.5054807,31.9436014 14.3804807,29.4686013 C14.3804807,29.4686013 16.1054807,23.7686011 14.9804807,19.7936009 C14.9804807,19.7936009 13.8554806,16.4936008 8.0804804,15.9686008 C8.0804804,15.9686008 11.3054805,14.9186008 14.4554807,17.5811009 C14.4554807,17.5811009 15.4433807,18.5561009 15.7181807,17.0936008 C15.7181807,17.0936008 15.9929807,13.8686007 15.2054807,12.7061007 C15.2054807,12.7061007 14.1179806,10.5686006 11.4179805,10.7186006 C11.4179805,10.7186006 14.1806806,9.73100055 15.5054807,12.1436006 C15.5054807,12.1436006 15.9305807,12.9560007 15.8555807,12.1310006 C15.8555807,12.1310006 15.8243807,8.97500052 15.9743807,8.33750049 C15.9743807,8.33750049 16.3679807,9.90920055 16.3868807,11.9936006 C16.3868807,11.9936006 16.5179807,12.5186007 16.8554807,11.5811006 C16.8554807,11.5811006 17.8679808,9.42500053 20.1740809,9.35000053 C20.1740809,9.35000053 16.9868808,10.7936006 16.8179807,13.2686007 C16.8179807,13.2686007 16.5929807,15.8186008 16.8929808,16.5872008 C16.8929808,16.5872008 17.1368808,17.0000008 17.5868808,16.5122008 C17.5868808,16.5122008 20.6804809,13.7936007 24.130481,14.3936007" id="Fill-3" fill="#000000"></path>
                    <path d="M20.5243309,11.5185506 C20.5243309,11.5185506 19.3867308,13.0809507 20.8744309,14.2749507 C20.8744309,14.2749507 22.243031,13.1061507 20.5243309,11.5185506" id="Fill-5" fill="#5B9153"></path>
                    <path d="M21.6540109,15.7551808 C21.6540109,15.7551808 22.092011,17.2623808 23.598911,16.9005808 C23.598911,16.9005808 23.528711,15.4407808 21.6540109,15.7551808" id="Fill-7" fill="#5B9153"></path>
                    <path d="M19.8342409,16.5753208 C19.8342409,16.5753208 19.8243409,18.3366209 21.5598409,18.4287209 C21.5598409,18.4287209 21.950441,16.8357208 19.8342409,16.5753208" id="Fill-9" fill="#5B9153"></path>
                    <path d="M17.7434508,12.8663607 C17.7434508,12.8663607 17.2487508,14.6255607 18.9587508,15.1919608 C18.9587508,15.1919608 19.7876509,13.7048607 17.7434508,12.8663607" id="Fill-11" fill="#5B9153"></path>
                    <path d="M21.6204709,10.6982306 C21.6204709,10.6982306 21.0444709,9.46013053 19.8021709,9.97223056 C19.8021709,9.97223056 20.0568709,11.2187306 21.6204709,10.6982306" id="Fill-13" fill="#5B9153"></path>
                    <path d="M11.8919806,11.2340606 C11.8919806,11.2340606 10.6724805,10.6196606 10.0154805,11.7917606 C10.0154805,11.7917606 10.9880805,12.6119607 11.8919806,11.2340606" id="Fill-15" fill="#5B9153"></path>
                    <path d="M7.42627037,16.3957408 C7.42627037,16.3957408 6.33517033,15.5749408 5.4795703,16.6123408 C5.4795703,16.6123408 6.29077033,17.5921409 7.42627037,16.3957408" id="Fill-17" fill="#5B9153"></path>
                    <path d="M14.1931306,6.66641042 C14.1931306,6.66641042 13.6984306,8.42561049 15.4084307,8.99201052 C15.4084307,8.99201052 16.2373307,7.50491046 14.1931306,6.66641042" id="Fill-19" fill="#5B9153"></path>
                    <path d="M17.7592908,7.82918047 C17.7592908,7.82918047 16.3843907,8.27648049 16.7623907,9.65078054 C16.7623907,9.65078054 18.1051908,9.54338054 17.7592908,7.82918047" id="Fill-21" fill="#5B9153"></path>
                    <path d="M11.5831905,12.4491507 C11.5831905,12.4491507 10.2994905,14.0553507 11.8234905,15.3921508 C11.8234905,15.3921508 13.3342906,14.2143507 11.5831905,12.4491507" id="Fill-23" fill="#5B9153"></path>
                    <path d="M8.70391043,12.2137706 C8.70391043,12.2137706 8.0445104,14.1967707 9.96751048,14.9350708 C9.96751048,14.9350708 10.9941105,13.2811707 8.70391043,12.2137706" id="Fill-25" fill="#5B9153"></path>
                    <path d="M10.9766205,8.41001049 C10.9766205,8.41001049 11.0390205,10.1479106 12.7526206,10.1650106 C12.7526206,10.1650106 13.0718206,8.5768105 10.9766205,8.41001049" id="Fill-27" fill="#5B9153"></path>
                    <path d="M9.39562045,19.5350609 C9.39562045,19.5350609 11.6078205,19.6316609 11.8007205,17.4572609 C11.8007205,17.4572609 9.81712047,16.8911608 9.39562045,19.5350609" id="Fill-29" fill="#5B9153"></path>
                    <path d="M12.1690006,21.466581 C12.1690006,21.466581 14.1394006,20.456181 13.2313006,18.4710809 C13.2313006,18.4710809 11.2273005,18.9603809 12.1690006,21.466581" id="Fill-31" fill="#5B9153"></path>
                    <path d="M5.5607803,13.4099607 C5.5607803,13.4099607 6.14038032,15.7721608 8.49478042,15.3086608 C8.49478042,15.3086608 8.48128042,13.0430607 5.5607803,13.4099607" id="Fill-33" fill="#5B9153"></path>
                    <path d="M16.7377007,4.49141034 C16.7377007,4.49141034 15.1492007,5.84951039 16.4140007,7.47701046 C16.4140007,7.47701046 18.1468008,6.59081042 16.7377007,4.49141034" id="Fill-35" fill="#5B9153"></path>
                    <path d="M15.2360807,14.2459407 C15.2360807,14.2459407 13.4669806,14.3821407 13.5230806,16.1281408 C13.5230806,16.1281408 15.1553807,16.3873408 15.2360807,14.2459407" id="Fill-37" fill="#5B9153"></path>
                    <path d="M23.994251,11.8812506 C23.994251,11.8812506 22.283951,12.1503506 22.469651,13.8498507 C22.469651,13.8498507 24.077051,13.9764507 23.994251,11.8812506" id="Fill-39" fill="#5B9153"></path>
                    <path d="M27.1351612,13.4574207 C27.1351612,13.4574207 25.5973611,12.6621207 24.7414611,14.1420207 C24.7414611,14.1420207 25.9618611,15.1956208 27.1351612,13.4574207" id="Fill-41" fill="#5B9153"></path>
                    <path d="M9.36763045,17.8251509 C9.08293044,18.2289509 8.56333042,18.3525509 8.20693041,18.1011509 C7.85083039,17.8500509 7.79263039,17.3190508 8.0773304,16.9152508 C8.36203041,16.5114508 8.88163043,16.3878508 9.23773045,16.6392508 C9.59413046,16.8903508 9.65233046,17.4213509 9.36763045,17.8251509" id="Fill-43" fill="#892264"></path>
                    <path d="M14.8748507,9.08633052 C15.1640507,9.38333053 15.1859507,9.83063055 14.9237507,10.0853306 C14.6618507,10.3400306 14.2148506,10.3061306 13.9259506,10.0094306 C13.6367506,9.71243054 13.6148506,9.26513053 13.8770506,9.01043052 C14.1389506,8.75573051 14.5859507,8.78963051 14.8748507,9.08633052" id="Fill-45" fill="#892264"></path>
                    <path d="M19.5878509,8.7013705 C19.3595508,9.04727052 18.9275508,9.16397052 18.6224508,8.96267052 C18.3176508,8.76107051 18.2552508,8.31737049 18.4829508,7.97207048 C18.7112508,7.62647046 19.1435508,7.50947046 19.4483509,7.71107047 C19.7531509,7.91237047 19.8158509,8.35577049 19.5878509,8.7013705" id="Fill-47" fill="#892264"></path>
                    <path d="M19.1466408,18.8582909 C18.8829408,19.1783909 18.4404408,19.2485909 18.1590408,19.0154909 C17.8773408,18.7829909 17.8623408,18.3347909 18.1260408,18.0152909 C18.3897408,17.6954909 18.8319408,17.6249909 19.1136408,17.8580909 C19.3953409,18.0908909 19.4103409,18.5387909 19.1466408,18.8582909" id="Fill-49" fill="#892264"></path>
                    <path d="M25.2301311,14.9312008 C25.5811311,15.2789008 25.6171311,15.8117008 25.3105311,16.1216008 C25.0033311,16.4312008 24.4702311,16.4006008 24.119231,16.0532008 C23.767931,15.7055008 23.732231,15.1727008 24.039131,14.8628007 C24.345731,14.5532007 24.8788311,14.5835007 25.2301311,14.9312008" id="Fill-51" fill="#892264"></path>
                    <path d="M19.4359309,11.1075206 C19.7869309,11.4552206 19.8229309,11.9880206 19.5163309,12.2979206 C19.2091308,12.6075207 18.6760308,12.5769207 18.3250308,12.2295206 C17.9737308,11.8818206 17.9380308,11.3490206 18.2449308,11.0391206 C18.5515308,10.7295206 19.0846308,10.7598206 19.4359309,11.1075206" id="Fill-53" fill="#892264"></path>
                    <path d="M14.4002507,13.6147407 C14.1386506,14.0338407 13.6271506,14.1865407 13.2569506,13.9558407 C12.8873506,13.7248407 12.7994506,13.1980407 13.0607506,12.7789407 C13.3220506,12.3595407 13.8338506,12.2071406 14.2037506,12.4378407 C14.5736507,12.6685407 14.6615507,13.1953407 14.4002507,13.6147407" id="Fill-55" fill="#892264"></path>
                </g>
            </g>
        </g>
    </g>
</svg>