<?xml version="1.0" encoding="UTF-8" standalone="no"?>
<svg width="170px" height="40px" viewBox="0 0 170 40" version="1.1" xmlns="http://www.w3.org/2000/svg" xmlns:xlink="http://www.w3.org/1999/xlink" style="background: #FFFFFF;">
    <!-- Generator: Sketch 47.1 (45422) - http://www.bohemiancoding.com/sketch -->
    <title>G&amp;A_ARP-Property_logo</title>
    <desc>Created with Sketch.</desc>
    <defs>
        <linearGradient x1="11.037906%" y1="3.65786615%" x2="88.9862253%" y2="82.9519986%" id="linearGradient-1">
            <stop stop-color="#0E3E70" offset="0%"></stop>
            <stop stop-color="#0D3A6A" offset="100%"></stop>
        </linearGradient>
        <ellipse id="path-2" cx="43.0869981" cy="18.4936264" rx="43.0869981" ry="18.4936264"></ellipse>
        <linearGradient x1="14.8431147%" y1="16.516184%" x2="100%" y2="100%" id="linearGradient-4">
            <stop stop-color="#4C9F17" offset="0%"></stop>
            <stop stop-color="#209512" offset="100%"></stop>
        </linearGradient>
    </defs>
    <g id="Page-1" stroke="none" stroke-width="1" fill="none" fill-rule="evenodd">
        <g id="G&amp;A_ARP-Property_logo">
            <g id="ARP-property" transform="translate(1.000000, 2.000000)">
                <g id="Group-2">
                    <g id="Group-Copy-4">
                        <mask id="mask-3" fill="white">
                            <use xlink:href="#path-2"></use>
                        </mask>
                        <use id="Mask" fill="url(#linearGradient-1)" xlink:href="#path-2"></use>
                        <path d="M43.0869981,34.9872529 C65.9157353,34.9872529 84.4220833,27.6028048 84.4220833,18.4936264 C84.4220833,9.38444808 65.9157353,2 43.0869981,2 C20.2582609,2 1.75191285,9.38444808 1.75191285,18.4936264 C1.75191285,27.6028048 20.2582609,34.9872529 43.0869981,34.9872529 Z M43.0869981,35.4872529 C20.0046536,35.4872529 1.25191285,28.0044885 1.25191285,18.4936264 C1.25191285,8.98276432 20.0046536,1.5 43.0869981,1.5 C66.1693425,1.5 84.9220833,8.98276432 84.9220833,18.4936264 C84.9220833,28.0044885 66.1693425,35.4872529 43.0869981,35.4872529 Z" id="Mask-Copy-3" fill="#4CA017" fill-rule="nonzero" mask="url(#mask-3)"></path>
                        <path d="M21.977433,13.2128705 C22.0459198,13.0396975 22.2449983,12.9610757 22.4115402,13.041429 L54.186163,28.3720852 C54.4930878,28.5201706 54.3886918,28.985945 54.0485759,28.985945 L16.2109498,28.985945 C15.985084,28.985945 15.8306113,28.7554664 15.9144297,28.5435267 L21.977433,13.2128705 Z" id="Path-2-Copy" fill="#FFFFFF" mask="url(#mask-3)"></path>
                        <polygon id="Path-2-Copy" fill="#FFFFFF" mask="url(#mask-3)" points="16.6824384 28.3405962 52.6386907 28.3405962 22.4439752 13.7722155"></polygon>
                        <polygon id="Path-Copy" fill="#1C6EA3" mask="url(#mask-3)" points="16.6824384 28.3405962 52.6386907 28.3405962 22.4439752 13.7722155"></polygon>
                        <path d="M29.1636389,8.72603741 L29.1636389,17.9025366 L37.8737173,17.9025366 C41.6472543,16.1347925 43.8170993,14.3759423 43.8170993,12.7688109 C43.8170993,10.708839 38.5448066,9.35408276 29.9391907,8.7756743 C29.6814432,8.75835035 29.4228713,8.74181138 29.1636389,8.72603741 Z M29.1636389,8.07952426 C29.437051,8.09607848 29.7097596,8.11347874 29.9815761,8.13174832 C39.0960071,8.74435571 44.4557426,10.1215811 44.4557426,12.7688109 C44.4557426,14.5117124 42.6212721,16.2176097 39.3503273,17.9025366 L82.7871506,17.9025366 C82.9635071,17.9025366 83.1064723,18.0491337 83.1064723,18.2299703 C83.1064723,18.4108069 82.9635071,18.5574039 82.7871506,18.5574039 L38.0053593,18.5574039 C36.7625057,19.1314135 35.3579397,19.7032173 33.8075429,20.273455 C32.3134708,20.8229764 30.7505145,21.3440855 29.1636389,21.8319286 L29.1636389,22.6974642 C32.8264826,22.6957713 36.9777032,22.8100674 41.4702858,23.0893191 C50.7066616,23.6634372 59.7874793,24.8520155 68.2915352,26.7962405 C71.65045,27.5641666 74.8764848,28.4419593 77.9529795,29.4352804 C78.120969,29.4895199 78.2136386,29.6711021 78.1599626,29.8408555 C78.1062867,30.0106089 77.9265913,30.1042514 77.7586017,30.0500119 C74.7003191,29.0625711 71.4920535,28.1896132 68.1506055,27.4256805 C59.6831354,25.4898199 50.6354678,24.3055805 41.4310754,23.7334504 C36.952148,23.4550476 32.8138722,23.3411257 29.1636389,23.342816 L29.1636389,32.8019922 L29.1636389,32.8019922 C29.1636389,32.9892786 29.0118132,33.1411043 28.8245268,33.1411043 L28.8245268,33.1411043 C28.6372404,33.1411043 28.4854147,32.9892786 28.4854147,32.8019922 L28.4854147,23.3444738 C27.1992401,23.3501872 25.9769361,23.3703587 24.8252877,23.4027386 C24.3851651,23.4151131 24.0000867,23.4283664 23.672722,23.4416124 C23.5583077,23.4462419 23.4593221,23.4505373 23.2765931,23.4591775 C22.8882183,23.4793131 22.8082989,22.9133447 23.245425,22.8087298 C23.2943741,22.7968298 23.3522395,22.7826359 23.4187022,22.7661835 C23.6088993,22.7191013 23.8296636,22.6634061 24.0784438,22.5993798 C24.7897263,22.4163234 25.5824961,22.2033154 26.4363297,21.9626169 C27.120581,21.7697242 27.8048154,21.5702414 28.4854147,21.3645747 L28.4854147,18.5574039 L3.41451499,18.5574039 C3.2381585,18.5574039 3.09519333,18.4108069 3.09519333,18.2299703 C3.09519333,18.0491337 3.2381585,17.9025366 3.41451499,17.9025366 L28.4854147,17.9025366 L28.4854147,8.6865782 C24.5136155,8.46594158 20.4212369,8.41942371 16.7912614,8.47601232 C16.5115881,8.48037222 16.2643111,8.48504226 16.0519802,8.48971043 C15.9777418,8.49134258 15.9131953,8.49285727 15.7930831,8.49590962 C15.6167926,8.50078573 15.4699692,8.36032642 15.4651437,8.18218499 C15.4603183,8.00404355 15.5993181,7.85567851 15.8429242,7.84906255 C15.8980702,7.84768915 15.963231,7.84616005 16.0380886,7.84451428 C16.251746,7.83981695 16.5003685,7.8351215 16.7814101,7.83074027 C20.4146544,7.7741007 24.5075644,7.82032592 28.4854147,8.04025603 L28.4854147,4.19800779 L28.4854147,4.19800779 C28.4854147,4.01072136 28.6372404,3.85889571 28.8245268,3.85889571 C29.0118132,3.85889571 29.1636389,4.01072136 29.1636389,4.19800779 L29.1636389,8.07952426 Z M28.4854147,22.0379928 C27.8613793,22.2253815 27.2346536,22.4075578 26.6079419,22.5842299 C26.4349253,22.6330039 26.2643957,22.6806489 26.0965197,22.7271467 C26.8656774,22.7122969 27.6625602,22.7027589 28.4854147,22.6991165 L28.4854147,22.0379928 Z M29.1636389,21.1571803 C30.6763075,20.6890861 32.1648715,20.1908635 33.5891091,19.6670272 C34.5913142,19.2984151 35.5312934,18.9281016 36.4038261,18.5574039 L29.1636389,18.5574039 L29.1636389,21.1571803 Z" id="Combined-Shape" fill="#FFFFFF" fill-rule="nonzero" mask="url(#mask-3)"></path>
                    </g>
                </g>
                <path d="M122.685355,21.7440409 L111.935872,21.7440409 L110.478314,24.3547074 L106.735043,24.3547074 L113.675002,12.1826826 C113.774382,11.9942259 113.87652,11.8307145 113.981421,11.6921433 C114.086321,11.5535722 114.210543,11.4371743 114.354091,11.3429459 C114.497639,11.2487176 114.66879,11.1766617 114.867549,11.1267761 C115.066308,11.0768905 115.314753,11.0519481 115.612891,11.0519481 L118.958647,11.0519481 C119.875146,11.0519481 120.548707,11.423313 120.979351,12.1660542 L127.902747,24.3547074 L124.176039,24.3547074 L122.685355,21.7440409 Z M113.509371,18.8174338 L121.095293,18.8174338 L118.793015,14.7600922 C118.671552,14.5383785 118.536287,14.3804098 118.387218,14.2861814 C118.238149,14.1919531 118.086322,14.1448396 117.931732,14.1448396 L116.656369,14.1448396 C116.30302,14.1448396 116.010407,14.3554645 115.778522,14.7767207 L113.509371,18.8174338 Z M128.730905,11.0519481 L144.681218,11.0519481 C147.231955,11.0519481 148.507305,12.1327864 148.507305,14.2944957 L148.507305,15.491744 C148.507305,17.7421387 147.231955,18.8673192 144.681218,18.8673192 L143.571487,18.8673192 L149.053889,24.3547074 L144.581839,24.3547074 L139.430699,19.0336037 L131.960719,19.0336037 L131.960719,24.3547074 L128.730905,24.3547074 L128.730905,11.0519481 Z M131.960719,14.1448396 L131.960719,16.2566527 L144.780597,16.2566527 C145.211241,16.2566527 145.426559,16.0792843 145.426559,15.7245423 L145.426559,14.6603215 C145.426559,14.3166652 145.178115,14.1448396 144.681218,14.1448396 L131.960719,14.1448396 Z M153.111861,19.5490856 L153.111861,24.3547074 L149.882047,24.3547074 L149.882047,11.0519481 L163.844781,11.0519481 C166.505941,11.0519481 167.8365,12.1327864 167.8365,14.2944957 L167.8365,16.306538 C167.8365,18.4682472 166.505941,19.5490856 163.844781,19.5490856 L153.111861,19.5490856 Z M153.111861,14.1448396 L153.111861,16.4561941 L163.844781,16.4561941 C164.341678,16.4561941 164.590123,16.295454 164.590123,15.973969 L164.590123,14.6270646 C164.590123,14.3055797 164.341678,14.1448396 163.844781,14.1448396 L153.111861,14.1448396 Z" id="ARP" fill="url(#linearGradient-4)"></path>
                <polygon id="Line" fill="#AEBAC4" fill-rule="nonzero" points="96 6 96 30 97 30 97 6"></polygon>
                <path d="M122.743,32.9479999 L122.162,32.9479999 L122.162,28.2789999 L124.038,28.2789999 C124.976,28.2789999 125.501,28.9229999 125.501,29.6859999 C125.501,30.4489999 124.969,31.0929999 124.038,31.0929999 L122.743,31.0929999 L122.743,32.9479999 Z M123.968,30.5749999 C124.521,30.5749999 124.899,30.2109999 124.899,29.6859999 C124.899,29.1609999 124.521,28.7969999 123.968,28.7969999 L122.743,28.7969999 L122.743,30.5749999 L123.968,30.5749999 Z M131.159,32.9479999 L130.473,32.9479999 L129.29,31.0929999 L128.352,31.0929999 L128.352,32.9479999 L127.771,32.9479999 L127.771,28.2789999 L129.647,28.2789999 C130.501,28.2789999 131.117,28.8249999 131.117,29.6859999 C131.117,30.5259999 130.536,30.9879999 129.899,31.0439999 L131.159,32.9479999 Z M129.577,30.5819999 C130.13,30.5819999 130.515,30.2109999 130.515,29.6859999 C130.515,29.1539999 130.13,28.7969999 129.577,28.7969999 L128.352,28.7969999 L128.352,30.5819999 L129.577,30.5819999 Z M135.662,33.0319999 C134.283,33.0319999 133.345,31.9959999 133.345,30.6169999 C133.345,29.2379999 134.283,28.2019999 135.662,28.2019999 C137.041,28.2019999 137.986,29.2379999 137.986,30.6169999 C137.986,31.9959999 137.041,33.0319999 135.662,33.0319999 Z M135.662,32.5139999 C136.705,32.5139999 137.384,31.7019999 137.384,30.6169999 C137.384,29.5249999 136.705,28.7199999 135.662,28.7199999 C134.612,28.7199999 133.947,29.5249999 133.947,30.6169999 C133.947,31.7019999 134.612,32.5139999 135.662,32.5139999 Z M140.97,32.9479999 L140.389,32.9479999 L140.389,28.2789999 L142.265,28.2789999 C143.203,28.2789999 143.728,28.9229999 143.728,29.6859999 C143.728,30.4489999 143.196,31.0929999 142.265,31.0929999 L140.97,31.0929999 L140.97,32.9479999 Z M142.195,30.5749999 C142.748,30.5749999 143.126,30.2109999 143.126,29.6859999 C143.126,29.1609999 142.748,28.7969999 142.195,28.7969999 L140.97,28.7969999 L140.97,30.5749999 L142.195,30.5749999 Z M149.057,32.9479999 L149.057,32.4299999 L146.579,32.4299999 L146.579,30.8199999 L149.008,30.8199999 L149.008,30.3019999 L146.579,30.3019999 L146.579,28.7969999 L149.057,28.7969999 L149.057,28.2789999 L145.998,28.2789999 L145.998,32.9479999 L149.057,32.9479999 Z M154.869,32.9479999 L154.183,32.9479999 L153,31.0929999 L152.062,31.0929999 L152.062,32.9479999 L151.481,32.9479999 L151.481,28.2789999 L153.357,28.2789999 C154.211,28.2789999 154.827,28.8249999 154.827,29.6859999 C154.827,30.5259999 154.246,30.9879999 153.609,31.0439999 L154.869,32.9479999 Z M153.287,30.5819999 C153.84,30.5819999 154.225,30.2109999 154.225,29.6859999 C154.225,29.1539999 153.84,28.7969999 153.287,28.7969999 L152.062,28.7969999 L152.062,30.5819999 L153.287,30.5819999 Z M158.91,32.9479999 L158.91,28.7969999 L160.394,28.7969999 L160.394,28.2789999 L156.852,28.2789999 L156.852,28.7969999 L158.329,28.7969999 L158.329,32.9479999 L158.91,32.9479999 Z M164.603,32.9479999 L164.603,30.9739999 L166.437,28.2789999 L165.758,28.2789999 L164.309,30.4489999 L162.86,28.2789999 L162.181,28.2789999 L164.022,30.9739999 L164.022,32.9479999 L164.603,32.9479999 Z" id="PROPERTY" fill="#45474D"></path>
            </g>
        </g>
    </g>
</svg>