<?xml version="1.0" encoding="UTF-8" standalone="no"?>
<svg width="170px" height="40px" viewBox="0 0 170 40" version="1.1" xmlns="http://www.w3.org/2000/svg" xmlns:xlink="http://www.w3.org/1999/xlink" style="background: #FFFFFF;">
    <!-- Generator: Sketch 47.1 (45422) - http://www.bohemiancoding.com/sketch -->
    <title>G&amp;A_JACALUM_logo</title>
    <desc>Created with Sketch.</desc>
    <defs></defs>
    <g id="Page-1" stroke="none" stroke-width="1" fill="none" fill-rule="evenodd">
        <g id="G&amp;A_JACALUM_logo">
            <g id="JACALUM" transform="translate(1.000000, 7.000000)">
                <g id="Group-Copy-3" transform="translate(37.049425, 5.487005)">
                    <g id="Group-2" transform="translate(0.000000, 0.000000)">
                        <path d="M10.5800081,7.81103282 C10.933069,7.81103282 11.1095969,7.70119327 11.1095969,7.48151088 L11.1095969,0.585087385 L13.4162505,0.585087385 L13.4162505,7.71688369 C13.4162505,9.23896884 12.4708458,10 10.5800081,10 L3.23637621,10 C1.34553847,10 0.400133786,9.23112316 0.400133786,7.69334641 L0.400133786,6.45763913 L2.69501874,6.45763913 L2.69501874,7.45797359 C2.69501874,7.69334759 2.87546942,7.81103282 3.23637621,7.81103282 L10.5800081,7.81103282 Z M29.3318112,8.1523234 L21.6939633,8.1523234 L20.6583229,10 L17.9986101,10 L22.9296706,1.38535496 C23.0002828,1.25197636 23.0728553,1.13625255 23.1473904,1.03818005 C23.2219255,0.940107558 23.3101895,0.857727896 23.4121849,0.791038598 C23.5141803,0.724349301 23.6357883,0.673352367 23.7770127,0.638046268 C23.9182371,0.60274017 24.094765,0.585087385 24.3066016,0.585087385 L26.683867,0.585087385 C27.3350684,0.585087385 27.813655,0.847917734 28.1196412,1.37358632 L33.038933,10 L30.3909888,10 L29.3318112,8.1523234 Z M22.8119842,6.08104262 L28.2020217,6.08104262 L26.5661806,3.20949428 C26.4798768,3.05257828 26.3837672,2.94077731 26.2778489,2.87408801 C26.1719306,2.80739872 26.0640525,2.77405457 25.9542113,2.77405457 L25.0480259,2.77405457 C24.7969603,2.77405457 24.5890498,2.92312253 24.424288,3.22126292 L22.8119842,6.08104262 Z M51.0846177,7.81103282 L51.0846177,10 L40.3398487,10 C38.4490109,10 37.5036062,9.23112316 37.5036062,7.69334641 L37.5036062,2.87997233 C37.5036062,1.35004139 38.4490109,0.585087385 40.3398487,0.585087385 L51.0493118,0.585087385 L51.0493118,2.77405457 L40.3398487,2.77405457 C39.9867877,2.77405457 39.8102598,2.92704537 39.8102598,3.23303156 L39.8102598,7.34028719 C39.8102598,7.65411918 39.9867877,7.81103282 40.3398487,7.81103282 L51.0846177,7.81103282 Z M67.3650062,8.1523234 L59.7271584,8.1523234 L58.691518,10 L56.0318052,10 L60.9628657,1.38535496 C61.0334778,1.25197636 61.1060504,1.13625255 61.1805855,1.03818005 C61.2551206,0.940107558 61.3433845,0.857727896 61.4453799,0.791038598 C61.5473753,0.724349301 61.6689834,0.673352367 61.8102078,0.638046268 C61.9514322,0.60274017 62.12796,0.585087385 62.3397966,0.585087385 L64.7170621,0.585087385 C65.3682634,0.585087385 65.84685,0.847917734 66.1528362,1.37358632 L71.0721281,10 L68.4241839,10 L67.3650062,8.1523234 Z M60.8451792,6.08104262 L66.2352167,6.08104262 L64.5993756,3.20949428 C64.5130719,3.05257828 64.4169622,2.94077731 64.3110439,2.87408801 C64.2051257,2.80739872 64.0972475,2.77405457 63.9874063,2.77405457 L63.081221,2.77405457 C62.8301554,2.77405457 62.6222448,2.92312253 62.457483,3.22126292 L60.8451792,6.08104262 Z M78.3612751,10 C76.4704373,10 75.5250327,9.23896884 75.5250327,7.71688369 L75.5250327,0.585087385 L77.8316862,0.585087385 L77.8316862,7.36382447 C77.8316862,7.66196486 78.0082141,7.81103282 78.3612751,7.81103282 L88.6235298,7.81103282 L88.6235298,10 L78.3612751,10 Z M105.021605,7.81103282 C105.374666,7.81103282 105.551194,7.70119327 105.551194,7.48151088 L105.551194,0.585087385 L107.857847,0.585087385 L107.857847,7.71688369 C107.857847,9.23896884 106.912443,10 105.021605,10 L96.760019,10 C94.8691812,10 93.9237765,9.23112316 93.9237765,7.69334641 L93.9237765,0.585087385 L96.2186615,0.585087385 L96.2186615,7.45797359 C96.2186615,7.69334759 96.3991122,7.81103282 96.760019,7.81103282 L105.021605,7.81103282 Z M113.393467,0.585087385 L115.688352,0.585087385 C116.06495,0.585087385 116.400353,0.616470113 116.69457,0.679236511 C116.988788,0.742002909 117.25358,0.845958196 117.488954,0.991105491 C117.724328,1.13625279 117.938123,1.32258774 118.130345,1.55011593 C118.322567,1.77764412 118.501056,2.05616583 118.665818,2.38568942 L121.41968,7.81103282 L122.172873,7.81103282 L124.903197,2.42099534 C125.075805,2.08362596 125.260179,1.79921998 125.456324,1.56776889 C125.652469,1.3363178 125.870186,1.14802143 126.109483,1.00287413 C126.34878,0.857726837 126.61161,0.751810129 126.897982,0.685120831 C127.184354,0.618431534 127.500142,0.585087385 127.845358,0.585087385 L130.16378,0.585087385 L130.16378,10 L127.974813,10 L127.974813,2.77405457 L127.857126,2.77405457 C127.70021,2.77405457 127.549181,2.83093576 127.404034,2.94469986 C127.258886,3.05846396 127.151008,3.18595629 127.080396,3.32718068 L123.632184,10 L119.9486,10 L116.488619,3.32718068 C116.418007,3.18595629 116.308168,3.05846396 116.159097,2.94469986 C116.010027,2.83093576 115.857036,2.77405457 115.70012,2.77405457 L115.582434,2.77405457 L115.582434,10 L113.393467,10 L113.393467,0.585087385 Z" id="JACALUM" fill="#141414"></path>
                        <path d="M4.38665188,19.1273966 L3.69099445,19.1273966 L3.4346996,18.4526612 L1.83416446,18.4526612 L1.57786961,19.1273966 L0.882212182,19.1273966 L2.25260502,15.6386484 L3.01625904,15.6386484 L4.38665188,19.1273966 Z M3.26209287,17.913919 L2.63443203,16.2506178 L2.00677119,17.913919 L3.26209287,17.913919 Z M9.92227171,19.1273966 L9.92227171,18.5886544 L8.38450265,18.5886544 L8.38450265,15.6386484 L7.77253333,15.6386484 L7.77253333,19.1273966 L9.92227171,19.1273966 Z M15.6200373,19.1273966 L15.6200373,18.5886544 L14.0822682,18.5886544 L14.0822682,15.6386484 L13.4702989,15.6386484 L13.4702989,19.1273966 L15.6200373,19.1273966 Z M20.5907623,19.1901627 C21.6054807,19.1901627 22.1023789,18.6095764 22.1023789,17.7465428 L22.1023789,15.6386484 L21.4799485,15.6386484 L21.4799485,17.7308512 C21.4799485,18.285285 21.1713486,18.64619 20.5907623,18.64619 C20.0101761,18.64619 19.7015761,18.285285 19.7015761,17.7308512 L19.7015761,15.6386484 L19.0791458,15.6386484 L19.0791458,17.7465428 C19.0791458,18.6095764 19.5812745,19.1901627 20.5907623,19.1901627 Z M29.5209812,19.1273966 L29.5209812,15.6386484 L28.6579476,15.6386484 L27.7112258,18.0342206 L26.7592735,15.6386484 L25.8962399,15.6386484 L25.8962399,19.1273966 L26.5082092,19.1273966 L26.5082092,16.4336855 L27.5804631,19.1273966 L27.8419885,19.1273966 L28.9090119,16.4336855 L28.9090119,19.1273966 L29.5209812,19.1273966 Z M33.9268115,19.1273966 L33.9268115,15.6386484 L33.3148422,15.6386484 L33.3148422,19.1273966 L33.9268115,19.1273966 Z M40.7439056,19.1273966 L40.7439056,15.6386484 L40.1319363,15.6386484 L40.1319363,18.0551427 L38.3483334,15.6386484 L37.7206725,15.6386484 L37.7206725,19.1273966 L38.3326419,19.1273966 L38.3326419,16.6324448 L40.1528583,19.1273966 L40.7439056,19.1273966 Z M45.1497359,19.1273966 L45.1497359,15.6386484 L44.5377666,15.6386484 L44.5377666,19.1273966 L45.1497359,19.1273966 Z M50.4552134,19.1901627 C51.4699318,19.1901627 51.96683,18.6095764 51.96683,17.7465428 L51.96683,15.6386484 L51.3443996,15.6386484 L51.3443996,17.7308512 C51.3443996,18.285285 51.0357997,18.64619 50.4552134,18.64619 C49.8746272,18.64619 49.5660272,18.285285 49.5660272,17.7308512 L49.5660272,15.6386484 L48.9435969,15.6386484 L48.9435969,17.7465428 C48.9435969,18.6095764 49.4457256,19.1901627 50.4552134,19.1901627 Z M59.3854323,19.1273966 L59.3854323,15.6386484 L58.5223987,15.6386484 L57.5756769,18.0342206 L56.6237246,15.6386484 L55.760691,15.6386484 L55.760691,19.1273966 L56.3726603,19.1273966 L56.3726603,16.4336855 L57.4449142,19.1273966 L57.7064396,19.1273966 L58.773463,16.4336855 L58.773463,19.1273966 L59.3854323,19.1273966 Z M70.9012651,19.1273966 L71.9002919,15.6386484 L71.2150955,15.6386484 L70.5351296,18.3218985 L69.8133196,15.6386484 L69.3268825,15.6386484 L68.6050725,18.3218985 L67.9251066,15.6386484 L67.2451407,15.6386484 L68.238937,19.1273966 L68.8927504,19.1273966 L69.5727163,16.5487567 L70.2474517,19.1273966 L70.9012651,19.1273966 Z M76.881478,19.1901627 C75.8353766,19.1901627 75.0978751,18.4265087 75.0978751,17.3856378 C75.0978751,16.3447669 75.8353766,15.5811129 76.881478,15.5811129 C77.9223489,15.5811129 78.6650809,16.3447669 78.6650809,17.3856378 C78.6650809,18.4265087 77.9223489,19.1901627 76.881478,19.1901627 Z M76.881478,18.64619 C77.582366,18.64619 78.0374201,18.1022172 78.0374201,17.3856378 C78.0374201,16.6638278 77.582366,16.1250856 76.881478,16.1250856 C76.1753596,16.1250856 75.725536,16.6638278 75.725536,17.3856378 C75.725536,18.1022172 76.1753596,18.64619 76.881478,18.64619 Z M85.0061988,19.1273966 L84.2948499,19.1273966 L83.5259653,17.8250004 L82.913996,17.8250004 L82.913996,19.1273966 L82.3020267,19.1273966 L82.3020267,15.6386484 L83.8345652,15.6386484 C84.5249922,15.6386484 84.9800463,16.0832415 84.9800463,16.7318244 C84.9800463,17.3490242 84.5720667,17.6890072 84.1483957,17.7570038 L85.0061988,19.1273966 Z M83.7561076,17.2862581 C84.1013211,17.2862581 84.3523854,17.0665768 84.3523854,16.7265939 C84.3523854,16.3918414 84.1013211,16.1773907 83.7561076,16.1773907 L82.913996,16.1773907 L82.913996,17.2862581 L83.7561076,17.2862581 Z M91.4885404,19.1273966 L89.9612324,17.2810276 L91.3786998,15.6386484 L90.6202763,15.6386484 L89.2551139,17.2967192 L89.2551139,15.6386484 L88.6431446,15.6386484 L88.6431446,19.1273966 L89.2551139,19.1273966 L89.2551139,18.0132986 L89.5637138,17.6523936 L90.7301169,19.1273966 L91.4885404,19.1273966 Z M96.1402046,19.1901627 C97.0764653,19.1901627 97.4896754,18.688034 97.4896754,18.1074477 C97.4896754,16.810282 95.4602387,17.213031 95.4602387,16.5592177 C95.4602387,16.3029228 95.690381,16.1250856 96.0460554,16.1250856 C96.4121909,16.1250856 96.7835569,16.2506178 97.0607738,16.5278346 L97.4059873,16.0727805 C97.0869263,15.7589501 96.6423332,15.5811129 96.103591,15.5811129 C95.3347065,15.5811129 94.8325778,16.025706 94.8325778,16.6062922 C94.8325778,17.8877664 96.8620145,17.4327123 96.8620145,18.1649833 C96.8620145,18.4003561 96.6684858,18.64619 96.1663571,18.64619 C95.6799199,18.64619 95.2980929,18.4160477 95.0627201,18.1597528 L94.7175067,18.635729 C95.0313371,18.9600204 95.4968522,19.1901627 96.1402046,19.1901627 Z" id="ALLUMINIUM-WORKS" fill="#6B952D"></path>
                    </g>
                </g>
                <g id="edited">
                    <g id="Group-14" transform="translate(0.006862, 0.249671)">
                        <g id="Group-3" transform="translate(-0.000000, 0.000000)">
                            <g transform="translate(-0.000000, 0.000000)" id="Group-15">
                                <g transform="translate(-0.000000, 0.000000)">
                                    <path d="M20.679067,7.3664348 C20.679067,5.76070987 20.679067,3.32355607 20.679067,0.0549733941 L28.8925975,0.0549733941 L28.8925975,20.1614923 C28.8925975,21.9344325 28.1072399,23.3963052 27.2106261,24.5487087 L20.679067,7.3664348 Z M13.378151,27.7775979 C11.7638978,27.7775979 10.1496446,27.7775979 8.53539147,27.7775979 L8.53539147,27.7775979 C3.98564297,27.7775979 0.297343072,24.089298 0.297343072,19.5395495 L0.297343072,14.9825404 L7.90246394,14.9825404 L7.90246394,18.6349904 L7.90246394,18.6349904 C7.90246394,19.8145548 8.85868984,20.7707807 10.0382543,20.7707807 C10.2389387,20.7707807 10.4396231,20.7707807 10.6403075,20.7707807 L13.378151,27.7775979 Z" id="J" fill="#141414"></path>
                                    <path d="M9.1309123,18.6436529 L16.7244041,0.0549733941 L23.751997,0.0549733941 L23.751997,0.0549733941 C24.4260338,0.0549733941 24.9724486,0.601388194 24.9724486,1.27542501 C24.9724486,1.42892982 24.9434898,1.58105681 24.8870913,1.72382563 L16.5011343,22.9522792 L16.5011343,22.9522792 C15.3507932,25.8642859 12.5377802,27.7775979 9.40679509,27.7775979 L0.297343072,27.7775979 L0.297343072,20.1614923 L6.87127481,20.1614923 L6.87127481,20.1614923 C7.86287077,20.1614923 8.75592553,19.5616113 9.1309123,18.6436529 Z" id="J-Copy-4" fill="#608528" transform="translate(12.635275, 13.916286) scale(1, -1) translate(-12.635275, -13.916286) "></path>
                                    <path d="M12.9499075,20.4071523 L21.2874767,0.0549733941 L23.751997,0.0549733941 L23.751997,0.0549733941 C24.4260338,0.0549733941 24.9724486,0.601388194 24.9724486,1.27542501 C24.9724486,1.42892982 24.9434898,1.58105681 24.8870913,1.72382563 L16.5011343,22.9522792 L16.5011343,22.9522792 C15.3507932,25.8642859 12.5377802,27.7775979 9.40679509,27.7775979 L0.297343072,27.7775979 L0.297343072,23.817223 L7.86779631,23.817223 L7.86779631,23.817223 C10.0968928,23.817223 12.1048846,22.4698707 12.9499075,20.4071523 Z" id="J-Copy-5" fill="#6B952D" transform="translate(12.921844, 13.916286) scale(1, -1) translate(-12.921844, -13.916286) "></path>
                                </g>
                            </g>
                        </g>
                    </g>
                </g>
            </g>
        </g>
    </g>
</svg>