<?xml version="1.0" encoding="UTF-8" standalone="no"?>
<svg width="170px" height="40px" viewBox="0 0 170 40" version="1.1" xmlns="http://www.w3.org/2000/svg" xmlns:xlink="http://www.w3.org/1999/xlink" style="background: #FFFFFF;">
    <!-- Generator: Sketch 47.1 (45422) - http://www.bohemiancoding.com/sketch -->
    <title>G&amp;A_ICA_logo</title>
    <desc>Created with Sketch.</desc>
    <defs></defs>
    <g id="Page-1" stroke="none" stroke-width="1" fill="none" fill-rule="evenodd">
        <g id="G&amp;A_ICA_logo">
            <g id="Group" transform="translate(31.000000, 2.000000)">
                <g id="Group-2" transform="translate(0.000000, 13.000000)" fill="#0A0A0A">
                    <g id="Group-5">
                        <path d="M3.06673611,7.5972 L3.06673611,15.6 L1.14905556,15.6 L1.14905556,7.5972 L3.06673611,7.5972 Z M3.354,5.265 C3.354,5.43140083 3.32035682,5.58739927 3.25306944,5.733 C3.18578207,5.87860073 3.09649824,6.00599945 2.98521528,6.1152 C2.87393231,6.22440055 2.74324149,6.31149968 2.59313889,6.3765 C2.44303629,6.44150033 2.28258419,6.474 2.11177778,6.474 C1.94614732,6.474 1.78957713,6.44150033 1.6420625,6.3765 C1.49454787,6.31149968 1.36644499,6.22440055 1.25775,6.1152 C1.14905501,6.00599945 1.06235912,5.87860073 0.997659722,5.733 C0.932960325,5.58739927 0.900611111,5.43140083 0.900611111,5.265 C0.900611111,5.09339914 0.932960325,4.93220075 0.997659722,4.7814 C1.06235912,4.63059925 1.14905501,4.50060055 1.25775,4.3914 C1.36644499,4.28219945 1.49454787,4.19510033 1.6420625,4.1301 C1.78957713,4.06509968 1.94614732,4.0326 2.11177778,4.0326 C2.28258419,4.0326 2.44303629,4.06509968 2.59313889,4.1301 C2.74324149,4.19510033 2.87393231,4.28219945 2.98521528,4.3914 C3.09649824,4.50060055 3.18578207,4.63059925 3.25306944,4.7814 C3.32035682,4.93220075 3.354,5.09339914 3.354,5.265 Z M10.2334028,9.2898 C10.1764673,9.36260036 10.1208267,9.41979979 10.0664792,9.4614 C10.0121317,9.50300021 9.93319959,9.5238 9.82968056,9.5238 C9.73133747,9.5238 9.6355838,9.4939003 9.54241667,9.4341 C9.44924953,9.3742997 9.33796824,9.30670038 9.20856944,9.2313 C9.07917065,9.15589962 8.92518839,9.0883003 8.74661806,9.0285 C8.56804772,8.9686997 8.3467791,8.9388 8.08280556,8.9388 C7.74636869,8.9388 7.45134386,8.99989939 7.19772222,9.1221 C6.94410058,9.24430061 6.73318371,9.41979886 6.56496528,9.6486 C6.39674684,9.87740114 6.2712319,10.1542984 6.18841667,10.4793 C6.10560144,10.8043016 6.06419444,11.1721979 6.06419444,11.583 C6.06419444,12.0094021 6.10948334,12.3889983 6.2000625,12.7218 C6.29064166,13.0546017 6.42133248,13.3340989 6.59213889,13.5603 C6.7629453,13.7865011 6.96998027,13.9580994 7.21325,14.0751 C7.45651973,14.1921006 7.73084107,14.2506 8.03622222,14.2506 C8.34160338,14.2506 8.58875137,14.2129004 8.77767361,14.1375 C8.96659585,14.0620996 9.12575398,13.9789005 9.25515278,13.8879 C9.38455157,13.7968995 9.49712684,13.7137004 9.59288194,13.6383 C9.68863705,13.5628996 9.79603644,13.5252 9.91508333,13.5252 C10.0703619,13.5252 10.1868191,13.5849994 10.2644583,13.7046 L10.8156944,14.4066 C10.6034804,14.6562012 10.373154,14.8654992 10.1247083,15.0345 C9.87626265,15.2035008 9.61876291,15.3386995 9.35220139,15.4401 C9.08563987,15.5415005 8.81002457,15.6129998 8.52534722,15.6546 C8.24066987,15.6962002 7.95858473,15.717 7.67908333,15.717 C7.18736791,15.717 6.72412717,15.6247009 6.28934722,15.4401 C5.85456727,15.2554991 5.47543449,14.9864018 5.1519375,14.6328 C4.82844051,14.2791982 4.57223474,13.8463026 4.3833125,13.3341 C4.19439026,12.8218974 4.09993056,12.2382033 4.09993056,11.583 C4.09993056,10.9953971 4.18403851,10.4507025 4.35225694,9.9489 C4.52047538,9.44709749 4.76762337,9.01290183 5.09370833,8.6463 C5.4197933,8.27969817 5.82351148,7.99240104 6.304875,7.7844 C6.78623852,7.57639896 7.34005705,7.4724 7.96634722,7.4724 C8.56158168,7.4724 9.083051,7.56859904 9.53077083,7.761 C9.97849066,7.95340096 10.3809149,8.22899821 10.7380556,8.5878 L10.2334028,9.2898 Z M14.84575,7.4724 C15.4409845,7.4724 15.9805693,7.56859904 16.4645208,7.761 C16.9484723,7.95340096 17.3612483,8.22639823 17.7028611,8.58 C18.0444739,8.93360177 18.3084435,9.36519745 18.4947778,9.8748 C18.681112,10.3844025 18.7742778,10.9537969 18.7742778,11.583 C18.7742778,12.2174032 18.681112,12.7893975 18.4947778,13.299 C18.3084435,13.8086025 18.0444739,14.2427982 17.7028611,14.6016 C17.3612483,14.9604018 16.9484723,15.235999 16.4645208,15.4284 C15.9805693,15.620801 15.4409845,15.717 14.84575,15.717 C14.2505155,15.717 13.7096367,15.620801 13.2230972,15.4284 C12.7365578,15.235999 12.3211939,14.9604018 11.9769931,14.6016 C11.6327923,14.2427982 11.3662347,13.8086025 11.1773125,13.299 C10.9883903,12.7893975 10.8939306,12.2174032 10.8939306,11.583 C10.8939306,10.9537969 10.9883903,10.3844025 11.1773125,9.8748 C11.3662347,9.36519745 11.6327923,8.93360177 11.9769931,8.58 C12.3211939,8.22639823 12.7365578,7.95340096 13.2230972,7.761 C13.7096367,7.56859904 14.2505155,7.4724 14.84575,7.4724 Z M14.84575,14.235 C15.5082718,14.235 15.9986859,14.0114022 16.3170069,13.5642 C16.635328,13.1169978 16.7944861,12.4618043 16.7944861,11.5986 C16.7944861,10.7353957 16.635328,10.0776023 16.3170069,9.6252 C15.9986859,9.17279774 15.5082718,8.9466 14.84575,8.9466 C14.1728763,8.9466 13.6759923,9.17409772 13.3550833,9.6291 C13.0341743,10.0841023 12.8737222,10.7405957 12.8737222,11.5986 C12.8737222,12.4566043 13.0341743,13.1104978 13.3550833,13.5603 C13.6759923,14.0101022 14.1728763,14.235 14.84575,14.235 Z M19.6754861,15.6 L19.6754861,7.5972 L20.8478333,7.5972 C21.096279,7.5972 21.2593191,7.71419883 21.3369583,7.9482 L21.4689444,8.58 C21.629399,8.41359917 21.7989088,8.26280068 21.9774792,8.1276 C22.1560495,7.99239932 22.3449689,7.87540049 22.5442431,7.7766 C22.7435172,7.67779951 22.957022,7.60240026 23.1847639,7.5504 C23.4125058,7.49839974 23.6609477,7.4724 23.9300972,7.4724 C24.3648772,7.4724 24.7504798,7.54649926 25.0869167,7.6947 C25.4233535,7.84290074 25.7041447,8.05089866 25.9292986,8.3187 C26.1544525,8.58650134 26.3252564,8.90629814 26.4417153,9.2781 C26.5581742,9.64990186 26.6164028,10.0593978 26.6164028,10.5066 L26.6164028,15.6 L24.6987222,15.6 L24.6987222,10.5066 C24.6987222,10.0177976 24.586147,9.63950134 24.3609931,9.3717 C24.1358392,9.10389866 23.7981134,8.97 23.3478056,8.97 C23.0165446,8.97 22.7059922,9.04539925 22.4161389,9.1962 C22.1262856,9.34700075 21.8519643,9.5523987 21.5931667,9.8124 L21.5931667,15.6 L19.6754861,15.6 Z M32.6340139,9.1572 C32.5822544,9.24040042 32.5279077,9.29889983 32.4709722,9.3327 C32.4140368,9.36650017 32.3415745,9.3834 32.2535833,9.3834 C32.1604162,9.3834 32.0607806,9.35740026 31.9546736,9.3054 C31.8485666,9.25339974 31.7256396,9.19490032 31.5858889,9.1299 C31.4461382,9.06489967 31.2869801,9.00640026 31.1084097,8.9544 C30.9298394,8.90239974 30.7189225,8.8764 30.4756528,8.8764 C30.0978083,8.8764 29.8001955,8.95699919 29.5828056,9.1182 C29.3654156,9.27940081 29.2567222,9.4899987 29.2567222,9.75 C29.2567222,9.92160086 29.3123629,10.0658994 29.4236458,10.1829 C29.5349288,10.2999006 29.6824412,10.4025996 29.8661875,10.491 C30.0499338,10.5794004 30.2582627,10.6586996 30.4911806,10.7289 C30.7240984,10.7991004 30.9621886,10.8757996 31.2054583,10.959 C31.4487281,11.0422004 31.6868183,11.1370995 31.9197361,11.2437 C32.1526539,11.3503005 32.3609829,11.4854992 32.5447292,11.6493 C32.7284755,11.8131008 32.8759879,12.0093989 32.9872708,12.2382 C33.0985538,12.4670011 33.1541944,12.7425984 33.1541944,13.065 C33.1541944,13.4498019 33.0843201,13.8046984 32.9445694,14.1297 C32.8048187,14.4547016 32.6003717,14.7354988 32.3312222,14.9721 C32.0620727,15.2087012 31.7295228,15.3932993 31.3335625,15.5259 C30.9376022,15.6585007 30.4834192,15.7248 29.971,15.7248 C29.6966746,15.7248 29.4288231,15.7001002 29.1674375,15.6507 C28.9060519,15.6012998 28.655022,15.5324004 28.4143403,15.444 C28.1736585,15.3555996 27.9510959,15.2516006 27.7466458,15.132 C27.5421957,15.0123994 27.3623341,14.8824007 27.2070556,14.742 L27.6495972,14.0088 C27.7065327,13.9203996 27.7738191,13.8528002 27.8514583,13.806 C27.9290976,13.7591998 28.0274392,13.7358 28.1464861,13.7358 C28.265533,13.7358 28.3781083,13.7695997 28.4842153,13.8372 C28.5903223,13.9048003 28.7132493,13.9775996 28.853,14.0556 C28.9927507,14.1336004 29.1570847,14.2063997 29.3460069,14.274 C29.5349292,14.3416003 29.7743134,14.3754 30.0641667,14.3754 C30.2919085,14.3754 30.4872978,14.3481003 30.6503403,14.2935 C30.8133828,14.2388997 30.9479555,14.1674004 31.0540625,14.079 C31.1601695,13.9905996 31.2378076,13.8879006 31.2869792,13.7709 C31.3361507,13.6538994 31.3607361,13.5330006 31.3607361,13.4082 C31.3607361,13.2209991 31.3050955,13.0676006 31.1938125,12.948 C31.0825295,12.8283994 30.9350171,12.7244004 30.7512708,12.636 C30.5675245,12.5475996 30.3579016,12.4683004 30.1223958,12.3981 C29.88689,12.3278996 29.6462119,12.2512004 29.4003542,12.168 C29.1544965,12.0847996 28.9138183,11.9873006 28.6783125,11.8755 C28.4428067,11.7636994 28.2331838,11.6220009 28.0494375,11.4504 C27.8656912,11.2787991 27.7181788,11.0682012 27.6068958,10.8186 C27.4956129,10.5689988 27.4399722,10.2674018 27.4399722,9.9138 C27.4399722,9.58619836 27.5046706,9.27420148 27.6340694,8.9778 C27.7634682,8.68139852 27.9536816,8.42270111 28.2047153,8.2017 C28.4557489,7.98069889 28.7688893,7.80390066 29.1441458,7.6713 C29.5194023,7.53869934 29.9528818,7.4724 30.4445972,7.4724 C30.9932481,7.4724 31.49272,7.56339909 31.9430278,7.7454 C32.3933356,7.92740091 32.7685865,8.16659852 33.0687917,8.463 L32.6340139,9.1572 Z M35.8488611,7.5972 L35.8488611,12.6828 C35.8488611,13.1716024 35.9614364,13.5498987 36.1865903,13.8177 C36.4117442,14.0855013 36.74947,14.2194 37.1997778,14.2194 C37.5310387,14.2194 37.8415911,14.1453007 38.1314444,13.9971 C38.4212977,13.8488993 38.6956191,13.6448013 38.9544167,13.3848 L38.9544167,7.5972 L40.8720972,7.5972 L40.8720972,15.6 L39.69975,15.6 C39.4513043,15.6 39.2882643,15.4830012 39.210625,15.249 L39.0786389,14.6094 C38.9130084,14.7758008 38.7422046,14.9278993 38.5662222,15.0657 C38.3902399,15.2035007 38.2026144,15.3204995 38.0033403,15.4167 C37.8040661,15.5129005 37.5892674,15.5882997 37.3589375,15.6429 C37.1286076,15.6975003 36.8814597,15.7248 36.6174861,15.7248 C36.1827062,15.7248 35.7983975,15.6507007 35.4645486,15.5025 C35.1306997,15.3542993 34.8499085,15.1450014 34.6221667,14.8746 C34.3944248,14.6041986 34.222327,14.2831019 34.1058681,13.9113 C33.9894091,13.5394981 33.9311806,13.1300022 33.9311806,12.6828 L33.9311806,7.5972 L35.8488611,7.5972 Z M44.3664444,4.0092 L44.3664444,15.6 L42.4487639,15.6 L42.4487639,4.0092 L44.3664444,4.0092 Z M48.5517778,15.7248 C47.8633762,15.7248 47.3328491,15.528502 46.9601806,15.1359 C46.587512,14.743298 46.4011806,14.2012035 46.4011806,13.5096 L46.4011806,9.0402 L45.5937361,9.0402 C45.4902171,9.0402 45.4009332,9.00640034 45.3258819,8.9388 C45.2508306,8.87119966 45.2133056,8.76980068 45.2133056,8.6346 L45.2133056,7.8702 L46.4943472,7.6596 L46.8980694,5.4756 C46.9187733,5.37159948 46.9666501,5.29100029 47.0417014,5.2338 C47.1167527,5.17659971 47.2112124,5.148 47.3250833,5.148 L48.3188611,5.148 L48.3188611,7.6674 L50.4151111,7.6674 L50.4151111,9.0402 L48.3188611,9.0402 L48.3188611,13.377 C48.3188611,13.6266012 48.3809716,13.8215993 48.5051944,13.962 C48.6294173,14.1024007 48.7950453,14.1726 49.0020833,14.1726 C49.1211302,14.1726 49.2207658,14.1583001 49.3009931,14.1297 C49.3812203,14.1010999 49.4510946,14.0712002 49.5106181,14.04 C49.5701415,14.0087998 49.6231942,13.9789001 49.6697778,13.9503 C49.7163613,13.9216999 49.7629442,13.9074 49.8095278,13.9074 C49.8664632,13.9074 49.9130461,13.9216999 49.9492778,13.9503 C49.9855094,13.9789001 50.0243285,14.0217997 50.0657361,14.079 L50.6402639,15.015 C50.3607625,15.2490012 50.0398583,15.4257994 49.6775417,15.5454 C49.315225,15.6650006 48.9399742,15.7248 48.5517778,15.7248 Z" id="iconsult"></path>
                        <path d="M57.2503194,15.6 C57.0950409,15.6 56.9992872,15.5272007 56.9630556,15.3816 L56.8543611,14.391 C56.6421471,14.599001 56.4312302,14.7861992 56.2216042,14.9526 C56.0119781,15.1190008 55.7932974,15.2593994 55.5655556,15.3738 C55.3378137,15.4882006 55.0919597,15.5752997 54.8279861,15.6351 C54.5640126,15.6949003 54.2741636,15.7248 53.9584306,15.7248 C53.694457,15.7248 53.4382512,15.6858004 53.1898056,15.6078 C52.9413599,15.5297996 52.7213852,15.4102008 52.529875,15.249 C52.3383648,15.0877992 52.1843825,14.8811013 52.0679236,14.6289 C51.9514647,14.3766987 51.8932361,14.0738018 51.8932361,13.7202 C51.8932361,13.3925984 51.9864018,13.0884014 52.1727361,12.8076 C52.3590704,12.5267986 52.6502133,12.282401 53.0461736,12.0744 C53.4421339,11.866399 53.9519575,11.7000006 54.5756597,11.5752 C55.1993619,11.4503994 55.9485697,11.3776001 56.8233056,11.3568 L56.8233056,10.5456 C56.8233056,9.82799641 56.6693233,9.27550194 56.3613542,8.8881 C56.053385,8.50069806 55.5966141,8.307 54.9910278,8.307 C54.6183592,8.307 54.301337,8.35899948 54.0399514,8.463 C53.7785658,8.56700052 53.5572972,8.68139938 53.3761389,8.8062 C53.1949806,8.93100062 53.0474682,9.04539948 52.9335972,9.1494 C52.8197263,9.25340052 52.7239726,9.3054 52.6463333,9.3054 C52.5428143,9.3054 52.4651762,9.25860047 52.4134167,9.165 L52.2814306,8.9388 C52.6851548,8.53319797 53.1095765,8.22640104 53.5547083,8.0184 C53.9998402,7.81039896 54.5044879,7.7064 55.0686667,7.7064 C55.4827428,7.7064 55.845054,7.77269934 56.1556111,7.9053 C56.4661682,8.03790066 56.723668,8.22769876 56.9281181,8.4747 C57.1325682,8.72170123 57.2865504,9.02069824 57.3900694,9.3717 C57.4935885,9.72270175 57.5453472,10.1139978 57.5453472,10.5456 L57.5453472,15.6 L57.2503194,15.6 Z M54.1447639,15.1866 C54.4449691,15.1866 54.7205844,15.1541003 54.9716181,15.0891 C55.2226517,15.0240997 55.4555661,14.9331006 55.6703681,14.8161 C55.8851701,14.6990994 56.0857352,14.5600008 56.2720694,14.3988 C56.4584037,14.2375992 56.6421472,14.0634009 56.8233056,13.8762 L56.8233056,11.856 C56.0883204,11.8768001 55.4555698,11.9326995 54.9250347,12.0237 C54.3944997,12.1147005 53.9571383,12.2381992 53.6129375,12.3942 C53.2687367,12.5502008 53.0151189,12.7360989 52.8520764,12.9519 C52.6890339,13.1677011 52.6075139,13.4133986 52.6075139,13.689 C52.6075139,13.9490013 52.6502149,14.1738991 52.7356181,14.3637 C52.8210213,14.5535009 52.9335965,14.7094994 53.0733472,14.8317 C53.2130979,14.9539006 53.376138,15.0435997 53.5624722,15.1008 C53.7488065,15.1580003 53.9429018,15.1866 54.1447639,15.1866 Z M59.5645556,15.6 L59.5645556,8.6502 L58.4776111,8.58 C58.3275085,8.56959995 58.2524583,8.5046006 58.2524583,8.385 L58.2524583,8.0808 L59.5645556,8.0808 L59.5645556,7.098 C59.5645556,6.65599779 59.6214902,6.26730168 59.7353611,5.9319 C59.8492321,5.59649832 60.0096842,5.31700112 60.2167222,5.0934 C60.4237603,4.86979888 60.6734962,4.70210056 60.9659375,4.5903 C61.2583788,4.47849944 61.5805769,4.4226 61.9325417,4.4226 C62.0929962,4.4226 62.2547422,4.43689986 62.4177847,4.4655 C62.5808272,4.49410014 62.7244577,4.53439974 62.8486806,4.5864 L62.8253889,4.9452 C62.8202129,5.01800036 62.7710421,5.0544 62.677875,5.0544 C62.6157636,5.0544 62.5316556,5.04660008 62.4255486,5.031 C62.3194416,5.01539992 62.1887508,5.0076 62.0334722,5.0076 C61.7798506,5.0076 61.5456423,5.04529962 61.3308403,5.1207 C61.1160383,5.19610038 60.9310008,5.31699917 60.7757222,5.4834 C60.6204437,5.64980083 60.5001046,5.86689866 60.4147014,6.1347 C60.3292982,6.40250134 60.2865972,6.73139805 60.2865972,7.1214 L60.2865972,8.0808 L62.7943333,8.0808 L62.7943333,8.6346 L60.302125,8.6346 L60.302125,15.6 L59.5645556,15.6 Z M63.6800139,15.6 L63.6800139,7.839 L64.0682083,7.839 C64.1561995,7.839 64.219604,7.85719982 64.2584236,7.8936 C64.2972432,7.93000018 64.3192407,7.99239956 64.3244167,8.0808 L64.3865278,9.7188 C64.6349735,9.08959685 64.9662294,8.59690178 65.3803056,8.2407 C65.7943817,7.88449822 66.3042053,7.7064 66.9097917,7.7064 C67.1427095,7.7064 67.3575083,7.73109975 67.5541944,7.7805 C67.7508806,7.82990025 67.9372121,7.90139953 68.1131944,7.995 L68.0122639,8.5098 C67.996736,8.59300042 67.9449773,8.6346 67.8569861,8.6346 C67.8259304,8.6346 67.7819355,8.6242001 67.725,8.6034 C67.6680645,8.5825999 67.5968963,8.55920013 67.5114931,8.5332 C67.4260899,8.50719987 67.3212784,8.4838001 67.1970556,8.463 C67.0728327,8.4421999 66.9304962,8.4318 66.7700417,8.4318 C66.1851591,8.4318 65.7050968,8.61379818 65.3298403,8.9778 C64.9545838,9.34180182 64.6505012,9.86699657 64.4175833,10.5534 L64.4175833,15.6 L63.6800139,15.6 Z M70.2022778,7.839 L70.2022778,15.6 L69.4647083,15.6 L69.4647083,7.839 L70.2022778,7.839 Z M70.5283611,5.1636 C70.5283611,5.25720047 70.5089516,5.3442996 70.4701319,5.4249 C70.4313123,5.5055004 70.3808475,5.57699969 70.3187361,5.6394 C70.2566247,5.70180031 70.1841625,5.75119982 70.1013472,5.7876 C70.018532,5.82400018 69.9305421,5.8422 69.837375,5.8422 C69.7442079,5.8422 69.656218,5.82400018 69.5734028,5.7876 C69.4905875,5.75119982 69.4181253,5.70180031 69.3560139,5.6394 C69.2939025,5.57699969 69.2447317,5.5055004 69.2085,5.4249 C69.1722683,5.3442996 69.1541528,5.25720047 69.1541528,5.1636 C69.1541528,5.06999953 69.1722683,4.98030043 69.2085,4.8945 C69.2447317,4.80869957 69.2939025,4.73460031 69.3560139,4.6722 C69.4181253,4.60979969 69.4905875,4.56040018 69.5734028,4.524 C69.656218,4.48759982 69.7442079,4.4694 69.837375,4.4694 C69.9305421,4.4694 70.018532,4.48759982 70.1013472,4.524 C70.1841625,4.56040018 70.2566247,4.60979969 70.3187361,4.6722 C70.3808475,4.73460031 70.4313123,4.80869957 70.4701319,4.8945 C70.5089516,4.98030043 70.5283611,5.06999953 70.5283611,5.1636 Z M77.4232917,8.8764 C77.3974119,8.90240013 77.3728265,8.92449991 77.3495347,8.9427 C77.3262429,8.96090009 77.2938937,8.97 77.2524861,8.97 C77.2007266,8.97 77.1295583,8.93490035 77.0389792,8.8647 C76.9484,8.79449965 76.8280609,8.71780042 76.6779583,8.6346 C76.5278557,8.55139958 76.3402303,8.47470035 76.1150764,8.4045 C75.8899225,8.33429965 75.6168951,8.2992 75.2959861,8.2992 C74.8508543,8.2992 74.4561939,8.37849921 74.1119931,8.5371 C73.7677923,8.69570079 73.4779433,8.92319852 73.2424375,9.2196 C73.0069317,9.51600148 72.8270701,9.87479789 72.7028472,10.296 C72.5786244,10.7172021 72.5165139,11.1903974 72.5165139,11.7156 C72.5165139,12.2616027 72.5799183,12.7451979 72.7067292,13.1664 C72.83354,13.5876021 73.0134016,13.9424986 73.2463194,14.2311 C73.4792373,14.5197014 73.7613224,14.7393992 74.0925833,14.8902 C74.4238442,15.0410008 74.7913313,15.1164 75.1950556,15.1164 C75.5677241,15.1164 75.8795705,15.0722004 76.1306042,14.9838 C76.3816378,14.8953996 76.5886728,14.7992005 76.7517153,14.6952 C76.9147578,14.5911995 77.0441546,14.4950004 77.1399097,14.4066 C77.2356648,14.3181996 77.312009,14.274 77.3689444,14.274 C77.4362318,14.274 77.4879906,14.2999997 77.5242222,14.352 L77.7260833,14.6016 C77.6070364,14.7576008 77.4569361,14.9031993 77.2757778,15.0384 C77.0946195,15.1736007 76.8901724,15.2905995 76.6624306,15.3894 C76.4346887,15.4882005 76.1875407,15.5648997 75.9209792,15.6195 C75.6544176,15.6741003 75.3762144,15.7014 75.0863611,15.7014 C74.5946457,15.7014 74.1456386,15.6117009 73.7393264,15.4323 C73.3330142,15.2528991 72.9836427,14.9929017 72.6912014,14.6523 C72.3987601,14.3116983 72.1710216,13.8944025 72.0079792,13.4004 C71.8449367,12.9063975 71.7634167,12.3448031 71.7634167,11.7156 C71.7634167,11.122797 71.8410548,10.5820024 71.9963333,10.0932 C72.1516119,9.60439756 72.3780564,9.18320177 72.6756736,8.8296 C72.9732908,8.47599823 73.33819,8.20170097 73.7703819,8.0067 C74.2025739,7.81169902 74.6981639,7.7142 75.2571667,7.7142 C75.759234,7.7142 76.2056531,7.79479919 76.5964375,7.956 C76.9872219,8.11720081 77.3275356,8.33559862 77.6173889,8.6112 L77.4232917,8.8764 Z M83.7359306,15.6 C83.580652,15.6 83.4848983,15.5272007 83.4486667,15.3816 L83.3399722,14.391 C83.1277582,14.599001 82.9168413,14.7861992 82.7072153,14.9526 C82.4975892,15.1190008 82.2789085,15.2593994 82.0511667,15.3738 C81.8234248,15.4882006 81.5775708,15.5752997 81.3135972,15.6351 C81.0496237,15.6949003 80.7597747,15.7248 80.4440417,15.7248 C80.1800681,15.7248 79.9238624,15.6858004 79.6754167,15.6078 C79.426971,15.5297996 79.2069963,15.4102008 79.0154861,15.249 C78.8239759,15.0877992 78.6699936,14.8811013 78.5535347,14.6289 C78.4370758,14.3766987 78.3788472,14.0738018 78.3788472,13.7202 C78.3788472,13.3925984 78.472013,13.0884014 78.6583472,12.8076 C78.8446815,12.5267986 79.1358244,12.282401 79.5317847,12.0744 C79.927745,11.866399 80.4375686,11.7000006 81.0612708,11.5752 C81.684973,11.4503994 82.4341808,11.3776001 83.3089167,11.3568 L83.3089167,10.5456 C83.3089167,9.82799641 83.1549344,9.27550194 82.8469653,8.8881 C82.5389961,8.50069806 82.0822253,8.307 81.4766389,8.307 C81.1039704,8.307 80.7869481,8.35899948 80.5255625,8.463 C80.2641769,8.56700052 80.0429083,8.68139938 79.86175,8.8062 C79.6805917,8.93100062 79.5330793,9.04539948 79.4192083,9.1494 C79.3053374,9.25340052 79.2095837,9.3054 79.1319444,9.3054 C79.0284254,9.3054 78.9507873,9.25860047 78.8990278,9.165 L78.7670417,8.9388 C79.1707659,8.53319797 79.5951876,8.22640104 80.0403194,8.0184 C80.4854513,7.81039896 80.990099,7.7064 81.5542778,7.7064 C81.9683539,7.7064 82.3306651,7.77269934 82.6412222,7.9053 C82.9517793,8.03790066 83.2092791,8.22769876 83.4137292,8.4747 C83.6181793,8.72170123 83.7721615,9.02069824 83.8756806,9.3717 C83.9791996,9.72270175 84.0309583,10.1139978 84.0309583,10.5456 L84.0309583,15.6 L83.7359306,15.6 Z M80.630375,15.1866 C80.9305802,15.1866 81.2061955,15.1541003 81.4572292,15.0891 C81.7082628,15.0240997 81.9411772,14.9331006 82.1559792,14.8161 C82.3707812,14.6990994 82.5713463,14.5600008 82.7576806,14.3988 C82.9440148,14.2375992 83.1277584,14.0634009 83.3089167,13.8762 L83.3089167,11.856 C82.5739315,11.8768001 81.9411809,11.9326995 81.4106458,12.0237 C80.8801108,12.1147005 80.4427494,12.2381992 80.0985486,12.3942 C79.7543478,12.5502008 79.50073,12.7360989 79.3376875,12.9519 C79.174645,13.1677011 79.093125,13.4133986 79.093125,13.689 C79.093125,13.9490013 79.135826,14.1738991 79.2212292,14.3637 C79.3066324,14.5535009 79.4192076,14.7094994 79.5589583,14.8317 C79.698709,14.9539006 79.8617491,15.0435997 80.0480833,15.1008 C80.2344176,15.1580003 80.4285129,15.1866 80.630375,15.1866 Z" id="africa"></path>
                        <path d="M2.80664583,18.8907 L2.80664583,19.2225 L1.36853472,19.2225 L1.36853472,20.2221 L2.53281944,20.2221 L2.53281944,20.5413 L1.36853472,20.5413 L1.36853472,21.5682 L2.80664583,21.5682 L2.80664583,21.9 L0.960930556,21.9 L0.960930556,18.8907 L2.80664583,18.8907 Z M5.90772223,18.8907 L5.90772223,19.233 L4.93992362,19.233 L4.93992362,21.9 L4.53440973,21.9 L4.53440973,19.233 L3.56243056,19.233 L3.56243056,18.8907 L5.90772223,18.8907 Z M9.24081946,21.9 L8.83321529,21.9 L8.83321529,20.5308 L7.21952085,20.5308 L7.21952085,21.9 L6.81191668,21.9 L6.81191668,18.8907 L7.21952085,18.8907 L7.21952085,20.2326 L8.83321529,20.2326 L8.83321529,18.8907 L9.24081946,18.8907 L9.24081946,21.9 Z M10.9309584,21.9 L10.5254445,21.9 L10.5254445,18.8907 L10.9309584,18.8907 L10.9309584,21.9 Z M14.3225834,21.2784 C14.3448798,21.2784 14.3650856,21.2874999 14.3832014,21.3057 L14.5420625,21.48 C14.4194323,21.6228007 14.2706757,21.7340996 14.0957882,21.8139 C13.9209008,21.8937004 13.7101332,21.9336 13.4634792,21.9336 C13.2474827,21.9336 13.0516954,21.8961504 12.8761111,21.82125 C12.7005269,21.7463496 12.5507252,21.6413507 12.4267014,21.50625 C12.3026776,21.3711493 12.2065258,21.2091009 12.1382431,21.0201 C12.0699603,20.8310991 12.0358195,20.6232011 12.0358195,20.3964 C12.0358195,20.1695989 12.072399,19.9617009 12.1455591,19.7727 C12.2187191,19.5836991 12.3214901,19.4213007 12.453875,19.2855 C12.5862599,19.1496993 12.7447711,19.0443504 12.9294132,18.96945 C13.1140553,18.8945496 13.3178554,18.8571 13.5408195,18.8571 C13.7609965,18.8571 13.9508615,18.8913997 14.1104202,18.96 C14.2699788,19.0286003 14.4117679,19.1216994 14.5357917,19.2393 L14.4041042,19.4262 C14.3943495,19.4402001 14.3832015,19.45175 14.3706598,19.46085 C14.358118,19.46995 14.3400025,19.4745 14.3163125,19.4745 C14.2981967,19.4745 14.279036,19.4678501 14.2588299,19.45455 C14.2386238,19.4412499 14.2145858,19.4248001 14.1867153,19.4052 C14.1588448,19.3855999 14.1260974,19.3646001 14.0884723,19.3422 C14.0508471,19.3197999 14.0062549,19.2988001 13.9546945,19.2792 C13.903134,19.2595999 13.8432133,19.2431501 13.7749306,19.22985 C13.7066478,19.2165499 13.6279148,19.2099 13.5387292,19.2099 C13.3784738,19.2099 13.2318074,19.2375497 13.0987257,19.29285 C12.965644,19.3481503 12.8510283,19.4268995 12.754875,19.5291 C12.6587218,19.6313005 12.5838209,19.7558993 12.5301702,19.9029 C12.4765194,20.0499007 12.4496945,20.2143991 12.4496945,20.3964 C12.4496945,20.5840009 12.4765194,20.7512993 12.5301702,20.8983 C12.5838209,21.0453007 12.6569799,21.1695495 12.7496493,21.27105 C12.8423188,21.3725505 12.9520573,21.4498997 13.0788681,21.5031 C13.2056789,21.5563003 13.3422424,21.5829 13.4885625,21.5829 C13.5777482,21.5829 13.6578747,21.5776501 13.7289445,21.56715 C13.8000143,21.5566499 13.8658574,21.5402001 13.9264757,21.5178 C13.9870941,21.4953999 14.043531,21.4670502 14.0957882,21.43275 C14.1480454,21.3984498 14.2006502,21.3575002 14.2536042,21.3099 C14.2772941,21.2888999 14.300287,21.2784 14.3225834,21.2784 Z M18.0172986,21.9 L17.703757,21.9 C17.6675253,21.9 17.6382617,21.8909001 17.6159653,21.8727 C17.5936689,21.8544999 17.5769469,21.8314001 17.5657986,21.8034 L17.2857014,21.0768 L15.9416528,21.0768 L15.6615556,21.8034 C15.6518009,21.8286001 15.6350789,21.8509999 15.6113889,21.8706 C15.587699,21.8902001 15.5584354,21.9 15.5235973,21.9 L15.2100556,21.9 L16.4077848,18.8907 L16.8195695,18.8907 L18.0172986,21.9 Z M16.0545278,20.7828 L17.1728264,20.7828 L16.7025139,19.5585 C16.6718564,19.4828996 16.641896,19.3884006 16.612632,19.275 C16.5973032,19.3324003 16.582323,19.3852498 16.567691,19.43355 C16.553059,19.4818502 16.5387756,19.5241998 16.5248403,19.5606 L16.0545278,20.7828 Z M19.2789306,21.5577 L20.5749028,21.5577 L20.5749028,21.9 L18.8734167,21.9 L18.8734167,18.8907 L19.2789306,18.8907 L19.2789306,21.5577 Z M23.8005001,18.8571 C23.9105886,18.8571 24.0109209,18.8749498 24.1015001,18.91065 C24.1920792,18.9463502 24.2704638,18.9935997 24.3366563,19.0524 C24.4028488,19.1112003 24.4551052,19.1794496 24.4934271,19.25715 C24.5317491,19.3348504 24.5536968,19.4156996 24.5592709,19.4997 L24.3272501,19.5459 C24.3202824,19.5473 24.3140117,19.548 24.3084376,19.548 C24.2903217,19.548 24.2732513,19.5431 24.2572258,19.5333 C24.2412002,19.5235 24.2297038,19.5060001 24.2227362,19.4808 C24.2129815,19.4443998 24.1973046,19.4066002 24.1757049,19.3674 C24.1541053,19.3281998 24.1262352,19.2925002 24.0920938,19.2603 C24.0579524,19.2280998 24.016844,19.2015001 23.9687674,19.1805 C23.9206908,19.1594999 23.8646022,19.149 23.8005001,19.149 C23.7308238,19.149 23.6681161,19.1601999 23.6123751,19.1826 C23.556634,19.2050001 23.5089065,19.2361498 23.469191,19.27605 C23.4294756,19.3159502 23.3988185,19.3628497 23.3772188,19.41675 C23.3556192,19.4706503 23.3448195,19.5290997 23.3448195,19.5921 C23.3448195,19.6411002 23.3507419,19.6879998 23.3625869,19.7328 C23.3744318,19.7776002 23.392199,19.8227498 23.4158889,19.86825 C23.4395789,19.9137502 23.470236,19.9606498 23.5078612,20.00895 C23.5454864,20.0572502 23.5907753,20.1079997 23.6437292,20.1612 L24.5049237,21.0411 C24.5578776,20.9472995 24.6000312,20.8489505 24.6313855,20.74605 C24.6627398,20.6431495 24.6839907,20.5399005 24.6951389,20.4363 C24.697926,20.4096999 24.706287,20.3887001 24.7202223,20.3733 C24.7341575,20.3578999 24.7536666,20.3502 24.7787501,20.3502 L25.0086806,20.3502 C25.0058936,20.5112008 24.9801137,20.6693992 24.9313403,20.8248 C24.8825669,20.9802008 24.812195,21.1257993 24.7202223,21.2616 L25.3473056,21.9 L24.9877778,21.9 C24.9473656,21.9 24.9146182,21.8951 24.8895348,21.8853 C24.8644513,21.8755 24.8365812,21.8552002 24.8059237,21.8244 L24.5049237,21.5199 C24.3739323,21.6473006 24.2230854,21.7480996 24.0523785,21.8223 C23.8816717,21.8965004 23.6938969,21.9336 23.4890487,21.9336 C23.3775666,21.9336 23.2681765,21.9147002 23.1608751,21.8769 C23.0535736,21.8390998 22.9577702,21.7841504 22.8734619,21.71205 C22.7891536,21.6399496 22.7212202,21.5521005 22.6696598,21.4485 C22.6180993,21.3448995 22.5923195,21.2280007 22.5923195,21.0978 C22.5923195,20.9997995 22.6086932,20.9070504 22.641441,20.81955 C22.6741889,20.7320496 22.7194778,20.6512004 22.7773091,20.577 C22.8351404,20.5027996 22.9037705,20.4363003 22.9832014,20.3775 C23.0626324,20.3186997 23.1497264,20.2683002 23.2444862,20.2263 C23.1594811,20.1184995 23.0967734,20.0135005 23.0563612,19.9113 C23.0159489,19.8090995 22.9957431,19.7034005 22.9957431,19.5942 C22.9957431,19.4919995 23.014207,19.3961004 23.0511355,19.3065 C23.0880639,19.2168996 23.1413654,19.1388503 23.2110417,19.07235 C23.280718,19.0058497 23.3653734,18.9533502 23.4650105,18.91485 C23.5646475,18.8763498 23.6764763,18.8571 23.8005001,18.8571 Z M22.9706598,21.0684 C22.9706598,21.1594005 22.9873818,21.2395497 23.0208264,21.30885 C23.0542711,21.3781503 23.0981665,21.4365998 23.1525139,21.4842 C23.2068614,21.5318002 23.2688724,21.5678499 23.3385487,21.59235 C23.4082249,21.6168501 23.4792937,21.6291 23.551757,21.6291 C23.7078319,21.6291 23.8478791,21.6004003 23.9719028,21.543 C24.0959266,21.4855997 24.2053167,21.4093005 24.3000764,21.3141 L23.4158889,20.4174 C23.2681752,20.4972004 23.1570433,20.5927494 23.0824896,20.70405 C23.007936,20.8153506 22.9706598,20.9367993 22.9706598,21.0684 Z M27.9311876,20.6442 L27.9311876,21.9 L27.527764,21.9 L27.527764,18.8907 L28.3743265,18.8907 C28.5638459,18.8907 28.7275827,18.9099498 28.8655417,18.94845 C29.0035008,18.9869502 29.1174198,19.0425996 29.2073022,19.1154 C29.2971845,19.1882004 29.3637244,19.2760495 29.4069237,19.37895 C29.450123,19.4818505 29.4717223,19.5969994 29.4717223,19.7244 C29.4717223,19.8308005 29.4550002,19.9301995 29.4215556,20.0226 C29.388111,20.1150005 29.3396867,20.1979496 29.2762813,20.27145 C29.2128759,20.3449504 29.1355364,20.4075997 29.0442605,20.4594 C28.9529846,20.5112003 28.8495169,20.5503999 28.7338542,20.577 C28.7840212,20.6064001 28.8286133,20.6490997 28.867632,20.7051 L29.7413681,21.9 L29.3818403,21.9 C29.3079835,21.9 29.2536368,21.8713003 29.2187987,21.8139 L28.4412153,20.7387 C28.4175254,20.7050998 28.3917456,20.6809501 28.3638751,20.66625 C28.3360046,20.6515499 28.2941994,20.6442 28.2384584,20.6442 L27.9311876,20.6442 Z M27.9311876,20.3481 L28.355514,20.3481 C28.4739636,20.3481 28.5781281,20.3337501 28.6680105,20.30505 C28.7578929,20.2763499 28.8331421,20.2357503 28.8937605,20.18325 C28.9543788,20.1307497 29.0000161,20.0681004 29.0306737,19.9953 C29.0613312,19.9224996 29.0766598,19.8420004 29.0766598,19.7538 C29.0766598,19.5745991 29.0177842,19.4395005 28.9000313,19.3485 C28.7822784,19.2574995 28.6070452,19.212 28.3743265,19.212 L27.9311876,19.212 L27.9311876,20.3481 Z M32.5017292,18.8907 L32.5017292,19.2225 L31.0636181,19.2225 L31.0636181,20.2221 L32.2279029,20.2221 L32.2279029,20.5413 L31.0636181,20.5413 L31.0636181,21.5682 L32.5017292,21.5682 L32.5017292,21.9 L30.656014,21.9 L30.656014,18.8907 L32.5017292,18.8907 Z M35.0969584,19.3611 C35.0844167,19.3821001 35.0711784,19.3978499 35.0572431,19.40835 C35.0433079,19.4188501 35.0251923,19.4241 35.0028959,19.4241 C34.979206,19.4241 34.9516843,19.4122001 34.9203299,19.3884 C34.8889756,19.3645999 34.8492607,19.3383501 34.8011841,19.30965 C34.7531075,19.2809499 34.695277,19.2547001 34.6276911,19.2309 C34.5601051,19.2070999 34.4782367,19.1952 34.3820834,19.1952 C34.2915043,19.1952 34.2113777,19.2074499 34.1417015,19.23195 C34.0720252,19.2564501 34.0138464,19.2896998 33.9671633,19.3317 C33.9204802,19.3737002 33.8852942,19.4230497 33.8616043,19.47975 C33.8379143,19.5364503 33.8260695,19.5976997 33.8260695,19.6635 C33.8260695,19.7475004 33.8466237,19.8171497 33.8877327,19.87245 C33.9288417,19.9277503 33.9831884,19.9749998 34.0507744,20.0142 C34.1183604,20.0534002 34.1950031,20.0873499 34.2807049,20.11605 C34.3664068,20.1447501 34.4541976,20.1744998 34.5440799,20.2053 C34.6339623,20.2361002 34.7217531,20.2707498 34.8074549,20.30925 C34.8931568,20.3477502 34.9697995,20.3963997 35.0373855,20.4552 C35.1049715,20.5140003 35.1593182,20.5860996 35.2004272,20.6715 C35.2415362,20.7569004 35.2620904,20.8618994 35.2620904,20.9865 C35.2620904,21.1181007 35.2397943,21.2416494 35.1952015,21.35715 C35.1506087,21.4726506 35.0854623,21.5730996 34.9997605,21.6585 C34.9140587,21.7439004 34.8088491,21.8110998 34.6841286,21.8601 C34.559408,21.9091002 34.4176189,21.9336 34.258757,21.9336 C34.065057,21.9336 33.8884303,21.8982504 33.7288716,21.82755 C33.5693129,21.7568496 33.4330979,21.6613006 33.3202223,21.5409 L33.4372779,21.3477 C33.4484261,21.3322999 33.4620127,21.3193501 33.4780383,21.30885 C33.4940638,21.2983499 33.511831,21.2931 33.5313404,21.2931 C33.5606044,21.2931 33.5940485,21.3088498 33.6316737,21.34035 C33.6692989,21.3718502 33.7163297,21.4064998 33.7727674,21.4443 C33.8292052,21.4821002 33.897487,21.5167498 33.9776147,21.54825 C34.0577424,21.5797502 34.1556361,21.5955 34.2712987,21.5955 C34.367452,21.5955 34.4531525,21.5822001 34.5284029,21.5556 C34.6036532,21.5289999 34.6674061,21.4915502 34.7196633,21.44325 C34.7719205,21.3949498 34.8119837,21.3372003 34.8398543,21.27 C34.8677248,21.2027997 34.8816598,21.1279004 34.8816598,21.0453 C34.8816598,20.9542995 34.8611056,20.8797503 34.8199966,20.82165 C34.7788876,20.7635497 34.7248893,20.7149002 34.6580001,20.6757 C34.5911109,20.6364998 34.5148165,20.6032501 34.4291147,20.57595 C34.3434129,20.5486499 34.2556221,20.5206501 34.1657397,20.49195 C34.0758573,20.4632499 33.9880665,20.4300002 33.9023647,20.3922 C33.8166629,20.3543998 33.7403685,20.3054003 33.6734793,20.2452 C33.60659,20.1849997 33.5525917,20.1097505 33.5114827,20.01945 C33.4703737,19.9291495 33.4498195,19.8175007 33.4498195,19.6845 C33.4498195,19.5780995 33.4703737,19.4752005 33.5114827,19.3758 C33.5525917,19.2763995 33.612164,19.1882004 33.6902015,19.1112 C33.7682389,19.0341996 33.8647391,18.9726002 33.9797049,18.9264 C34.0946708,18.8801998 34.2267054,18.8571 34.3758126,18.8571 C34.5430356,18.8571 34.6956244,18.8836997 34.8335834,18.9369 C34.9715424,18.9901003 35.0920806,19.0670995 35.1952015,19.1679 L35.0969584,19.3611 Z M36.7013959,20.7744 L36.7013959,21.9 L36.2979723,21.9 L36.2979723,18.8907 L37.1821598,18.8907 C37.3716793,18.8907 37.5364612,18.9127498 37.6765105,18.95685 C37.8165598,19.0009502 37.9325691,19.0635996 38.0245418,19.1448 C38.1165144,19.2260004 38.1851445,19.3239994 38.2304341,19.4388 C38.2757237,19.5536006 38.2983681,19.6816993 38.2983681,19.8231 C38.2983681,19.9631007 38.2739818,20.0911994 38.2252084,20.2074 C38.176435,20.3236006 38.1050179,20.4236996 38.010955,20.5077 C37.916892,20.5917004 37.800186,20.6571498 37.6608334,20.70405 C37.5214809,20.7509502 37.3619246,20.7744 37.1821598,20.7744 L36.7013959,20.7744 Z M36.7013959,20.451 L37.1821598,20.451 C37.2978224,20.451 37.3998966,20.4356002 37.4883855,20.4048 C37.5768744,20.3739998 37.6510785,20.3309503 37.7110001,20.27565 C37.7709217,20.2203497 37.8162106,20.1542004 37.8468681,20.0772 C37.8775257,20.0001996 37.8928543,19.9155005 37.8928543,19.8231 C37.8928543,19.631299 37.8339787,19.4815005 37.7162258,19.3737 C37.5984729,19.2658995 37.4204527,19.212 37.1821598,19.212 L36.7013959,19.212 L36.7013959,20.451 Z M42.0704237,20.3964 C42.0704237,20.6218011 42.0348893,20.8286491 41.9638195,21.01695 C41.8927497,21.2052509 41.7924174,21.3672993 41.6628195,21.5031 C41.5332217,21.6389007 41.3774975,21.7442496 41.1956425,21.81915 C41.0137874,21.8940504 40.8127743,21.9315 40.5925973,21.9315 C40.3724203,21.9315 40.1717556,21.8940504 39.9905973,21.81915 C39.809439,21.7442496 39.6540632,21.6389007 39.5244654,21.5031 C39.3948675,21.3672993 39.2945352,21.2052509 39.2234654,21.01695 C39.1523956,20.8286491 39.1168612,20.6218011 39.1168612,20.3964 C39.1168612,20.1709989 39.1523956,19.9641509 39.2234654,19.77585 C39.2945352,19.5875491 39.3948675,19.4251507 39.5244654,19.28865 C39.6540632,19.1521493 39.809439,19.0461004 39.9905973,18.9705 C40.1717556,18.8948996 40.3724203,18.8571 40.5925973,18.8571 C40.8127743,18.8571 41.0137874,18.8948996 41.1956425,18.9705 C41.3774975,19.0461004 41.5332217,19.1521493 41.6628195,19.28865 C41.7924174,19.4251507 41.8927497,19.5875491 41.9638195,19.77585 C42.0348893,19.9641509 42.0704237,20.1709989 42.0704237,20.3964 Z M41.6544584,20.3964 C41.6544584,20.2115991 41.6293754,20.0457007 41.5792084,19.8987 C41.5290415,19.7516993 41.4579728,19.6274505 41.3660001,19.52595 C41.2740274,19.4244495 41.1625471,19.3464003 41.0315557,19.2918 C40.9005643,19.2371997 40.7542463,19.2099 40.5925973,19.2099 C40.4323419,19.2099 40.2867207,19.2371997 40.1557293,19.2918 C40.0247379,19.3464003 39.9129091,19.4244495 39.8202397,19.52595 C39.7275702,19.6274505 39.6561531,19.7516993 39.6059862,19.8987 C39.5558193,20.0457007 39.5307362,20.2115991 39.5307362,20.3964 C39.5307362,20.5812009 39.5558193,20.7467493 39.6059862,20.89305 C39.6561531,21.0393507 39.7275702,21.1632495 39.8202397,21.26475 C39.9129091,21.3662505 40.0247379,21.4439497 40.1557293,21.49785 C40.2867207,21.5517503 40.4323419,21.5787 40.5925973,21.5787 C40.7542463,21.5787 40.9005643,21.5517503 41.0315557,21.49785 C41.1625471,21.4439497 41.2740274,21.3662505 41.3660001,21.26475 C41.4579728,21.1632495 41.5290415,21.0393507 41.5792084,20.89305 C41.6293754,20.7467493 41.6544584,20.5812009 41.6544584,20.3964 Z M43.3111529,18.8907 C43.3473845,18.8907 43.3742095,18.89525 43.3916286,18.90435 C43.4090476,18.91345 43.4289051,18.9319999 43.4512015,18.96 L45.1861321,21.228 C45.1819515,21.1915998 45.1791645,21.1562502 45.1777709,21.12195 C45.1763774,21.0876498 45.1756807,21.0544002 45.1756807,21.0222 L45.1756807,18.8907 L45.5310279,18.8907 L45.5310279,21.9 L45.3261807,21.9 C45.2941296,21.9 45.2673046,21.8944001 45.245705,21.8832 C45.2241053,21.8719999 45.2028544,21.8531001 45.1819515,21.8265 L43.4491112,19.5606 C43.4518983,19.5956002 43.4539885,19.6298998 43.4553821,19.6635 C43.4567756,19.6971002 43.4574723,19.7278999 43.4574723,19.7559 L43.4574723,21.9 L43.1021251,21.9 L43.1021251,18.8907 L43.3111529,18.8907 Z M48.2746668,19.3611 C48.2621251,19.3821001 48.2488868,19.3978499 48.2349515,19.40835 C48.2210162,19.4188501 48.2029007,19.4241 48.1806043,19.4241 C48.1569143,19.4241 48.1293926,19.4122001 48.0980383,19.3884 C48.066684,19.3645999 48.0269691,19.3383501 47.9788925,19.30965 C47.9308158,19.2809499 47.8729854,19.2547001 47.8053994,19.2309 C47.7378134,19.2070999 47.655945,19.1952 47.5597918,19.1952 C47.4692126,19.1952 47.3890861,19.2074499 47.3194098,19.23195 C47.2497336,19.2564501 47.1915547,19.2896998 47.1448716,19.3317 C47.0981885,19.3737002 47.0630025,19.4230497 47.0393126,19.47975 C47.0156227,19.5364503 47.0037779,19.5976997 47.0037779,19.6635 C47.0037779,19.7475004 47.0243321,19.8171497 47.0654411,19.87245 C47.1065501,19.9277503 47.1608968,19.9749998 47.2284828,20.0142 C47.2960687,20.0534002 47.3727115,20.0873499 47.4584133,20.11605 C47.5441151,20.1447501 47.6319059,20.1744998 47.7217883,20.2053 C47.8116707,20.2361002 47.8994615,20.2707498 47.9851633,20.30925 C48.0708651,20.3477502 48.1475079,20.3963997 48.2150939,20.4552 C48.2826798,20.5140003 48.3370265,20.5860996 48.3781355,20.6715 C48.4192445,20.7569004 48.4397987,20.8618994 48.4397987,20.9865 C48.4397987,21.1181007 48.4175027,21.2416494 48.3729098,21.35715 C48.328317,21.4726506 48.2631707,21.5730996 48.1774689,21.6585 C48.091767,21.7439004 47.9865575,21.8110998 47.8618369,21.8601 C47.7371164,21.9091002 47.5953273,21.9336 47.4364654,21.9336 C47.2427653,21.9336 47.0661386,21.8982504 46.90658,21.82755 C46.7470213,21.7568496 46.6108062,21.6613006 46.4979307,21.5409 L46.6149862,21.3477 C46.6261344,21.3322999 46.6397211,21.3193501 46.6557466,21.30885 C46.6717722,21.2983499 46.6895394,21.2931 46.7090487,21.2931 C46.7383128,21.2931 46.7717569,21.3088498 46.8093821,21.34035 C46.8470072,21.3718502 46.894038,21.4064998 46.9504758,21.4443 C47.0069136,21.4821002 47.0751953,21.5167498 47.155323,21.54825 C47.2354507,21.5797502 47.3333444,21.5955 47.4490071,21.5955 C47.5451603,21.5955 47.6308608,21.5822001 47.7061112,21.5556 C47.7813616,21.5289999 47.8451144,21.4915502 47.8973716,21.44325 C47.9496288,21.3949498 47.9896921,21.3372003 48.0175626,21.27 C48.0454331,21.2027997 48.0593682,21.1279004 48.0593682,21.0453 C48.0593682,20.9542995 48.038814,20.8797503 47.997705,20.82165 C47.956596,20.7635497 47.9025977,20.7149002 47.8357084,20.6757 C47.7688192,20.6364998 47.6925248,20.6032501 47.606823,20.57595 C47.5211212,20.5486499 47.4333304,20.5206501 47.343448,20.49195 C47.2535656,20.4632499 47.1657748,20.4300002 47.080073,20.3922 C46.9943712,20.3543998 46.9180768,20.3054003 46.8511876,20.2452 C46.7842984,20.1849997 46.7303001,20.1097505 46.6891911,20.01945 C46.6480821,19.9291495 46.6275279,19.8175007 46.6275279,19.6845 C46.6275279,19.5780995 46.6480821,19.4752005 46.6891911,19.3758 C46.7303001,19.2763995 46.7898724,19.1882004 46.8679098,19.1112 C46.9459473,19.0341996 47.0424475,18.9726002 47.1574133,18.9264 C47.2723792,18.8801998 47.4044137,18.8571 47.5535209,18.8571 C47.720744,18.8571 47.8733328,18.8836997 48.0112918,18.9369 C48.1492508,18.9901003 48.269789,19.0670995 48.3729098,19.1679 L48.2746668,19.3611 Z M49.914639,21.9 L49.5091251,21.9 L49.5091251,18.8907 L49.914639,18.8907 L49.914639,21.9 Z M51.1950835,21.9 L51.1950835,18.8907 L52.1503404,18.8907 C52.3342858,18.8907 52.4927969,18.9088998 52.6258786,18.9453 C52.7589603,18.9817002 52.8683504,19.0334997 52.9540522,19.1007 C53.039754,19.1679003 53.1031585,19.2501495 53.1442675,19.34745 C53.1853765,19.4447505 53.2059307,19.5542994 53.2059307,19.6761 C53.2059307,19.7503004 53.1944343,19.8216997 53.1714411,19.8903 C53.1484479,19.9589003 53.1136103,20.0225997 53.0669272,20.0814 C53.0202441,20.1402003 52.9617169,20.1926998 52.8913439,20.2389 C52.8209708,20.2851002 52.7384057,20.3228999 52.643646,20.3523 C52.8624295,20.3957002 53.0275598,20.4747994 53.1390418,20.5896 C53.2505238,20.7044006 53.306264,20.8555991 53.306264,21.0432 C53.306264,21.1706006 53.2829228,21.2867995 53.2362397,21.3918 C53.1895566,21.4968005 53.1212749,21.5870996 53.0313925,21.6627 C52.9415101,21.7383004 52.8314232,21.7967498 52.7011286,21.83805 C52.570834,21.8793502 52.4220774,21.9 52.2548543,21.9 L51.1950835,21.9 Z M51.6005974,20.5287 L51.6005974,21.5766 L52.2485835,21.5766 C52.3642461,21.5766 52.4635333,21.5633001 52.546448,21.5367 C52.6293628,21.5100999 52.6976445,21.4726502 52.7512953,21.42435 C52.804946,21.3760498 52.8443125,21.3186503 52.869396,21.25215 C52.8944794,21.1856497 52.907021,21.1125004 52.907021,21.0327 C52.907021,20.8772992 52.8523259,20.7544505 52.7429342,20.66415 C52.6335424,20.5738495 52.4680637,20.5287 52.2464932,20.5287 L51.6005974,20.5287 Z M51.6005974,20.2389 L52.1357085,20.2389 C52.2499776,20.2389 52.3489164,20.2263001 52.4325279,20.2011 C52.5161394,20.1758999 52.5854663,20.1409002 52.6405105,20.0961 C52.6955548,20.0512998 52.7363148,19.9970503 52.7627918,19.93335 C52.7892688,19.8696497 52.8025071,19.8000004 52.8025071,19.7244 C52.8025071,19.5479991 52.7495539,19.4185004 52.643646,19.3359 C52.537738,19.2532996 52.3733045,19.212 52.1503404,19.212 L51.6005974,19.212 L51.6005974,20.2389 Z M54.7831946,21.5577 L56.0791668,21.5577 L56.0791668,21.9 L54.3776807,21.9 L54.3776807,18.8907 L54.7831946,18.8907 L54.7831946,21.5577 Z M58.8499793,18.8907 L58.8499793,19.2225 L57.4118682,19.2225 L57.4118682,20.2221 L58.5761529,20.2221 L58.5761529,20.5413 L57.4118682,20.5413 L57.4118682,21.5682 L58.8499793,21.5682 L58.8499793,21.9 L57.004264,21.9 L57.004264,18.8907 L58.8499793,18.8907 Z M63.6600071,21.9 L63.3464654,21.9 C63.3102338,21.9 63.2809702,21.8909001 63.2586738,21.8727 C63.2363774,21.8544999 63.2196553,21.8314001 63.2085071,21.8034 L62.9284099,21.0768 L61.5843613,21.0768 L61.304264,21.8034 C61.2945094,21.8286001 61.2777873,21.8509999 61.2540974,21.8706 C61.2304074,21.8902001 61.2011438,21.9 61.1663057,21.9 L60.852764,21.9 L62.0504932,18.8907 L62.4622779,18.8907 L63.6600071,21.9 Z M61.6972363,20.7828 L62.8155349,20.7828 L62.3452224,19.5585 C62.3145648,19.4828996 62.2846045,19.3884006 62.2553404,19.275 C62.2400117,19.3324003 62.2250315,19.3852498 62.2103995,19.43355 C62.1957674,19.4818502 62.181484,19.5241998 62.1675488,19.5606 L61.6972363,20.7828 Z M67.1122502,20.3964 C67.1122502,20.6218011 67.0767158,20.8268991 67.005646,21.0117 C66.9345762,21.1965009 66.8342439,21.3546993 66.704646,21.4863 C66.5750481,21.6179007 66.4196724,21.7197496 66.2385141,21.79185 C66.0573557,21.8639504 65.8566911,21.9 65.6365141,21.9 L64.5161252,21.9 L64.5161252,18.8907 L65.6365141,18.8907 C65.8566911,18.8907 66.0573557,18.9267496 66.2385141,18.99885 C66.4196724,19.0709504 66.5750481,19.1731493 66.704646,19.30545 C66.8342439,19.4377507 66.9345762,19.5962991 67.005646,19.7811 C67.0767158,19.9659009 67.1122502,20.1709989 67.1122502,20.3964 Z M66.6962849,20.3964 C66.6962849,20.2115991 66.6712018,20.0464007 66.6210349,19.9008 C66.570868,19.7551993 66.4997992,19.6320005 66.4078266,19.5312 C66.3158539,19.4303995 66.2043735,19.3534003 66.0733821,19.3002 C65.9423907,19.2469997 65.7967695,19.2204 65.6365141,19.2204 L64.9237293,19.2204 L64.9237293,21.5703 L65.6365141,21.5703 C65.7967695,21.5703 65.9423907,21.5437003 66.0733821,21.4905 C66.2043735,21.4372997 66.3158539,21.3606505 66.4078266,21.26055 C66.4997992,21.1604495 66.570868,21.0376007 66.6210349,20.892 C66.6712018,20.7463993 66.6962849,20.5812009 66.6962849,20.3964 Z M67.6861807,18.8907 L68.0101738,18.8907 C68.0464054,18.8907 68.075669,18.8997999 68.0979654,18.918 C68.1202619,18.9362001 68.1369839,18.9592999 68.1481321,18.9873 L68.9946946,21.1104 C69.014204,21.1580002 69.0319712,21.2097997 69.0479967,21.2658 C69.0640222,21.3218003 69.0796992,21.3798997 69.0950279,21.4401 C69.1075697,21.3798997 69.1211563,21.3218003 69.1357884,21.2658 C69.1504204,21.2097997 69.1674908,21.1580002 69.1870002,21.1104 L70.0293821,18.9873 C70.0391368,18.9634999 70.0558588,18.9414501 70.0795488,18.92115 C70.1032387,18.9008499 70.1325023,18.8907 70.1673404,18.8907 L70.4934238,18.8907 L69.2727016,21.9 L68.9069029,21.9 L67.6861807,18.8907 Z M71.8344863,21.9 L71.4289724,21.9 L71.4289724,18.8907 L71.8344863,18.8907 L71.8344863,21.9 Z M74.6491946,19.3611 C74.6366529,19.3821001 74.6234146,19.3978499 74.6094794,19.40835 C74.5955441,19.4188501 74.5774285,19.4241 74.5551321,19.4241 C74.5314422,19.4241 74.5039205,19.4122001 74.4725662,19.3884 C74.4412118,19.3645999 74.401497,19.3383501 74.3534203,19.30965 C74.3053437,19.2809499 74.2475133,19.2547001 74.1799273,19.2309 C74.1123413,19.2070999 74.0304729,19.1952 73.9343196,19.1952 C73.8437405,19.1952 73.763614,19.2074499 73.6939377,19.23195 C73.6242614,19.2564501 73.5660826,19.2896998 73.5193995,19.3317 C73.4727164,19.3737002 73.4375304,19.4230497 73.4138405,19.47975 C73.3901505,19.5364503 73.3783057,19.5976997 73.3783057,19.6635 C73.3783057,19.7475004 73.3988599,19.8171497 73.4399689,19.87245 C73.4810779,19.9277503 73.5354246,19.9749998 73.6030106,20.0142 C73.6705966,20.0534002 73.7472393,20.0873499 73.8329412,20.11605 C73.918643,20.1447501 74.0064338,20.1744998 74.0963162,20.2053 C74.1861986,20.2361002 74.2739893,20.2707498 74.3596912,20.30925 C74.445393,20.3477502 74.5220357,20.3963997 74.5896217,20.4552 C74.6572077,20.5140003 74.7115544,20.5860996 74.7526634,20.6715 C74.7937724,20.7569004 74.8143266,20.8618994 74.8143266,20.9865 C74.8143266,21.1181007 74.7920305,21.2416494 74.7474377,21.35715 C74.7028449,21.4726506 74.6376985,21.5730996 74.5519967,21.6585 C74.4662949,21.7439004 74.3610853,21.8110998 74.2363648,21.8601 C74.1116442,21.9091002 73.9698551,21.9336 73.8109932,21.9336 C73.6172932,21.9336 73.4406665,21.8982504 73.2811078,21.82755 C73.1215492,21.7568496 72.9853341,21.6613006 72.8724585,21.5409 L72.9895141,21.3477 C73.0006623,21.3322999 73.0142489,21.3193501 73.0302745,21.30885 C73.0463,21.2983499 73.0640672,21.2931 73.0835766,21.2931 C73.1128406,21.2931 73.1462847,21.3088498 73.1839099,21.34035 C73.2215351,21.3718502 73.2685659,21.4064998 73.3250037,21.4443 C73.3814414,21.4821002 73.4497232,21.5167498 73.5298509,21.54825 C73.6099786,21.5797502 73.7078723,21.5955 73.8235349,21.5955 C73.9196882,21.5955 74.0053887,21.5822001 74.0806391,21.5556 C74.1558895,21.5289999 74.2196423,21.4915502 74.2718995,21.44325 C74.3241567,21.3949498 74.36422,21.3372003 74.3920905,21.27 C74.419961,21.2027997 74.433896,21.1279004 74.433896,21.0453 C74.433896,20.9542995 74.4133418,20.8797503 74.3722328,20.82165 C74.3311238,20.7635497 74.2771255,20.7149002 74.2102363,20.6757 C74.1433471,20.6364998 74.0670527,20.6032501 73.9813509,20.57595 C73.8956491,20.5486499 73.8078583,20.5206501 73.7179759,20.49195 C73.6280935,20.4632499 73.5403027,20.4300002 73.4546009,20.3922 C73.3688991,20.3543998 73.2926047,20.3054003 73.2257155,20.2452 C73.1588262,20.1849997 73.1048279,20.1097505 73.0637189,20.01945 C73.0226099,19.9291495 73.0020557,19.8175007 73.0020557,19.6845 C73.0020557,19.5780995 73.0226099,19.4752005 73.0637189,19.3758 C73.1048279,19.2763995 73.1644003,19.1882004 73.2424377,19.1112 C73.3204751,19.0341996 73.4169753,18.9726002 73.5319412,18.9264 C73.646907,18.8801998 73.7789416,18.8571 73.9280488,18.8571 C74.0952719,18.8571 74.2478606,18.8836997 74.3858196,18.9369 C74.5237787,18.9901003 74.6443168,19.0670995 74.7474377,19.1679 L74.6491946,19.3611 Z M78.5905627,20.3964 C78.5905627,20.6218011 78.5550283,20.8286491 78.4839585,21.01695 C78.4128887,21.2052509 78.3125564,21.3672993 78.1829585,21.5031 C78.0533607,21.6389007 77.8976365,21.7442496 77.7157814,21.81915 C77.5339264,21.8940504 77.3329133,21.9315 77.1127363,21.9315 C76.8925593,21.9315 76.6918946,21.8940504 76.5107363,21.81915 C76.329578,21.7442496 76.1742022,21.6389007 76.0446044,21.5031 C75.9150065,21.3672993 75.8146742,21.2052509 75.7436044,21.01695 C75.6725346,20.8286491 75.6370002,20.6218011 75.6370002,20.3964 C75.6370002,20.1709989 75.6725346,19.9641509 75.7436044,19.77585 C75.8146742,19.5875491 75.9150065,19.4251507 76.0446044,19.28865 C76.1742022,19.1521493 76.329578,19.0461004 76.5107363,18.9705 C76.6918946,18.8948996 76.8925593,18.8571 77.1127363,18.8571 C77.3329133,18.8571 77.5339264,18.8948996 77.7157814,18.9705 C77.8976365,19.0461004 78.0533607,19.1521493 78.1829585,19.28865 C78.3125564,19.4251507 78.4128887,19.5875491 78.4839585,19.77585 C78.5550283,19.9641509 78.5905627,20.1709989 78.5905627,20.3964 Z M78.1745974,20.3964 C78.1745974,20.2115991 78.1495143,20.0457007 78.0993474,19.8987 C78.0491805,19.7516993 77.9781118,19.6274505 77.8861391,19.52595 C77.7941664,19.4244495 77.682686,19.3464003 77.5516946,19.2918 C77.4207032,19.2371997 77.2743853,19.2099 77.1127363,19.2099 C76.9524809,19.2099 76.8068596,19.2371997 76.6758682,19.2918 C76.5448769,19.3464003 76.4330481,19.4244495 76.3403787,19.52595 C76.2477092,19.6274505 76.1762921,19.7516993 76.1261252,19.8987 C76.0759583,20.0457007 76.0508752,20.2115991 76.0508752,20.3964 C76.0508752,20.5812009 76.0759583,20.7467493 76.1261252,20.89305 C76.1762921,21.0393507 76.2477092,21.1632495 76.3403787,21.26475 C76.4330481,21.3662505 76.5448769,21.4439497 76.6758682,21.49785 C76.8068596,21.5517503 76.9524809,21.5787 77.1127363,21.5787 C77.2743853,21.5787 77.4207032,21.5517503 77.5516946,21.49785 C77.682686,21.4439497 77.7941664,21.3662505 77.8861391,21.26475 C77.9781118,21.1632495 78.0491805,21.0393507 78.0993474,20.89305 C78.1495143,20.7467493 78.1745974,20.5812009 78.1745974,20.3964 Z M80.0674933,20.6442 L80.0674933,21.9 L79.6640696,21.9 L79.6640696,18.8907 L80.5106321,18.8907 C80.7001516,18.8907 80.8638884,18.9099498 81.0018474,18.94845 C81.1398064,18.9869502 81.2537254,19.0425996 81.3436078,19.1154 C81.4334902,19.1882004 81.5000301,19.2760495 81.5432294,19.37895 C81.5864287,19.4818505 81.608028,19.5969994 81.608028,19.7244 C81.608028,19.8308005 81.5913059,19.9301995 81.5578613,20.0226 C81.5244167,20.1150005 81.4759924,20.1979496 81.412587,20.27145 C81.3491816,20.3449504 81.2718421,20.4075997 81.1805662,20.4594 C81.0892903,20.5112003 80.9858225,20.5503999 80.8701599,20.577 C80.9203268,20.6064001 80.964919,20.6490997 81.0039377,20.7051 L81.8776738,21.9 L81.518146,21.9 C81.4442892,21.9 81.3899425,21.8713003 81.3551044,21.8139 L80.577521,20.7387 C80.5538311,20.7050998 80.5280513,20.6809501 80.5001808,20.66625 C80.4723102,20.6515499 80.4305051,20.6442 80.3747641,20.6442 L80.0674933,20.6442 Z M80.0674933,20.3481 L80.4918196,20.3481 C80.6102693,20.3481 80.7144338,20.3337501 80.8043162,20.30505 C80.8941986,20.2763499 80.9694478,20.2357503 81.0300662,20.18325 C81.0906845,20.1307497 81.1363218,20.0681004 81.1669794,19.9953 C81.1976369,19.9224996 81.2129655,19.8420004 81.2129655,19.7538 C81.2129655,19.5745991 81.1540899,19.4395005 81.036337,19.3485 C80.9185841,19.2574995 80.7433509,19.212 80.5106321,19.212 L80.0674933,19.212 L80.0674933,20.3481 Z M83.946153,20.703 L83.946153,21.9 L83.5427294,21.9 L83.5427294,20.703 L82.4453335,18.8907 L82.8006808,18.8907 C82.8369124,18.8907 82.8654793,18.8997999 82.8863822,18.918 C82.907285,18.9362001 82.9254006,18.9585999 82.9407294,18.9852 L83.6263405,20.1549 C83.654211,20.2039002 83.6775522,20.2500998 83.6963648,20.2935 C83.7151774,20.3369002 83.7322478,20.3795998 83.7475766,20.4216 C83.7629054,20.3781998 83.7796274,20.3348002 83.7977433,20.2914 C83.8158591,20.2479998 83.8388519,20.2025002 83.8667224,20.1549 L84.5502433,18.9852 C84.562785,18.9627999 84.5798554,18.9414501 84.6014551,18.92115 C84.6230547,18.9008499 84.6512732,18.8907 84.6861113,18.8907 L85.0456391,18.8907 L83.946153,20.703 Z" id="ETHICAL-&amp;-RESPONSIBL"></path>
                    </g>
                </g>
                <path d="M92.2471561,24.9698523 C91.1858501,23.5490503 90.4568241,22.1911207 90.1232691,20.9182064 L88.2319729,22.7339872 C88.1430338,22.8193752 88.0012588,22.8169673 87.9153095,22.7286091 C87.8293602,22.6402509 87.8317839,22.4994019 87.920723,22.414014 L90.0969658,20.3246637 C90.2244073,20.2023107 90.4376259,20.2685313 90.4722284,20.4412113 C90.7328929,21.7420311 91.4621332,23.1656862 92.5826367,24.6722055 C92.612363,24.6660859 92.6431663,24.6628694 92.6747294,24.6628694 C92.922963,24.6628694 93.1241961,24.8618203 93.1241961,25.1072387 C93.1241961,25.3526571 92.922963,25.551608 92.6747294,25.551608 C92.4264958,25.551608 92.2252627,25.3526571 92.2252627,25.1072387 C92.2252627,25.0592905 92.2329439,25.0131159 92.2471561,24.9698523 Z M95.1791506,9.41920833 C95.1518332,9.13683675 95.1056176,8.86449733 95.0413088,8.60193995 C94.7588986,7.44892713 94.1397329,6.51381453 93.2823005,5.77256608 C92.8589053,5.40654183 92.4046539,5.11184085 91.9507083,4.88262648 C91.7922583,4.80261906 91.6454807,4.73662478 91.5143104,4.68386721 C91.4370184,4.65277987 91.3831186,4.63331588 91.3475154,4.62152538 C91.3188926,4.61085268 91.260429,4.59093471 91.1749385,4.5648148 C91.0303138,4.52062763 90.8642185,4.47628706 90.6794815,4.43482198 C89.4529867,4.1595295 88.1490825,4.15074692 86.9346367,4.58181155 C85.3663391,5.13847507 84.1374171,6.37625035 83.3713819,8.45877553 C82.6390399,10.4496512 81.5334333,12.1408751 80.1549251,13.5539525 C79.2390777,14.4927669 78.257884,15.2534891 77.2761151,15.8511768 C76.9318521,16.0607594 76.611757,16.2351286 76.3238779,16.3761451 C76.2225545,16.4257779 76.1323153,16.4677606 76.0541654,16.502324 C76.0064093,16.5234451 75.9727604,16.5376041 75.9542236,16.5450307 C75.8395169,16.5909869 75.7090291,16.535861 75.6627707,16.4219035 C75.6165124,16.3079461 75.6720008,16.1783105 75.7867074,16.1323543 C75.8003865,16.1268739 75.8291561,16.1147681 75.8720074,16.0958162 C75.9448698,16.0635914 76.029805,16.0240763 76.1258044,15.9770513 C76.401705,15.8419025 76.7098214,15.6740586 77.0420939,15.4717756 C77.9932835,14.8927043 78.9450483,14.1547983 79.8332955,13.2442763 C81.169625,11.8744353 82.2408196,10.2358507 82.9506975,8.30604394 C83.7618469,6.10087208 85.0886311,4.76452965 86.7839416,4.16278323 C88.0901121,3.69916112 89.4759358,3.70849547 90.7781868,4.00079178 C90.9743595,4.04482365 91.151403,4.09208696 91.306598,4.13950367 C91.4009993,4.16834609 91.4680118,4.19117659 91.4958691,4.20178093 C91.5318948,4.21349499 91.5953642,4.23641466 91.6823891,4.27141665 C91.8250803,4.32880797 91.9834626,4.40002003 92.1536464,4.48595228 C92.6386545,4.73085125 93.1233568,5.04530763 93.5763183,5.43689185 C94.5000495,6.23545547 95.1707461,7.24839423 95.4765051,8.49673413 C95.5452309,8.77732507 95.594714,9.06779068 95.6241711,9.36822291 C95.7840116,9.43632616 95.8959074,9.59349342 95.8959074,9.77649894 C95.8959074,10.0219173 95.6946743,10.2208682 95.4464407,10.2208682 C95.1982071,10.2208682 94.996974,10.0219173 94.996974,9.77649894 C94.996974,9.63005931 95.0686217,9.50016412 95.1791506,9.41920833 Z M100.648518,14.309355 C100.685707,14.2995051 100.724798,14.2942532 100.76513,14.2942532 C101.013364,14.2942532 101.214597,14.4932041 101.214597,14.7386224 C101.214597,14.9840408 101.013364,15.1829917 100.76513,15.1829917 C100.516896,15.1829917 100.315663,14.9840408 100.315663,14.7386224 C100.315663,14.6986968 100.320989,14.660001 100.330977,14.6231915 C99.5126014,13.7919035 98.4342721,13.2135002 97.503258,13.089151 C97.3696214,13.0713021 97.2820488,12.9410349 97.3166476,12.8115617 C97.3253451,12.7790145 97.3412564,12.7138212 97.3620004,12.6190038 C97.3969431,12.4592856 97.4319737,12.2759418 97.4647175,12.0720038 C97.6862907,10.691982 97.6893196,9.22133462 97.3302822,7.84960043 C96.9751835,6.49291462 96.289514,5.36278643 95.2147465,4.52674754 C95.1173638,4.45099561 95.1002324,4.31115789 95.1764823,4.21441125 C95.2527323,4.1176646 95.3934893,4.10064503 95.490872,4.17639696 C96.6481727,5.07663667 97.3852571,6.29150752 97.763762,7.73761876 C98.140655,9.17757173 98.1375059,10.7065692 97.9070212,12.1420944 C97.8745885,12.3440944 97.8399049,12.5271938 97.8050361,12.6888403 C98.7751805,12.8845389 99.8317743,13.4807324 100.648518,14.309355 Z M95.6201794,16.4256343 C95.5450983,16.5674503 95.3948336,16.6642226 95.2217073,16.6642226 C94.9734737,16.6642226 94.7722406,16.4652717 94.7722406,16.2198533 C94.7722406,15.974435 94.9734737,15.7754841 95.2217073,15.7754841 C95.3804744,15.7754841 95.520015,15.8568694 95.5999759,15.9797446 C97.0255383,16.0202482 98.2624886,16.83761 99.1672077,18.6192788 C99.3326021,18.9449835 99.5050434,19.2545231 99.6837885,19.5483025 C100.262621,20.4996517 100.88123,21.2479328 101.498036,21.8155915 C101.71232,22.012801 101.910506,22.1731443 102.087385,22.2993791 C102.191157,22.3734384 102.263177,22.4188847 102.298215,22.4384602 C102.40602,22.4986904 102.444265,22.6343391 102.383639,22.7414399 C102.323013,22.8485407 102.186473,22.8865367 102.078668,22.8263065 C102.029446,22.7988063 101.943479,22.7445596 101.826069,22.6607664 C101.634312,22.5239138 101.421733,22.3519266 101.193654,22.1420205 C100.546565,21.546492 99.9012801,20.7659432 99.3004777,19.7784849 C99.1158288,19.4750023 98.9378572,19.1555353 98.7673176,18.8196987 C97.9429615,17.196289 96.8650707,16.4730694 95.6201794,16.4256343 Z M78.1538017,11.5816278 C78.1460648,11.548963 78.1419728,11.5149112 78.1419728,11.4799145 C78.1419728,11.2344961 78.3432059,11.0355452 78.5914395,11.0355452 C78.8396731,11.0355452 79.0409062,11.2344961 79.0409062,11.4799145 C79.0409062,11.7253328 78.8396731,11.9242837 78.5914395,11.9242837 C78.5461414,11.9242837 78.5024084,11.9176588 78.4611777,11.9053354 C78.2967228,12.0637319 78.1278005,12.2179298 77.9547331,12.3679731 C77.1229603,13.0890904 76.2325221,13.6855879 75.3418676,14.1652146 C75.0298077,14.3332622 74.7397354,14.4748114 74.4789343,14.5907809 C74.3872084,14.6315683 74.3055474,14.6662947 74.2348618,14.6950728 C74.1917508,14.7126246 74.161445,14.7244492 74.1448552,14.7306585 C74.0291139,14.7739785 73.8999383,14.7158823 73.8563334,14.6008969 C73.8127285,14.4859116 73.8712067,14.3575796 73.986948,14.3142595 C73.9995894,14.3095281 74.0259189,14.2992549 74.0650204,14.2833356 C74.1313558,14.2563285 74.208639,14.2234638 74.2959537,14.1846379 C74.5466973,14.0731406 74.8266321,13.9365383 75.1284258,13.7740192 C75.991639,13.3091699 76.8550684,12.7307654 77.6602388,12.0327114 C77.8290147,11.8863887 77.9936436,11.7360384 78.1538017,11.5816278 Z M85.0296552,6.74545257 C85.2603254,6.44742906 85.5148262,6.18729851 85.7911054,5.96355548 C86.1285712,5.69026092 86.4955841,5.47356562 86.887207,5.30933245 C87.8748976,4.89512899 88.9168953,4.83840038 89.8664534,4.98840993 C90.0390632,5.01567852 90.1654023,5.04334543 90.2351345,5.06227617 C90.272072,5.07202359 90.3375528,5.091376 90.4275399,5.12122642 C90.5753737,5.17026569 90.7395474,5.231578 90.916029,5.30608109 C91.4195391,5.51864186 91.9229561,5.79490321 92.3938388,6.14274152 C93.9360103,7.28193472 94.7746375,8.90139648 94.5236004,11.0575595 C94.2024359,13.8160492 92.1033379,17.2338166 87.8777119,21.3962234 C87.7898832,21.4827382 87.6480887,21.482138 87.5610051,21.3948829 C87.4739216,21.3076277 87.4745257,21.1667594 87.5623545,21.0802446 C91.7224954,16.982343 93.7712987,13.6464659 94.0786717,11.006432 C94.3098779,9.02059705 93.5483892,7.55009631 92.1265876,6.49981969 C91.6863454,6.17461536 91.2135573,5.91516227 90.7408623,5.71561036 C90.5756721,5.64587401 90.4225791,5.58869992 90.2856864,5.54329003 C90.2048376,5.51647095 90.1482928,5.4997595 90.1186267,5.49192522 C90.1062045,5.48855388 90.0790655,5.48187361 90.0383522,5.47295784 C89.9685498,5.45767186 89.8874214,5.44228289 89.7961143,5.42785835 C88.9221456,5.28979028 87.9607068,5.34213309 87.0613908,5.71927528 C86.7082372,5.86737573 86.3779304,6.06239868 86.0741023,6.30845196 C85.8221853,6.51246538 85.5897651,6.75054147 85.3784927,7.02475064 C85.3977792,7.07428346 85.4083511,7.12809357 85.4083511,7.18434487 C85.4083511,7.42976324 85.207118,7.62871414 84.9588844,7.62871414 C84.7106508,7.62871414 84.5094177,7.42976324 84.5094177,7.18434487 C84.5094177,6.9389265 84.7106508,6.7399756 84.9588844,6.7399756 C84.9829638,6.7399756 85.006601,6.74184765 85.0296552,6.74545257 Z M89.7679083,8.66267785 C89.8696594,8.70940917 89.9479399,8.75703463 89.9989183,8.7942443 C90.0987938,8.85295925 90.2277521,8.96625752 90.3519058,9.14661828 C90.7448435,9.71744696 90.8215432,10.5871204 90.4141984,11.797339 C89.8728265,13.4057511 88.5178227,15.4806034 86.1747538,18.0899149 C86.092418,18.1816065 85.9508523,18.1896268 85.8585578,18.1078288 C85.7662634,18.0260308 85.7581904,17.8853896 85.8405262,17.793698 C88.1465761,15.2256119 89.4702157,13.1987863 89.9894225,11.6562262 C90.3546773,10.5710567 90.2907335,9.84601918 89.9821956,9.39779974 C89.8940251,9.26971252 89.8111651,9.19926216 89.7671352,9.17509019 L89.7386799,9.15653225 C89.7133147,9.13709649 89.6578955,9.10236921 89.5799622,9.06657668 C89.2675818,8.92310941 88.9474463,8.92453152 88.6401234,9.16365656 C88.4356541,9.32275214 88.2444556,9.58297856 88.0741988,9.96013103 C87.9983235,10.128232 87.9218756,10.3047684 87.826589,10.530369 C87.1218817,12.1988344 87.0010645,12.464467 86.5275225,13.2657751 C85.862609,14.3909142 85.0019063,15.4678706 83.8152513,16.5966153 C83.7259144,16.6815924 83.5841522,16.6785311 83.4986164,16.5897777 C83.4130806,16.5010244 83.416162,16.360188 83.5054989,16.2752109 C84.662536,15.1746386 85.4974352,14.129969 86.1412751,13.0404898 C86.6005875,12.2632605 86.7176502,12.0058827 87.4135802,10.3581983 C87.5101493,10.1295613 87.5879249,9.94995906 87.6655167,9.77805504 C87.8637668,9.33889204 88.0976874,9.02051967 88.3639513,8.81334222 C88.8212006,8.45756089 89.3165034,8.45536066 89.7679083,8.66267785 Z M81.5217581,17.0932176 C81.4213968,17.16503 81.2814397,17.1424179 81.2091552,17.0427121 C81.1368707,16.9430063 81.1596314,16.8039633 81.2599927,16.7321509 C82.8210709,15.6151392 85.2151118,12.5932607 86.2706938,9.59808945 C86.7006666,8.37809563 87.3523578,7.66092311 88.1697107,7.3841123 C88.8278711,7.16121481 89.5211926,7.24073079 90.1856626,7.50463341 C90.4193932,7.59746247 90.5958634,7.69107257 90.692851,7.75299794 C90.8702926,7.85927454 91.1226892,8.07603794 91.3718052,8.41946547 C91.9995124,9.28481288 92.2285395,10.4724654 91.836227,12.0038117 C91.320191,14.0180983 89.7652771,16.4479583 86.9573637,19.3378547 C86.871465,19.4262614 86.7296913,19.4287494 86.6407034,19.3434117 C86.5517155,19.258074 86.5492112,19.1172263 86.6351099,19.0288196 C89.3934298,16.1899647 90.9079336,13.8232536 91.4021699,11.8940594 C91.7617202,10.4905963 91.5588047,9.43834913 91.0084339,8.67961648 C90.8849726,8.50941464 90.7531951,8.36884413 90.6222978,8.25642683 C90.5461577,8.19103609 90.4894195,8.15073404 90.4562899,8.13079014 C90.4383657,8.11936481 90.4001755,8.09695784 90.344072,8.06719727 C90.2484055,8.01645016 90.1393745,7.96545924 90.0193997,7.91780971 C89.4452571,7.68978178 88.8551215,7.62210002 88.3142291,7.80528267 C87.6365846,8.03477879 87.0805706,8.64666049 86.6934261,9.74513454 C85.6061295,12.8302945 83.1543839,15.9250107 81.5217581,17.0932176 Z M79.6138979,17.0752419 C79.5075877,17.1380398 79.3701639,17.1033291 79.3069531,16.9977133 C79.2437423,16.8920976 79.2786813,16.7555713 79.3849914,16.6927734 C81.5976675,15.3857342 83.6480155,12.9345704 85.1751263,9.10397718 C85.7675879,7.617851 86.6219916,6.71252105 87.6713917,6.31137976 C88.5954639,5.958146 89.5742601,6.02102989 90.5056211,6.33618931 C90.6739168,6.39313819 90.826629,6.45425032 90.9612608,6.51559514 C91.0434163,6.55302919 91.1022866,6.58280107 91.1252923,6.59580599 C91.1978806,6.63116851 91.317018,6.70047513 91.4672125,6.80678783 C91.7140689,6.98152096 91.9602643,7.19924828 92.1899339,7.46317752 C93.0934444,8.50146402 93.4857195,9.92307806 93.0824981,11.7558389 C92.5564648,14.1468163 90.7087627,17.0330763 87.2708054,20.468657 C87.1836051,20.555797 87.04181,20.5562098 86.9540971,20.4695791 C86.8663842,20.3829483 86.8659686,20.2420793 86.9531689,20.1549393 C90.3361865,16.7742603 92.1397777,13.9569051 92.644933,11.6608246 C93.0173382,9.96813243 92.6642896,8.68867597 91.8511031,7.75418706 C91.6459737,7.51845869 91.4263132,7.32419798 91.2073135,7.1691827 C91.1313568,7.11541807 91.0612515,7.07055517 90.9989374,7.03430474 C90.9630477,7.01342636 90.9387827,7.00053442 90.9180516,6.99011799 C90.894676,6.97723464 90.8459389,6.95258732 90.7745386,6.92005384 C90.6532439,6.86478608 90.5145547,6.80928565 90.3612104,6.75739612 C89.5203421,6.47285816 88.6435701,6.41652893 87.8322333,6.72666871 C86.9057161,7.08083704 86.139936,7.89226108 85.5915502,9.26782793 C84.0286672,13.188152 81.9134191,15.7169028 79.6138979,17.0752419 Z M77.2538329,17.1150336 C77.1347892,17.1483708 77.0110823,17.0795223 76.9775259,16.9612561 C76.9439695,16.8429899 77.0132707,16.720091 77.1323144,16.6867538 C77.8346535,16.4900694 79.2526261,15.5437372 80.5001421,14.3370931 C82.1393603,12.7515799 83.3910165,10.8720299 83.9950219,8.84321821 C84.0301013,8.72538899 84.1546862,8.65812126 84.2732901,8.69297154 C84.3918939,8.72782182 84.4596039,8.85159301 84.4245245,8.96942224 C83.7966991,11.0782436 82.5030809,13.0208059 80.8125867,14.6559151 C79.5163657,15.9096686 78.0402517,16.8948034 77.2538329,17.1150336 Z M95.4706124,11.7438786 C95.2674582,12.7145936 94.8961085,13.7544102 94.3453966,14.8659279 C95.1657105,14.7660899 96.0431578,14.7744202 96.8729497,14.9642011 C97.4935386,15.1061353 98.043969,15.3435396 98.503614,15.6910548 C98.6990372,15.8387962 98.8690094,15.9876474 99.0197139,16.1419222 C99.3280258,16.4575382 99.5369388,16.7657381 99.7978706,17.2501641 C100.768182,19.0515692 101.117647,19.5576885 102.671223,21.0017068 C102.76154,21.0856549 102.766256,21.2264466 102.681756,21.3161739 C102.597256,21.4059012 102.455539,21.4105862 102.365222,21.3266381 C100.768477,19.8424951 100.394395,19.3007248 99.4029629,17.4601081 C99.160018,17.0090752 98.9726703,16.7326898 98.6982952,16.4518145 C98.5635008,16.3138267 98.4103215,16.1796817 98.2323743,16.0451523 C97.8272319,15.7388438 97.3347234,15.5264216 96.7724669,15.3978285 C95.9935301,15.2196787 95.1567857,15.2134018 94.3774009,15.3103595 C94.270834,15.3236167 94.1753366,15.3377847 94.0924453,15.3518939 C94.0435757,15.3602122 94.0103391,15.3665348 93.9942656,15.3698881 C93.809155,15.4085072 93.6622016,15.2158517 93.7496877,15.0492472 C94.3923951,13.8253052 94.8142024,12.694439 95.0320954,11.6532993 C95.0572726,11.5329971 95.1758481,11.4557497 95.2969413,11.4807625 C95.4180344,11.5057753 95.4957896,11.6235764 95.4706124,11.7438786 Z M92.8738799,16.7866331 C92.9785794,16.7212189 93.1168324,16.7525115 93.1826767,16.856527 C93.248521,16.9605426 93.2170227,17.0978927 93.1123233,17.1633069 C93.079109,17.1840586 93.0137847,17.2316011 92.9269956,17.3066861 C92.7789533,17.4347636 92.6302031,17.5920566 92.4911109,17.7792557 C91.7810285,18.7349295 91.5917576,20.0336022 92.256707,21.7356317 C93.1834349,24.1077192 95.6755148,26.9554912 100.076947,30.3032896 C100.175152,30.3779861 100.193812,30.5176307 100.118624,30.6151945 C100.043437,30.7127584 99.9028742,30.731296 99.8046689,30.6565996 C95.3437719,27.2635714 92.8004875,24.3572864 91.8391595,21.8966353 C91.1179993,20.0507265 91.3306147,18.5918769 92.1307581,17.5149933 C92.4048139,17.1461517 92.6812933,16.9069577 92.8738799,16.7866331 Z M94.2043082,17.928526 C94.1541926,17.9587971 94.1102128,17.9884425 94.0618493,18.0245548 C93.9191875,18.1310784 93.774215,18.2661676 93.6397969,18.429093 C93.2509798,18.9003701 93.0320867,19.4966083 93.0683,20.2341042 C93.1764335,22.4362805 95.4725201,25.3779669 100.720799,29.1171984 C100.821308,29.1888075 100.844354,29.3278041 100.772274,29.427656 C100.700194,29.527508 100.560284,29.5504034 100.459775,29.4787944 C95.1112084,25.6681111 92.7373608,22.6267993 92.6209368,20.2557851 C92.5790557,19.4028622 92.8370319,18.7001664 93.2933929,18.1470208 C93.4516539,17.955196 93.6226326,17.7958735 93.7927469,17.6688515 C93.8525935,17.6241649 93.9083967,17.5865497 93.9564893,17.55733 C93.9750993,17.5460231 93.9918158,17.5364487 94.0049866,17.5294979 C94.0924792,17.4808151 94.2119857,17.42491 94.369693,17.369951 C95.1751581,17.0892562 96.0551775,17.1448671 96.8764724,17.7701657 C97.3672085,18.1437911 97.8039723,18.7056604 98.1764901,19.4747258 C98.792136,20.7457647 99.5809725,21.7972303 100.473526,22.6484853 C101.069472,23.2168568 101.6169,23.6125708 102.078903,23.8778016 C102.185991,23.9392801 102.222638,24.0753638 102.160755,24.181753 C102.098873,24.2881422 101.961894,24.3245495 101.854806,24.263071 C101.36333,23.9809201 100.787147,23.5644205 100.163344,22.9694808 C99.23355,22.0827082 98.4126692,20.9885297 97.7728926,19.6676713 C97.4293646,18.9584556 97.0356523,18.4519694 96.604027,18.1233484 C95.9172848,17.6004925 95.1926775,17.5547025 94.5179486,17.7898373 C94.4361435,17.8183454 94.3632501,17.848736 94.3005228,17.8788275 C94.2765019,17.8903508 94.2580484,17.8998082 94.2455276,17.9065398 C94.2222452,17.9198271 94.2132532,17.9244921 94.2043082,17.928526 Z M94.2112077,18.983843 C94.3274257,18.8420561 94.4467513,18.7527968 94.5398185,18.7055473 C95.3757579,18.1441044 96.369917,18.5943716 96.7670191,19.6467091 C97.2356006,20.8885987 98.1261802,22.0953575 99.3169997,23.2358166 C99.9607544,23.8523465 100.651275,24.4102375 101.341741,24.8991377 C101.583277,25.0701627 101.807391,25.2202446 102.008238,25.3481333 C102.078272,25.3927275 102.140309,25.4313137 102.193617,25.4637371 C102.225187,25.4829382 102.246574,25.4956706 102.257048,25.5017798 C102.363708,25.5639897 102.39941,25.7003209 102.336791,25.8062841 C102.274173,25.9122473 102.136945,25.9477164 102.030285,25.8855066 C102.017462,25.8780274 101.99371,25.8638869 101.959755,25.8432348 C101.903856,25.8092362 101.839212,25.7690281 101.766548,25.7227596 C101.559687,25.5910409 101.329498,25.4368907 101.081784,25.2614912 C100.374393,24.7606071 99.6670578,24.1891313 99.0061466,23.5561704 C97.7712915,22.373538 96.8429026,21.1155466 96.3476237,19.8029003 C96.0424795,18.9942553 95.3552586,18.6863826 94.7804205,19.0811423 L94.7483002,19.0994979 C94.7095661,19.1175753 94.6358068,19.1705201 94.5585169,19.2648144 C94.2248273,19.6719181 94.2196874,20.3684582 94.823445,21.4717619 C95.707109,23.086565 97.7577308,25.2451558 101.233929,28.0134014 C101.330435,28.090253 101.345958,28.230276 101.268601,28.3261514 C101.191245,28.4220268 101.050301,28.4374486 100.953795,28.360597 C97.4352845,25.5586563 95.3473865,23.3608267 94.4299422,21.6842936 C93.7455497,20.4336381 93.752115,19.5439395 94.2112077,18.983843 Z M99.5876228,31.442744 C99.6875763,31.5151155 99.7095503,31.6542834 99.636703,31.7535841 C99.5638557,31.8528848 99.4237729,31.8747153 99.3238194,31.8023437 C99.3048708,31.788624 99.2688621,31.7622113 99.2169287,31.7235937 C99.130819,31.6595626 99.0310592,31.5843055 98.9187847,31.4983102 C98.5984759,31.2529734 98.2417588,30.9705552 97.8577108,30.6549494 C96.7605359,29.7533048 95.6633471,28.7658609 94.6386428,27.7234707 C94.3993103,27.4800074 94.1663297,27.2358433 93.9402738,26.9912177 C93.8566296,26.9007024 93.8626821,26.7599611 93.9537924,26.6768633 C94.0449028,26.5937654 94.1865693,26.5997784 94.2702135,26.6902936 C94.4930945,26.9314836 94.7229086,27.1723293 94.9590774,27.4125742 C95.9717498,28.4427248 97.0574646,29.4198424 98.1431932,30.3120805 C98.5231614,30.6243337 98.875888,30.9035925 99.1922594,31.1459135 C99.302823,31.2305984 99.4008889,31.3045776 99.4853185,31.3673594 C99.5357087,31.4048295 99.5701896,31.4301215 99.5876228,31.442744 Z M90.9960726,25.3042022 C90.4200337,24.5151324 89.9673575,23.7687108 89.6512554,23.0705184 L88.7121513,23.9942309 C88.6242593,24.0806823 88.4824653,24.0799799 88.3954455,23.992662 C88.3084257,23.9053441 88.3091328,23.7644762 88.3970247,23.6780248 L89.5705823,22.5237015 C89.6844785,22.411672 89.8765041,22.4513054 89.936059,22.5991345 C90.236962,23.3460455 90.7176234,24.1648689 91.3586493,25.0429592 C92.1276404,26.0963387 93.1103391,27.2126809 94.2564756,28.3640323 C95.2905707,29.4028325 96.3991934,30.4125141 97.5078591,31.3529085 C97.8958945,31.6820487 98.2561429,31.978955 98.5793117,32.2386395 C98.692298,32.3294304 98.7925371,32.4090519 98.8788681,32.4768813 C98.9304668,32.517422 98.9658389,32.544928 98.9838235,32.5587773 C99.0815786,32.6340543 99.0993994,32.773807 99.0236275,32.8709236 C98.9478555,32.9680402 98.8071841,32.9857446 98.709429,32.9104676 C98.6903091,32.8957442 98.6537911,32.867347 98.6010334,32.8258957 C98.5134368,32.7570719 98.41192,32.6764355 98.2976409,32.5846058 C97.9714803,32.3225172 97.6081901,32.0231038 97.2170301,31.6913134 C96.0994233,30.7433349 94.9817735,29.7254319 93.9380143,28.6769236 C92.7770616,27.5106886 91.7799507,26.3779742 90.9960726,25.3042022 Z M91.0198562,27.1892714 C90.3400682,26.3456759 89.8032393,25.5587169 89.4277832,24.8371977 L88.8375501,25.3327707 C88.7430853,25.4120856 88.6017863,25.4003042 88.52195,25.3064563 C88.4421137,25.2126085 88.4539725,25.0722323 88.5484374,24.9929175 L89.3569531,24.3140694 C89.4692532,24.2197797 89.6409938,24.2567635 89.7039153,24.3887866 C90.0638727,25.1440576 90.6278078,25.9907558 91.3695082,26.9111826 C92.035555,27.7377259 92.8329469,28.6090863 93.7337485,29.5086821 C94.7244759,30.4980832 95.7866018,31.4692628 96.8487774,32.3808021 C97.2205523,32.6998524 97.5657124,32.9886026 97.8753577,33.2419061 C97.9836266,33.3304748 98.0796861,33.4082581 98.1624243,33.4746132 C98.2118924,33.5142861 98.2458184,33.5412484 98.2630905,33.5548578 C98.3599949,33.6312128 98.3762466,33.7711541 98.2993896,33.8674255 C98.2225327,33.963697 98.0816713,33.9798425 97.984767,33.9034875 C97.9665005,33.8890946 97.9315703,33.8613343 97.881086,33.8208464 C97.7972368,33.7536002 97.7000549,33.6749081 97.5906495,33.5854097 C97.2783684,33.32995 96.9305248,33.0389548 96.555988,32.7175343 C95.4858446,31.7991573 94.4156514,30.8206012 93.4162143,29.822502 C92.5048219,28.9123295 91.6969051,28.029468 91.0198562,27.1892714 Z M91.7545058,29.9114635 C90.5079482,28.6487879 89.622524,27.5794548 89.1814699,26.7478434 L88.6495877,27.2210039 C88.5574466,27.3029723 88.4158661,27.2952136 88.3333588,27.2036742 C88.2508515,27.1121349 88.2586612,26.9714791 88.3508023,26.8895107 L89.1044082,26.2191056 C89.2182596,26.1178237 89.3985266,26.1570845 89.4592874,26.2963957 C89.8082996,27.0966029 90.7226784,28.2308189 92.0742725,29.5998889 C92.4686035,29.9993186 92.8955599,30.4140212 93.3502649,30.8407404 C94.24665,31.6819558 95.207585,32.5302245 96.1685775,33.3428594 C96.5049576,33.6273092 96.817276,33.8869516 97.0974896,34.1164736 C97.1954962,34.1967505 97.2824654,34.2675095 97.3573924,34.328087 C97.4022352,34.3643419 97.4330282,34.3890901 97.4487667,34.4016683 C97.5451368,34.4786877 97.5604132,34.6187374 97.4828875,34.7144781 C97.4053617,34.8102188 97.2643913,34.8253954 97.1680211,34.748376 C97.1516353,34.7352804 97.1201874,34.7100059 97.0746806,34.6732142 C96.9990249,34.6120475 96.9113182,34.5406885 96.8125633,34.4597988 C96.5306015,34.2288447 96.2164958,33.9677166 95.8782653,33.681702 C94.911799,32.8644383 93.9452752,32.0112361 93.0426988,31.1642105 C92.5840345,30.7337756 92.1530436,30.3151543 91.7545058,29.9114635 Z M91.7388561,31.4559274 C90.445561,30.2012209 89.5049244,29.1697577 89.008784,28.4214878 L88.6222955,28.8110099 C88.5354691,28.8985177 88.393677,28.8995298 88.3055939,28.8132706 C88.2175108,28.7270114 88.216492,28.5861454 88.3033183,28.4986376 L88.8899473,27.9074043 C88.9940765,27.8024578 89.1702773,27.8252577 89.2438736,27.9532015 C89.65407,28.6663091 90.6387797,29.7667296 92.0517847,31.1375742 C92.3101161,31.3881977 92.580757,31.6458756 92.8623495,31.9096094 C93.709974,32.7034775 94.6185528,33.5171015 95.527181,34.3058801 C95.845233,34.5819805 96.1405443,34.8352284 96.4055174,35.0600665 C96.4982106,35.1387197 96.580474,35.2081898 96.6513582,35.2677826 C96.6938094,35.3034715 96.7229843,35.3278959 96.737934,35.3403618 C96.8326693,35.4193576 96.8450078,35.5596929 96.7654926,35.6538095 C96.6859775,35.7479261 96.5447196,35.7601839 96.4499842,35.6811882 C96.4345805,35.6683437 96.4049458,35.6435344 96.3620281,35.6074532 C96.290631,35.5474292 96.207848,35.4775203 96.1146269,35.3984192 C95.8484161,35.1725308 95.5518369,34.9181956 95.2324683,34.6409523 C94.3198949,33.8487489 93.407272,33.0315034 92.5551083,32.233384 C92.2716636,31.9679155 91.9991343,31.7084396 91.7388561,31.4559274 Z M95.7314403,36.0678738 C95.8288365,36.1436085 95.8459929,36.2834433 95.7697602,36.3802033 C95.6935275,36.4769634 95.5527734,36.4940077 95.4553773,36.4182729 C95.4418184,36.4077296 95.4158258,36.3874131 95.3782276,36.3578634 C95.315739,36.3087516 95.2433022,36.251488 95.1617448,36.1866124 C94.9289036,36.0013966 94.6695261,35.7922207 94.3902301,35.5633993 C93.5921408,34.9095411 92.7939934,34.2290192 92.0485823,33.5561755 C91.7060848,33.2470208 91.3821209,32.9460089 91.0796408,32.6550409 C90.0721489,31.6858933 89.3352421,30.8607168 88.9339178,30.2160244 C88.868863,30.1115196 88.9014005,29.9744089 89.0065923,29.909779 C89.1117842,29.8451491 89.2497963,29.8774741 89.3148511,29.9819789 C89.691844,30.587585 90.4083764,31.3899467 91.3912036,32.3353683 C91.6901109,32.6228995 92.0106427,32.9207224 92.3497769,33.2268411 C93.0893411,33.8944073 93.8822385,34.5704529 94.6751942,35.2201051 C94.9527639,35.4475123 95.2104761,35.6553451 95.4416896,35.8392662 C95.5225514,35.9035885 95.594303,35.9603104 95.6561148,36.0088903 C95.6930968,36.0379556 95.7184818,36.0577973 95.7314403,36.0678738 Z M94.5017998,36.5895413 C94.6062815,36.6552982 94.6373238,36.7927506 94.5711346,36.8965499 C94.5049455,37.0003493 94.3665894,37.0311888 94.2621076,36.965432 C94.2486731,36.9569768 94.223505,36.940882 94.1873833,36.9173923 C94.127726,36.8785975 94.0586796,36.8328996 93.9810238,36.7805428 C93.7597332,36.631345 93.5133958,36.4584606 93.2482444,36.2638336 C92.4908309,35.7078751 91.733412,35.0884952 91.0257336,34.4209117 C90.511882,33.9361733 90.0433191,33.4432028 89.6302875,32.9449249 C89.5516629,32.8500728 89.5653233,32.7098584 89.660799,32.6317473 C89.7562747,32.5536362 89.8974109,32.5672075 89.9760356,32.6620596 C90.3767552,33.1454844 90.8329097,33.6254002 91.3341434,34.0982355 C92.0273466,34.752164 92.7708723,35.3601826 93.5144035,35.9059512 C93.7745827,36.0969286 94.0160523,36.2663966 94.2325372,36.4123544 C94.3081029,36.463302 94.3750795,36.50763 94.4326835,36.5450895 C94.4669186,36.5673524 94.4902185,36.5822525 94.5017998,36.5895413 Z M96.440763,12.7437044 C96.3420323,13.0750008 96.2361767,13.3769399 96.1171821,13.6762576 C96.7288229,13.7175465 97.478409,13.8679271 98.16746,14.1366117 C99.3407804,14.5941295 100.240434,15.3403374 100.720336,16.4199749 C100.995824,17.0397592 101.342482,17.6437673 101.744024,18.2257074 C102.120955,18.7719797 102.525051,19.2691172 102.928923,19.7070118 C103.070026,19.8600015 103.200865,19.9945147 103.31801,20.1093111 C103.387609,20.177514 103.436688,20.2235619 103.46182,20.2462235 C103.553403,20.3288068 103.560259,20.4695117 103.477132,20.5604967 C103.394006,20.6514817 103.252376,20.6582927 103.160793,20.5757095 C103.131175,20.5490016 103.077598,20.4987344 103.003478,20.4261005 C102.881092,20.3061692 102.745026,20.1662811 102.598692,20.0076201 C102.181316,19.5550842 101.764162,19.0418818 101.374595,18.4772968 C100.958151,17.8737607 100.597922,17.2461052 100.310612,16.5997247 C99.5515369,14.8920305 97.5445664,14.109444 95.7835632,14.109444 C95.6191648,14.109444 95.5107992,13.9393322 95.5811686,13.7917262 C95.5871083,13.7792671 95.5991141,13.7530771 95.6163222,13.7138891 C95.6455293,13.6473759 95.6782183,13.5693182 95.7135264,13.4804509 C95.8148966,13.225311 95.9164469,12.9356521 96.0112951,12.6173838 C96.4567968,11.1224775 96.5988428,9.57863496 96.2583908,8.14541026 C95.8408976,6.38786032 94.7266095,4.96426035 92.7598119,3.98127166 C92.6493229,3.92605022 92.6048141,3.79230042 92.6603985,3.68253312 C92.715983,3.57276582 92.8506121,3.52854765 92.9611011,3.58376909 C95.0472915,4.62642927 96.2466699,6.15873946 96.6943118,8.04320865 C97.0553532,9.5631097 96.9065051,11.18088 96.440763,12.7437044 Z M104.239988,19.3786044 C104.332862,19.4597529 104.341934,19.6003339 104.260252,19.6926008 C104.17857,19.7848678 104.037065,19.793881 103.944192,19.7127326 C103.922601,19.6938676 103.883437,19.6587251 103.829198,19.6085946 C103.739553,19.5257391 103.639859,19.4304968 103.532608,19.3241475 C103.226392,19.0205026 102.920208,18.6880233 102.633942,18.3366895 C102.109206,17.6926823 101.710968,17.058984 101.490088,16.4565772 C101.483667,16.4390659 101.477402,16.4215914 101.471293,16.4041541 C101.430641,16.288106 101.49238,16.1612903 101.609191,16.1209034 C101.726002,16.0805165 101.853651,16.141852 101.894304,16.2579001 C101.899702,16.2733094 101.905244,16.288769 101.910931,16.3042784 C102.112151,16.8530643 102.485836,17.4476933 102.982074,18.0567253 C103.257594,18.3948705 103.553323,18.7159972 103.84902,19.0092105 C103.95244,19.1117615 104.048367,19.2034046 104.13428,19.2828103 C104.185376,19.3300365 104.221451,19.3624078 104.239988,19.3786044 Z M99.207277,11.5238596 C99.196835,11.6350845 99.1857342,11.7360494 99.1745142,11.8258689 C99.6043322,12.0225635 100.120503,12.3163165 100.647136,12.7089607 C101.555671,13.3863406 102.281421,14.2081727 102.722562,15.1844974 C102.935333,15.6554223 103.175428,16.1028157 103.437881,16.5261375 C103.815014,17.1344303 104.218893,17.6637072 104.622226,18.1109407 C104.762856,18.2668777 104.89313,18.4012281 105.00962,18.5136193 C105.078471,18.5800483 105.126704,18.6238059 105.150887,18.644525 C105.244548,18.7247742 105.254994,18.8652611 105.174217,18.9583113 C105.09344,19.0513614 104.95203,19.0617387 104.858368,18.9814894 C104.82763,18.9551537 104.77289,18.9054924 104.697577,18.8328297 C104.573794,18.7134012 104.436335,18.571641 104.288637,18.4078674 C103.868177,17.9416419 103.448263,17.3913515 103.056522,16.7594966 C102.784087,16.3200749 102.534855,15.8556558 102.313945,15.3667177 C101.90717,14.4664513 101.230613,13.7003255 100.37829,13.0648552 C99.8174755,12.6467263 99.2690035,12.346957 98.8419291,12.1660008 C98.7472661,12.1258911 98.6923044,12.0268491 98.7086967,11.9259135 C98.7117427,11.9071579 98.7173717,11.8688829 98.7247348,11.8125145 C98.7371713,11.7173058 98.7496479,11.6068372 98.7613174,11.4825373 C98.8824147,10.1926429 98.8226994,8.76271012 98.4516232,7.42020309 C98.137822,6.28490971 97.6223312,5.32338653 96.8755007,4.58697989 C96.7877163,4.5004207 96.7871843,4.35955205 96.8743126,4.27234097 C96.9614408,4.18512988 97.1032356,4.18460142 97.19102,4.27116061 C97.9982358,5.06710968 98.5503347,6.09691644 98.8835302,7.30237602 C99.2711405,8.70470145 99.3329629,10.185089 99.207277,11.5238596 Z M100.421174,11.0419167 C100.417654,11.0741153 100.414116,11.1038529 100.410642,11.1310452 C102.21775,12.1332653 103.216575,13.0512832 103.746893,14.4763761 C103.85749,14.7735651 104.033767,15.1165579 104.266198,15.495253 C104.434095,15.7688032 104.628541,16.0565368 104.844286,16.3538204 C105.119199,16.732633 105.414162,17.1074152 105.709141,17.4611115 C105.812375,17.5848943 105.908185,17.6971383 105.994077,17.7957373 C106.045375,17.8546248 106.081794,17.8956866 106.100843,17.9168235 C106.183344,18.0083679 106.175525,18.1490233 106.083379,18.2309859 C105.991233,18.3129486 105.849653,18.305181 105.767151,18.2136366 C105.74647,18.1906884 105.708394,18.1477582 105.655401,18.0869247 C105.567473,17.9859887 105.469598,17.8713247 105.364248,17.7450047 C105.063274,17.3841214 104.762284,17.0016808 104.480973,16.6140516 C104.258875,16.3080136 104.058125,16.0109517 103.883788,15.7269091 C103.637503,15.3256431 103.448712,14.9583009 103.326789,14.6306766 C102.829321,13.29386 101.866163,12.4309751 100.058148,11.4458246 C99.9727171,11.3992748 99.9273862,11.3031889 99.9460322,11.2081773 C99.9530341,11.1724991 99.9643378,11.0996277 99.9758962,10.9938805 C100.054752,10.2724353 100.003938,9.41346856 99.7268323,8.52206221 C99.6903359,8.40465855 99.7565498,8.2800911 99.8747253,8.24383302 C99.9929008,8.20757494 100.118287,8.27335643 100.154784,8.39076009 C100.45183,9.34631279 100.506147,10.2644999 100.421174,11.0419167 Z M107.329288,15.8119458 C107.424061,15.8908969 107.436467,16.0312264 107.356996,16.1253805 C107.277526,16.2195346 107.136274,16.231859 107.041501,16.1529078 C106.996499,16.1154189 106.921615,16.047463 106.826739,15.9519489 C106.670039,15.7941945 106.513553,15.6149152 106.367219,15.4167697 C106.024374,14.9525361 105.789045,14.4571636 105.712457,13.941633 C105.694398,13.8200748 105.778948,13.7069884 105.901306,13.6890474 C106.023663,13.6711064 106.137493,13.7551047 106.155552,13.8766629 C106.220136,14.3113923 106.425223,14.7431055 106.728341,15.1535464 C106.860964,15.3331252 107.00336,15.4962626 107.145541,15.6393997 C107.229994,15.7244205 107.294588,15.7830388 107.329288,15.8119458 Z M107.918719,14.6177453 C108.014053,14.6960266 108.02746,14.8362651 107.948665,14.9309768 C107.869869,15.0256886 107.728708,15.0390081 107.633374,14.9607269 C107.499816,14.8510595 107.309941,14.6440273 107.122487,14.3386941 C107.011909,14.1585809 106.915675,13.9623867 106.837863,13.7501658 C106.795531,13.6347119 106.855423,13.5070253 106.971636,13.4649697 C107.087849,13.422914 107.216375,13.4824151 107.258707,13.5978689 C107.32611,13.7816996 107.40936,13.9514238 107.504869,14.106993 C107.598277,14.2591386 107.698021,14.3893798 107.797095,14.4974069 C107.854725,14.5602443 107.897661,14.6004544 107.918719,14.6177453 Z M74.975235,15.6662307 C74.8630731,15.7180165 74.7298913,15.6696658 74.677765,15.5582364 C74.6256388,15.4468071 74.6743074,15.3144951 74.7864693,15.2627093 C74.7996046,15.2566446 74.8265028,15.2438552 74.8662433,15.2243759 C74.9333965,15.1914598 75.0115574,15.1519208 75.0998053,15.1057947 C75.3529394,14.9734845 75.6354214,14.8152334 75.9398807,14.6313403 C76.8103618,14.1055706 77.6809571,13.4806278 78.4927316,12.7592961 C80.0962784,11.3344066 81.2664773,9.71633736 81.8232569,7.91523296 C82.5780547,5.47360039 84.1677422,3.96127266 86.2598711,3.21584246 C87.5952928,2.74002873 89.319051,2.6186174 89.6191679,2.80836106 C89.7235131,2.87433151 89.7542704,3.01184718 89.6878663,3.1155109 C89.6214621,3.21917462 89.4830424,3.24973105 89.3788506,3.19696724 C89.3320293,3.19094704 89.2675707,3.18578524 89.1917062,3.18241471 C89.0029293,3.17402768 88.7706384,3.17741058 88.5174666,3.19524251 C87.838195,3.24308638 87.1152897,3.38377661 86.4110759,3.63468953 C84.4455085,4.33502556 82.9624005,5.74596042 82.251415,8.04586806 C81.6678559,9.93360039 80.4509757,11.6162172 78.7913285,13.0909569 C77.9575877,13.8318075 77.0651308,14.4724433 76.1725597,15.0115553 C75.8599509,15.2003708 75.5694409,15.3631192 75.3083515,15.4995876 C75.2166211,15.547534 75.1350055,15.5888206 75.0644202,15.6234189 C75.0215176,15.6444482 74.9914839,15.6587285 74.975235,15.6662307 Z M80.0294359,10.055152 C79.9603163,10.1570487 79.821137,10.1839857 79.7185704,10.1153175 C79.6160038,10.0466493 79.5888896,9.90837911 79.6580093,9.80648238 C80.2371366,8.95272848 80.6775465,8.02863018 80.9603088,7.03145937 C81.5527878,4.94214467 82.9703577,3.47611989 84.9520858,2.53559594 C85.882584,2.09398349 86.877214,1.79771187 87.8714911,1.6186889 C88.2194101,1.55604491 88.5427126,1.5124835 88.8333363,1.48461332 C88.9355098,1.47481511 89.0264588,1.46767686 89.1051737,1.46277799 C89.1531612,1.45979145 89.18688,1.45820555 89.2053191,1.45760109 C89.3289347,1.45354884 89.4324515,1.54981952 89.4365304,1.67262769 C89.4406093,1.79543587 89.3437057,1.89827656 89.2200901,1.90232882 C89.2059973,1.9027908 89.1766855,1.90416943 89.1331771,1.90687721 C89.0593986,1.91146885 88.9734554,1.91821422 88.8763709,1.92752441 C88.5976861,1.95424967 88.2866164,1.99616285 87.9513652,2.05652597 C86.9937277,2.22895185 86.0364429,2.51409938 85.1451541,2.93710319 C83.2717541,3.82621484 81.9456692,5.19762754 81.3914228,7.15211874 C81.0953822,8.19611574 80.634514,9.16314132 80.0294359,10.055152 Z M73.4752557,13.703308 C73.3561168,13.7363078 73.232608,13.6671092 73.1993912,13.5487484 C73.1661744,13.4303876 73.235828,13.3076855 73.3549669,13.2746856 C73.3665074,13.2714891 73.3911939,13.2641956 73.4281455,13.2525509 C73.4912092,13.2326775 73.5647865,13.2079423 73.6479965,13.1780924 C73.8873592,13.0922261 74.1547586,12.9828511 74.4431514,12.8479643 C75.2685656,12.4619024 76.0943426,11.9496688 76.864579,11.2955963 C78.2452535,10.1231496 79.2926831,8.62679139 79.8752363,6.76468142 C80.5340617,4.65881816 81.7873578,3.10357738 83.4586491,2.02411167 C84.3520771,1.44705797 85.3080241,1.04290523 86.2639647,0.780941656 C86.5988157,0.68917992 86.9101061,0.621682873 87.1900951,0.574702209 C87.2886787,0.558160393 87.3765062,0.545353957 87.4526099,0.535818354 C87.4992231,0.529977828 87.5321613,0.526482904 87.5504563,0.52487089 C87.6736555,0.514015482 87.7823861,0.604435828 87.7933129,0.726830386 C87.8042396,0.849224944 87.7132248,0.957245385 87.5900256,0.968100793 C87.5771524,0.969235089 87.5497023,0.97214769 87.508655,0.977290812 C87.4386579,0.986061287 87.3570085,0.997966865 87.2646871,1.0134579 C86.9992331,1.05799968 86.7027443,1.12228732 86.3830638,1.20989175 C85.4689144,1.46040295 84.5547714,1.84688197 83.702782,2.39717098 C82.1157844,3.42219241 80.9293824,4.89442292 80.302949,6.89674883 C79.6940637,8.84302825 78.5978102,10.4091364 77.1555987,11.6338394 C76.3530324,12.3153658 75.4936637,12.8484365 74.6339321,13.2505494 C74.332524,13.3915237 74.052251,13.5061644 73.8001128,13.5966136 C73.7112976,13.6284742 73.6321586,13.6550792 73.5635702,13.6766936 C73.5215306,13.6899417 73.491801,13.6987251 73.4752557,13.703308 Z M72.7757161,12.6283816 C72.6559868,12.6592005 72.5337791,12.5877584 72.5027575,12.4688111 C72.471736,12.3498638 72.5436478,12.2284542 72.6633771,12.1976353 C72.7107958,12.1854295 72.8040835,12.1580103 72.9366477,12.1135147 C73.1600973,12.038513 73.409739,11.942699 73.6789822,11.8242362 C74.4494693,11.4852338 75.2202275,11.0335324 75.9389312,10.4548727 C77.2032272,9.43693301 78.1678826,8.13772672 78.716334,6.52086712 C79.269406,4.89044281 80.1313382,3.54099975 81.2177925,2.44796089 C81.9132035,1.74833529 82.6583836,1.19545158 83.4042504,0.77338773 C83.6660599,0.625237482 83.9096454,0.50389567 84.128935,0.407385954 C84.2622344,0.348720702 84.3590325,0.31098936 84.4132711,0.292235008 C84.530081,0.251845023 84.6577321,0.31317719 84.6983876,0.429224236 C84.7390431,0.545271282 84.6773077,0.672088551 84.5604977,0.712478536 C84.5175568,0.727326427 84.4321435,0.760620065 84.3103467,0.814223023 C84.1044761,0.904826992 83.8743117,1.01948308 83.6259291,1.16003545 C82.9141038,1.56283621 82.2015919,2.09148188 81.5364903,2.76061439 C80.4965224,3.80688517 79.6714148,5.09867558 79.1407757,6.66296899 C78.5637004,8.36421302 77.5481363,9.73198364 76.2209379,10.8005688 C75.4694719,11.4056068 74.6650483,11.8770377 73.8603535,12.231091 C73.578283,12.3551976 73.3159906,12.4558671 73.0800122,12.5350741 C72.9968732,12.56298 72.9227827,12.5862494 72.8585575,12.6051265 C72.8191618,12.6167057 72.7912757,12.6243765 72.7757161,12.6283816 Z M72.2562129,11.5705364 C72.1338167,11.5882139 72.0201704,11.5039707 72.0023767,11.3823739 C71.984583,11.2607772 72.06938,11.1478731 72.1917762,11.1301956 C72.2367299,11.123703 72.3280222,11.1055234 72.4589955,11.0712528 C72.6813934,11.0130601 72.9303014,10.9299738 73.1991096,10.8176201 C73.9707978,10.4950778 74.7437166,10.0028809 75.4662279,9.30561964 C76.2894559,8.51116142 76.9941041,7.49834851 77.5432251,6.24018952 C79.0067717,2.88689888 80.9960143,0.518477344 82.5807965,0.0107962128 C82.6985108,-0.0269133047 82.8247078,0.0373201852 82.8626652,0.154265728 C82.9006226,0.271211271 82.8359669,0.396583969 82.7182525,0.434293486 C81.282832,0.894126974 79.3714833,3.16980682 77.954154,6.41720405 C77.3817335,7.7287474 76.6434902,8.78984772 75.7783096,9.62479231 C75.014076,10.3623179 74.1940538,10.8845103 73.3728009,11.2277691 C73.0840798,11.3484458 72.8152819,11.4381714 72.573072,11.5015482 C72.4252806,11.5402193 72.3174553,11.5616913 72.2562129,11.5705364 Z M72.2715952,10.1235669 C72.1507386,10.1496843 72.0314534,10.0735229 72.0051643,9.95345565 C71.9788752,9.83338838 72.0555373,9.71488229 72.1763939,9.68876487 C72.2105408,9.68138566 72.2795635,9.66367202 72.3784369,9.63371752 C72.5461009,9.58292239 72.7336791,9.51606814 72.9361549,9.43127832 C73.5162931,9.1883367 74.0968401,8.85109971 74.6382848,8.40490031 C75.4709699,7.71869242 76.1340131,6.83717908 76.5661333,5.73360476 C76.7735372,5.20392988 76.9925911,4.70920636 77.2219313,4.24825294 C77.8327137,3.02063505 78.4894156,2.07986923 79.1488385,1.38901693 C79.55048,0.968232423 79.8683627,0.722593776 80.0588787,0.614659294 C80.1663194,0.553790094 80.3030859,0.59097489 80.3643553,0.697713862 C80.4256247,0.804452834 80.3881954,0.940326103 80.2807547,1.0011953 C80.2470088,1.02031365 80.1754062,1.06776914 80.0712302,1.14826942 C79.8922956,1.28653824 79.6914059,1.46726341 79.4738425,1.69519625 C78.8455512,2.35343314 78.2145389,3.25739703 77.6234546,4.4454236 C77.399983,4.89458164 77.1862257,5.37734297 76.9835568,5.89492559 C76.5228147,7.07159598 75.813654,8.01442243 74.9242413,8.74737893 C74.346881,9.22317602 73.7287084,9.58226956 73.110127,9.84130989 C72.893051,9.93221376 72.6910453,10.0042101 72.5090827,10.0593371 C72.3981803,10.0929358 72.317363,10.1136764 72.2715952,10.1235669 Z M72.7529618,8.6064847 C72.6391898,8.65467949 72.5076329,8.60212107 72.4591213,8.48909218 C72.4106096,8.37606328 72.4635136,8.24536567 72.5772856,8.19717088 C72.5999523,8.18756907 72.6452837,8.16711862 72.7100141,8.13588061 C72.8195113,8.08303876 72.9419415,8.01951214 73.0740331,7.94537924 C73.4519577,7.73327907 73.8299604,7.47952003 74.1818766,7.18515855 C74.8672891,6.61184305 75.3671395,5.95743475 75.6067807,5.22689436 C75.9508649,4.17801398 76.2758878,3.42154375 76.5735064,2.90880041 C76.7607055,2.58628984 76.9040425,2.41307493 76.9965077,2.34229184 C77.0944794,2.26729335 77.2350992,2.28539815 77.3105908,2.38273003 C77.3860823,2.48006191 77.3678585,2.61976327 77.2698868,2.69476176 C77.2280175,2.72681312 77.1213433,2.85572302 76.9615121,3.13108353 C76.6807466,3.61479199 76.3676813,4.34343163 76.0326317,5.36477204 C75.7639614,6.18380663 75.214638,6.90298551 74.4703513,7.52554655 C74.0955842,7.83902163 73.6949978,8.1079415 73.2943332,8.33280387 C73.1539186,8.41160786 73.0233073,8.47937951 72.9057159,8.5361275 C72.8341932,8.57064339 72.782201,8.5940987 72.7529618,8.6064847 Z M73.3358049,6.84131872 C73.228537,6.9024879 73.0916657,6.86568541 73.0300944,6.75911807 C72.968523,6.65255072 73.0055675,6.5165734 73.1128354,6.45540422 C73.1522042,6.43295429 73.2263224,6.38555633 73.3234656,6.31446516 C73.4871558,6.19467362 73.6510726,6.05352871 73.8035764,5.89264286 C74.1753985,5.50038432 74.41708,5.05861407 74.4727793,4.57504348 C74.4868407,4.45296515 74.5978543,4.36532565 74.7207352,4.3792952 C74.8436162,4.39326474 74.9318318,4.50355333 74.9177704,4.62563166 C74.8497783,5.21592724 74.562483,5.7410749 74.1296469,6.19770099 C73.9573981,6.37941699 73.7733659,6.53788285 73.5891069,6.67272697 C73.4774806,6.75441719 73.3892225,6.81085751 73.3358049,6.84131872 Z M99.3320489,5.68184535 C99.3529097,5.80296001 99.2709925,5.91794341 99.1490816,5.93866797 C99.0271706,5.95939253 98.9114313,5.87801028 98.8905705,5.75689562 C98.8880699,5.74237777 98.8815487,5.71085692 98.8702,5.66481378 C98.8506872,5.58564778 98.8247315,5.4968089 98.7915575,5.40078244 C98.6965138,5.12566538 98.5633182,4.85049499 98.386401,4.59480446 C98.33566,4.52147077 98.2818758,4.45066808 98.2249706,4.38266374 C98.1459037,4.28817518 98.158909,4.14789931 98.2540187,4.06934882 C98.3491285,3.99079833 98.4903266,4.00371869 98.5693935,4.09820725 C98.6351548,4.17679499 98.6971508,4.25840795 98.7555026,4.34274112 C98.9571596,4.63418707 99.1077214,4.94523436 99.2151962,5.25633497 C99.2801257,5.44428226 99.3166639,5.59252199 99.3320489,5.68184535 Z M84.9983098,17.331607 C84.9073727,17.414892 84.765694,17.4091701 84.6818615,17.318827 C84.598029,17.2284838 84.6037885,17.0877304 84.6947256,17.0044455 C84.7272567,16.9746518 84.7898802,16.9153571 84.8782871,16.8285185 C85.0265758,16.6828603 85.1920606,16.5135482 85.3704305,16.3225485 C85.8805257,15.7763354 86.390748,15.1667373 86.8666089,14.509709 C87.9029078,13.0788757 88.6278482,11.6306748 88.904583,10.233496 C88.9284626,10.1129329 89.046199,10.034429 89.1675548,10.0581526 C89.2889105,10.0818762 89.3679305,10.1988437 89.3440509,10.3194068 C89.0530399,11.7886633 88.3008592,13.2912817 87.2301719,14.7695956 C86.7427135,15.4426366 86.2208079,16.0661936 85.6987753,16.6251894 C85.5159005,16.8210129 85.3459438,16.9949004 85.1931951,17.1449394 C85.1395266,17.1976559 85.0917757,17.243685 85.0504788,17.2827867 C85.0253798,17.3065515 85.0078113,17.3229051 84.9983098,17.331607 Z M101.915477,26.8573472 C102.016082,26.9288219 102.039316,27.0677876 101.967372,27.1677358 C101.895427,27.2676839 101.755548,27.2907663 101.654942,27.2192916 C101.641362,27.2096432 101.615688,27.1911872 101.578726,27.1642843 C101.517527,27.1197406 101.446651,27.0674736 101.366904,27.0078434 C101.139482,26.8377916 100.886248,26.6426273 100.613629,26.4252244 C99.8347532,25.8041024 99.0558421,25.1287313 98.3281743,24.4218117 C97.2174043,23.3427133 96.3277496,22.2883174 95.73931,21.2909161 C95.4723069,20.8383477 95.2704124,20.4019146 95.1390123,19.9830569 C95.102211,19.8657472 95.1681012,19.7410104 95.2861821,19.7044495 C95.4042631,19.6678886 95.5298199,19.7333484 95.5666212,19.8506581 C95.6871507,20.2348644 95.8750033,20.6409431 96.1257229,21.0659112 C96.6908762,22.0238422 97.5566104,23.0498882 98.6413214,24.1036706 C99.3576056,24.7995313 100.125786,25.4655979 100.894002,26.0782193 C101.162865,26.2926266 101.412435,26.4849672 101.636248,26.6523209 C101.714433,26.7107827 101.783763,26.76191 101.84343,26.8053389 C101.878988,26.8312196 101.903273,26.8486769 101.915477,26.8573472 Z M106.886946,17.0531186 C106.979938,17.1341334 106.989215,17.2747012 106.907668,17.3670855 C106.82612,17.4594698 106.684628,17.4686866 106.591637,17.3876718 C106.572366,17.3708832 106.538171,17.3399126 106.491173,17.2954948 C106.413975,17.2225342 106.328255,17.1376204 106.236133,17.0414783 C105.973592,16.7674777 105.711248,16.4574918 105.466115,16.117116 C105.026218,15.5063043 104.690523,14.8655898 104.501347,14.2072481 C104.359122,13.7122956 104.157065,13.2978398 103.911149,12.9561001 C103.73635,12.7131885 103.550209,12.5216037 103.365466,12.3758481 C103.258109,12.2911478 103.178017,12.2417038 103.13836,12.2223266 C103.027374,12.1680971 102.981654,12.0347515 103.03624,11.9244907 C103.090826,11.81423 103.225048,11.7688077 103.336033,11.8230372 C103.581353,11.9429046 103.931328,12.2190224 104.275511,12.6973193 C104.551099,13.0802934 104.775667,13.5409234 104.932036,14.0851003 C105.10567,14.6893542 105.418239,15.2859292 105.830376,15.8581963 C106.062576,16.1806126 106.31166,16.4749307 106.560546,16.7346806 C106.647424,16.8253512 106.727918,16.905087 106.799886,16.973105 C106.842389,17.0132742 106.872122,17.0402033 106.886946,17.0531186 Z" id="Combined-Shape" fill="#61A1DF" fill-rule="nonzero"></path>
            </g>
        </g>
    </g>
</svg>