<svg xmlns="http://www.w3.org/2000/svg" xmlns:xlink="http://www.w3.org/1999/xlink" width="356" height="77" viewBox="0 0 356 77">
    <defs>
        <linearGradient id="b" x1="11.038%" x2="88.986%" y1="3.658%" y2="82.952%">
            <stop offset="0%" stop-color="#0E3E70"/>
            <stop offset="100%" stop-color="#0D3A6A"/>
        </linearGradient>
        <ellipse id="a" cx="90.021" cy="38.487" rx="90.021" ry="38.487"/>
        <linearGradient id="c" x1="100%" x2="0%" y1="7.85%" y2="100%">
            <stop offset="0%" stop-color="#104576"/>
            <stop offset="100%" stop-color="#104576"/>
        </linearGradient>
    </defs>
    <g fill="none" fill-rule="evenodd">
        <g transform="translate(3)">
            <use fill="url(#b)" xlink:href="#a"/>
            <ellipse cx="90.021" cy="38.487" rx="90.021" ry="38.487"/>
            <path fill="#FFF" fill-rule="nonzero" d="M45.917 27.497a.666.666 0 0 1 .907-.357l66.386 31.905c.642.308.424 1.277-.287 1.277H33.869a.671.671 0 0 1-.62-.92l12.668-31.905zM34.854 58.98h75.123L46.892 28.661 34.854 58.98z"/>
            <path fill="#1C6EA3" d="M34.854 58.98h75.123L46.892 28.66z"/>
            <rect width="1.417" height="60.939" x="59.514" y="8.031" fill="#FFF" rx=".709"/>
            <path fill="#FFF" fill-rule="nonzero" d="M7.134 38.62h165.832a.674.674 0 0 0 .667-.682.674.674 0 0 0-.667-.681H7.134a.674.674 0 0 0-.667.681c0 .376.298.681.667.681z"/>
            <path fill="#FFF" fill-rule="nonzero" d="M55.592 47c5.126-1.44 10.253-3.055 15.042-4.81C84.582 37.08 92.88 31.91 92.88 26.574c0-5.51-11.198-8.375-30.24-9.65-9.269-.62-19.033-.76-27.58-.627a245.864 245.864 0 0 0-1.96.039c-.51.013-.8.322-.79.693a.67.67 0 0 0 .685.653l.541-.013c.444-.01.96-.02 1.545-.029 8.513-.132 18.244.006 27.47.624 17.98 1.204 28.994 4.023 28.994 8.31 0 4.459-8.057 9.479-21.369 14.356-4.752 1.74-9.848 3.346-14.944 4.777a224.978 224.978 0 0 1-6.305 1.672c-.138.035-.26.064-.362.089-.913.218-.746 1.395.065 1.353.382-.018.589-.026.828-.036.684-.028 1.489-.055 2.408-.081 9.54-.267 21.398-.135 34.694.688 19.231 1.19 38.134 3.655 55.825 7.684 6.981 1.59 13.684 3.407 20.074 5.462a.666.666 0 0 0 .838-.436.672.672 0 0 0-.432-.844c-6.428-2.067-13.168-3.894-20.185-5.492-17.768-4.046-36.74-6.52-56.038-7.714-12.115-.75-23.042-.929-32.12-.754L55.592 47z"/>
        </g>
        <path stroke="#AEBAC4" stroke-linecap="square" stroke-width=".945" d="M204.632 11.571v50.442" opacity=".605"/>
        <path fill="url(#c)" d="M259.325 45.251h-22.459l-3.045 5.433H226l14.5-25.33c.207-.393.42-.733.64-1.022.219-.288.478-.53.778-.726.3-.197.658-.346 1.073-.45.415-.104.934-.156 1.557-.156h6.99c1.915 0 3.323.773 4.222 2.319l14.465 25.365h-7.786l-3.114-5.433zm-19.171-6.09h15.849l-4.81-8.444c-.254-.461-.537-.79-.848-.986a1.767 1.767 0 0 0-.952-.294h-2.665c-.738 0-1.35.438-1.834 1.315l-4.74 8.409zM271.956 23h33.324c5.33 0 7.994 2.25 7.994 6.748v2.492c0 4.683-2.664 7.024-7.994 7.024h-2.318l11.454 11.42h-9.343L294.31 39.61h-15.607v11.074h-6.748V23zm6.748 6.437v4.394h26.784c.9 0 1.35-.369 1.35-1.107v-2.215c0-.715-.52-1.072-1.558-1.072h-26.576zm44.19 11.246v10.001h-6.748V23h29.173c5.56 0 8.34 2.25 8.34 6.748v4.187c0 4.499-2.78 6.748-8.34 6.748h-22.425zm0-11.246v4.81h22.425c1.038 0 1.557-.335 1.557-1.004V30.44c0-.669-.52-1.003-1.557-1.003h-22.425z"/>
    </g>
</svg>
