<?xml version="1.0" encoding="UTF-8" standalone="no"?>
<svg width="352px" height="79px" viewBox="0 0 352 79" version="1.1" xmlns="http://www.w3.org/2000/svg" xmlns:xlink="http://www.w3.org/1999/xlink">
    <!-- Generator: Sketch 47.1 (45422) - http://www.bohemiancoding.com/sketch -->
    <title>ARP Logo</title>
    <desc>Created with Sketch.</desc>
    <defs>
        <linearGradient x1="11.037906%" y1="3.65786615%" x2="88.9862253%" y2="82.9519986%" id="linearGradient-1">
            <stop stop-color="#0E3E70" offset="0%"></stop>
            <stop stop-color="#0D3A6A" offset="100%"></stop>
        </linearGradient>
        <ellipse id="path-2" cx="91.0210495" cy="39.4867361" rx="90.0210495" ry="38.4867361"></ellipse>
    </defs>
    <g id="Symbols" stroke="none" stroke-width="1" fill="none" fill-rule="evenodd">
        <g id="ARP-Logo">
            <g id="Group-2">
                <g id="Group-5-Copy">
                    <g id="Group-Copy-4">
                        <mask id="mask-3" fill="white">
                            <use xlink:href="#path-2"></use>
                        </mask>
                        <g id="Mask">
                            <use fill="url(#linearGradient-1)" fill-rule="evenodd" xlink:href="#path-2"></use>
                            <ellipse stroke="#FFFFFF" stroke-width="1" cx="91.0210495" cy="39.4867361" rx="90.5210495" ry="38.9867361"></ellipse>
                        </g>
                        <path d="M91.0210495,77.9734722 C140.738302,77.9734722 181.042099,60.7423735 181.042099,39.4867361 C181.042099,18.2310987 140.738302,1 91.0210495,1 C41.3037967,1 1,18.2310987 1,39.4867361 C1,60.7423735 41.3037967,77.9734722 91.0210495,77.9734722 Z M91.0210495,78.9734722 C40.8075618,78.9734722 0,61.5269986 0,39.4867361 C0,17.4464736 40.8075618,0 91.0210495,0 C141.234537,0 182.042099,17.4464736 182.042099,39.4867361 C182.042099,61.5269986 141.234537,78.9734722 91.0210495,78.9734722 Z" id="Mask-Copy" fill="#FFFFFF" fill-rule="nonzero" mask="url(#mask-3)"></path>
                        <path d="M46.9171368,28.4970548 C47.0602254,28.1366678 47.4761572,27.9730493 47.8241107,28.1402711 L114.210376,60.0446096 C114.85163,60.3527874 114.633517,61.3221018 113.922918,61.3221018 L34.8693058,61.3221018 C34.3974075,61.3221018 34.07467,60.8424571 34.2497907,60.4013934 L46.9171368,28.4970548 Z M35.8543803,59.9790785 L110.977264,59.9790785 L47.8918769,29.6610972 L35.8543803,59.9790785 Z" id="Path-2-Copy" fill="#FFFFFF" fill-rule="nonzero" mask="url(#mask-3)"></path>
                        <polygon id="Path-Copy" fill="#1C6EA3" mask="url(#mask-3)" points="35.8543803 59.9790785 110.977264 59.9790785 47.8918769 29.6610972"></polygon>
                        <rect id="Rectangle" fill="#FFFFFF" mask="url(#mask-3)" x="60.51417" y="9.03067485" width="1.41700405" height="60.9386503" rx="0.708502024"></rect>
                        <path d="M8.13389738,39.6194622 L173.966011,39.6194622 C174.33447,39.6194622 174.633165,39.3143819 174.633165,38.9380462 C174.633165,38.5617106 174.33447,38.2566303 173.966011,38.2566303 L8.13389738,38.2566303 C7.7654383,38.2566303 7.4667432,38.5617106 7.4667432,38.9380462 C7.4667432,39.3143819 7.7654383,39.6194622 8.13389738,39.6194622 Z" id="Line-Copy-2" fill="#FFFFFF" fill-rule="nonzero" mask="url(#mask-3)"></path>
                        <path d="M56.5915928,47.9996136 C61.7181868,46.5600852 66.845229,44.9449619 71.6336165,43.1907036 C85.5819221,38.0806472 93.8807479,32.9101603 93.8807479,27.5729308 C93.8807479,22.0638309 82.6827291,19.1977132 63.6400786,17.9228276 C54.372241,17.3023555 44.6079603,17.1636904 36.0611604,17.2964054 C35.4739842,17.3055231 34.9545408,17.3152947 34.5081494,17.3250703 C34.3517506,17.3284952 34.2156109,17.3316774 34.1003953,17.3345356 C33.5914325,17.3483039 33.3010221,17.6570636 33.3111038,18.0277904 C33.3211856,18.3985172 33.6279417,18.6908244 33.9962628,18.6806768 C34.2472117,18.6743246 34.3820677,18.6711724 34.5371729,18.6677758 C34.9807929,18.6580609 35.4974251,18.6483422 36.0817426,18.6392689 C44.5952565,18.5070707 54.3261702,18.645262 63.5515234,19.2628898 C81.5311138,20.4666047 92.5464396,23.2859623 92.5464396,27.5729308 C92.5464396,32.0317698 84.4891435,37.0517743 71.1772459,41.9286783 C66.4245622,43.6698563 61.3290283,45.2750538 56.2330461,46.7059866 C54.4491437,47.2068997 52.7928211,47.6501865 51.3067486,48.0311417 C50.7869758,48.1643857 50.3257361,48.2802919 49.92836,48.3782737 C49.7895004,48.4125126 49.6686031,48.4420512 49.5663344,48.4668161 C48.653053,48.6845282 48.8200274,49.8623543 49.6314534,49.8204506 C50.0132266,49.8024695 50.2200356,49.7935305 50.4590799,49.7838961 C51.1430384,49.7563302 51.9475771,49.728749 52.867119,49.7029966 C62.4061447,49.4358495 74.2653297,49.5680209 87.5613539,50.3912347 C106.79196,51.5818837 125.695122,54.0463819 143.386086,58.0750648 C150.367326,59.6648708 157.07031,61.4815668 163.459936,63.5365113 C163.810914,63.6493881 164.186349,63.4545104 164.298493,63.1012398 C164.410638,62.7479692 164.217025,62.370082 163.866046,62.2572051 C157.43837,60.1900235 150.698262,58.3632656 143.680529,56.7651491 C125.913126,52.7190593 106.940704,50.2455314 87.6432757,49.0507451 C75.5282277,48.3006506 64.6013411,48.1224537 55.5230859,48.297035 C55.8738268,48.2002693 56.2301117,48.1011161 56.5915928,47.9996136 Z" id="Path-3-Copy" fill="#FFFFFF" fill-rule="nonzero" mask="url(#mask-3)"></path>
                    </g>
                </g>
                <g id="Group-8" transform="translate(202.159634, 12.385133)" stroke="#AEBAC4" stroke-width="0.944785276" stroke-linecap="square" opacity="0.605015851">
                    <path d="M0.472334683,0.185960356 L0.472334683,50.6275142" id="Line"></path>
                </g>
            </g>
            <path d="M257.413933,46.505 L234.895094,46.505 L231.841692,52 L224,52 L238.538357,26.38 C238.746545,25.9833314 238.960512,25.6391681 239.180266,25.3475 C239.400019,25.0558319 239.66025,24.8108343 239.960965,24.6125 C240.26168,24.4141657 240.62022,24.2625005 241.036595,24.1575 C241.45297,24.0524995 241.973431,24 242.597994,24 L249.60694,24 C251.526891,24 252.937919,24.7816589 253.840065,26.345 L268.343725,52 L260.536731,52 L257.413933,46.505 Z M238.19138,40.345 L254.082949,40.345 L249.259962,31.805 C249.005511,31.338331 248.722148,31.0058343 248.409867,30.8075 C248.097586,30.6091657 247.779526,30.51 247.455679,30.51 L244.783952,30.51 C244.04373,30.51 243.430742,30.9533289 242.944972,31.84 L238.19138,40.345 Z M270.078612,24 L303.492545,24 C308.836026,24 311.507726,26.2749773 311.507726,30.825 L311.507726,33.345 C311.507726,38.0816904 308.836026,40.45 303.492545,40.45 L301.167796,40.45 L312.652751,52 L303.284359,52 L292.493359,40.8 L276.844673,40.8 L276.844673,52 L270.078612,52 L270.078612,24 Z M276.844673,30.51 L276.844673,34.955 L303.700732,34.955 C304.602878,34.955 305.053944,34.5816704 305.053944,33.835 L305.053944,31.595 C305.053944,30.8716631 304.533483,30.51 303.492545,30.51 L276.844673,30.51 Z M321.1537,41.885 L321.1537,52 L314.387639,52 L314.387639,24 L343.637842,24 C349.212642,24 352,26.2749773 352,30.825 L352,35.06 C352,39.6100228 349.212642,41.885 343.637842,41.885 L321.1537,41.885 Z M321.1537,30.51 L321.1537,35.375 L343.637842,35.375 C344.67878,35.375 345.199241,35.0366701 345.199241,34.36 L345.199241,31.525 C345.199241,30.84833 344.67878,30.51 343.637842,30.51 L321.1537,30.51 Z" id="ARP" fill="#FFFFFF"></path>
        </g>
    </g>
</svg>