<svg xmlns="http://www.w3.org/2000/svg" width="39" height="54" viewBox="0 0 39 54">
    <g fill="none" fill-rule="evenodd">
        <ellipse cx="10.588" cy="43.435" fill="#73A1C2" rx="3.529" ry="3.522"/>
        <path fill="#73A1C2" d="M29.395 43.347l8.118.332-8.118 8.196z"/>
        <g fill="#14629B" fill-rule="nonzero">
            <path d="M37.85 0H1.123C.533 0 .055.475.055 1.06v51.096c0 .585.478 1.06 1.068 1.06H29.05c.283 0 .555-.112.756-.31l8.8-8.731c.2-.199.313-.468.313-.75V1.06C38.919.475 38.44 0 37.85 0zm-7.733 49.598l-.005-5.12 5.16.005-5.155 5.115zm6.665-7.233l-7.739-.007c-.284 0-.556.111-.756.31-.2.2-.313.47-.313.75l.007 7.678H2.19V2.12h34.59v40.245z"/>
            <path d="M10.869 38.434c-2.687 0-4.873 2.168-4.873 4.834 0 2.666 2.186 4.835 4.873 4.835 2.687 0 4.873-2.169 4.873-4.835s-2.186-4.834-4.873-4.834zm0 7.549c-1.509 0-2.736-1.218-2.736-2.715 0-1.496 1.227-2.714 2.736-2.714 1.509 0 2.736 1.218 2.736 2.714 0 1.497-1.227 2.715-2.736 2.715zM24.933 42.13h-5.877c-.59 0-1.068.474-1.068 1.06 0 .585.478 1.06 1.068 1.06h5.877c.59 0 1.069-.475 1.069-1.06 0-.586-.479-1.06-1.069-1.06zM10.618 6.36H7.519c-.59 0-1.069.475-1.069 1.06 0 .586.479 1.06 1.069 1.06h3.099c.59 0 1.068-.474 1.068-1.06 0-.585-.478-1.06-1.068-1.06zM32.1 6.652h-9.296c-.59 0-1.069.475-1.069 1.06 0 .586.479 1.06 1.069 1.06H32.1c.59 0 1.068-.474 1.068-1.06 0-.585-.478-1.06-1.068-1.06zM31.873 11.087H16.058c-.59 0-1.068.474-1.068 1.06 0 .585.478 1.06 1.068 1.06h15.815c.59 0 1.068-.475 1.068-1.06 0-.586-.478-1.06-1.068-1.06zM31.961 19.217H7.064c-.59 0-1.068.474-1.068 1.06 0 .585.478 1.06 1.068 1.06h24.897c.59 0 1.069-.475 1.069-1.06 0-.586-.479-1.06-1.069-1.06zM31.961 22.912H7.064c-.59 0-1.068.475-1.068 1.06 0 .586.478 1.06 1.068 1.06h24.897c.59 0 1.069-.474 1.069-1.06 0-.585-.479-1.06-1.069-1.06zM31.961 26.608H7.064c-.59 0-1.068.475-1.068 1.06 0 .585.478 1.06 1.068 1.06h24.897c.59 0 1.069-.475 1.069-1.06 0-.585-.479-1.06-1.069-1.06zM31.636 30.303h-.588c-.59 0-1.069.475-1.069 1.06 0 .586.479 1.06 1.069 1.06h.588c.59 0 1.068-.474 1.068-1.06 0-.585-.478-1.06-1.068-1.06zM27.634 30.303H7.064c-.59 0-1.068.475-1.068 1.06 0 .586.478 1.06 1.068 1.06h20.57c.59 0 1.068-.474 1.068-1.06 0-.585-.478-1.06-1.068-1.06z"/>
        </g>
    </g>
</svg>
