<?xml version="1.0" encoding="UTF-8"?>
<svg width="10px" height="15px" viewBox="0 0 10 15" version="1.1" xmlns="http://www.w3.org/2000/svg" xmlns:xlink="http://www.w3.org/1999/xlink">
    <!-- Generator: Sketch 47.1 (45422) - http://www.bohemiancoding.com/sketch -->
    <title>dropin</title>
    <desc>Created with Sketch.</desc>
    <defs></defs>
    <g id="Page-1" stroke="none" stroke-width="1" fill="none" fill-rule="evenodd">
        <g id="dropin" fill="#FFFFFF">
            <path d="M6.857,5 C6.857,4.369 6.634,3.83 6.187,3.384 C5.76396504,2.94709538 5.17907551,2.70459786 4.571,2.714 C3.941,2.714 3.401,2.937 2.955,3.384 C2.509,3.83 2.285,4.369 2.285,5 C2.285,5.631 2.509,6.17 2.955,6.616 C3.402,7.063 3.94,7.286 4.571,7.286 C5.202,7.286 5.741,7.063 6.188,6.616 C6.634,6.17 6.858,5.631 6.858,5 L6.857,5 Z M9.143,5 C9.143,5.649 9.045,6.182 8.848,6.598 L5.598,13.508 C5.45419962,13.796634 5.19554085,14.0114022 4.88539041,14.0996904 C4.57523996,14.1879787 4.24225108,14.1416303 3.968,13.972 C3.78556291,13.864044 3.64096119,13.7023276 3.554,13.509 L0.294,6.599 C0.099,6.181 0,5.648 0,5 C0,3.738 0.446,2.66 1.34,1.768 C2.231,0.875 3.31,0.428 4.57,0.428 C5.832,0.428 6.91,0.875 7.803,1.768 C8.695,2.661 9.142,3.738 9.142,5 L9.143,5 Z" id="Shape"></path>
        </g>
    </g>
</svg>