<svg xmlns="http://www.w3.org/2000/svg" width="10" height="15" viewBox="0 0 10 15">
    <path fill="#14629B" fill-rule="evenodd" d="M6.857 5c0-.631-.223-1.17-.67-1.616a2.202 2.202 0 0 0-1.616-.67c-.63 0-1.17.223-1.616.67-.446.446-.67.985-.67 1.616 0 .631.224 1.17.67 1.616.447.447.985.67 1.616.67.631 0 1.17-.223 1.617-.67.446-.446.67-.985.67-1.616zm2.286 0c0 .649-.098 1.182-.295 1.598l-3.25 6.91a1.147 1.147 0 0 1-1.63.464 1.028 1.028 0 0 1-.414-.463l-3.26-6.91C.099 6.181 0 5.648 0 5c0-1.262.446-2.34 1.34-3.232C2.231.875 3.31.428 4.57.428c1.262 0 2.34.447 3.233 1.34.892.893 1.339 1.97 1.339 3.232z"/>
</svg>
