<svg xmlns="http://www.w3.org/2000/svg" width="54" height="49" viewBox="0 0 54 49">
    <g fill="none" fill-rule="evenodd">
        <path fill="#73A1C2" d="M22.973 19.6H31l.204 4.923H36.1v6.53h-6.645v4.88h-6.482v-4.88h-5.024v-6.53h5.024z"/>
        <path stroke="#73A1C2" stroke-width="1.17" d="M39.858 5.485h10.285v2.097H39.858zM3.858 5.485h10.285v2.097H3.858z"/>
        <path fill="#14629B" fill-rule="nonzero" d="M53.691 7.885a1.053 1.053 0 0 0-.746-.31l-1.274.001V4.508c0-.583-.472-1.056-1.054-1.056H40c-.583 0-1.055.473-1.055 1.056v2.205L36.41.649A1.055 1.055 0 0 0 35.438 0H18.561c-.425 0-.808.256-.972.649l-2.535 6.064V4.508c0-.583-.472-1.056-1.055-1.056H3.383c-.582 0-1.054.473-1.054 1.056v3.08H1.054C.472 7.588 0 8.06 0 8.644v39.299A1.058 1.058 0 0 0 1.055 49l51.89-.012c.583 0 1.055-.473 1.055-1.057V8.633c0-.28-.111-.55-.309-.748zm-12.637-2.32h8.508v2.01h-8.508v-2.01zm-21.79-3.452h15.472l2.282 5.463h-1.771L33.96 4.362c-.16-.401-.548-.664-.979-.664H21.02c-.431 0-.819.263-.979.664l-1.287 3.214h-1.771l2.282-5.463zM32.976 7.58l-11.953.003.71-1.771h10.535l.708 1.768zM4.438 5.565h8.508v2.01H4.438v-2.01zM51.89 43.074H9.759a1.056 1.056 0 0 0 0 2.113H51.89v1.683l-49.782.012V41.51l49.782-.011v1.576zm0-3.69l-49.782.012V17.19l24.995-.005 24.787-.006v22.204zm0-24.317l-24.995.005-24.787.006v-1.632l41.935-.012a1.056 1.056 0 0 0 0-2.113l-41.935.012V9.7l49.782-.012v5.378z"/>
        <path fill="#14629B" fill-rule="nonzero" d="M36.602 23.75h-5.37v-4.776c0-.556-.464-1.007-1.035-1.007h-6.394a1.02 1.02 0 0 0-1.034 1.007v4.777h-5.371c-.571 0-1.034.45-1.034 1.007v5.987c0 .557.463 1.008 1.034 1.008h5.37v4.806a1.02 1.02 0 0 0 1.035 1.008h6.394c.571 0 1.034-.451 1.034-1.008v-4.806h5.371c.571 0 1.034-.451 1.034-1.008v-5.987a1.02 1.02 0 0 0-1.034-1.007zm-1.034 5.988h-5.37c-.572 0-1.035.451-1.035 1.007v4.807h-4.326v-4.807c0-.556-.463-1.007-1.034-1.007h-5.371v-3.973h5.37c.572 0 1.035-.45 1.035-1.007v-4.777h4.326v4.777c0 .556.463 1.007 1.034 1.007h5.371v3.973zM47.438 12.09a.824.824 0 0 0-.223-.418.827.827 0 0 0-1.033-.101.78.78 0 0 0-.226.225.811.811 0 0 0-.122.613.843.843 0 0 0 .122.294.835.835 0 0 0 .367.3.804.804 0 0 0 .313.064.825.825 0 0 0 .756-.504.851.851 0 0 0 .063-.313.804.804 0 0 0-.017-.16zM6.53 43.124a.816.816 0 0 0-.962-.641.808.808 0 0 0-.642.641.803.803 0 0 0 .121.612.782.782 0 0 0 .226.226.808.808 0 0 0 .295.122.807.807 0 0 0 .738-.223.835.835 0 0 0 .224-.419.802.802 0 0 0 0-.318z"/>
    </g>
</svg>
