<svg xmlns="http://www.w3.org/2000/svg" width="37" height="21" viewBox="0 0 37 21">
    <path fill="#FFF" fill-rule="nonzero" d="M18.5 0a19.243 19.243 0 0 1 13.653 5.64l3.72 3.733a1.6 1.6 0 0 1-.003 2.261l-3.717 3.716c-7.535 7.533-19.752 7.533-27.288 0l-3.729-3.714-.002-.002a1.6 1.6 0 0 1 0-2.263l3.731-3.73A19.243 19.243 0 0 1 18.5 0zm12.34 6.954A17.337 17.337 0 0 0 18.5 1.849 17.337 17.337 0 0 0 6.16 6.954l-3.552 3.55 3.553 3.552a17.448 17.448 0 0 0 24.678 0l3.553-3.551-3.553-3.551zM18.5 15a4.5 4.5 0 1 1 0-9 4.5 4.5 0 0 1 0 9z"/>
</svg>
